<svg width="20" height="20" viewBox="0 0 20 20" fill="none" xmlns="http://www.w3.org/2000/svg">
<path d="M12.24 8.5576C11.93 9.7976 10 9.1676 9.4 8.9976L9.95 6.8176C10.57 6.9976 12.56 7.2576 12.24 8.5576ZM9.13 10.1176L8.53 12.5276C9.27 12.7176 11.56 13.4476 11.9 12.0876C12.26 10.6676 9.87 10.2976 9.13 10.1176ZM19.7 12.4176C18.36 17.7776 12.94 21.0376 7.58 19.6976C2.22 18.3576 -1.037 12.9376 0.300001 7.5776C0.617644 6.30369 1.18313 5.10483 1.96417 4.0495C2.74521 2.99417 3.72649 2.10303 4.85198 1.427C5.97747 0.750962 7.22511 0.303267 8.52365 0.109483C9.82218 -0.0843016 11.1462 -0.0203788 12.42 0.2976C17.77 1.6376 21.03 7.0576 19.7 12.4176ZM12.21 6.0476L12.66 4.2476L11.56 3.9976L11.12 5.7276C10.83 5.6576 10.54 5.5876 10.24 5.5276L10.68 3.7576L9.59 3.4976L9.14 5.2876C8.9 5.2276 8.66 5.1776 8.44 5.1176L6.93 4.7376L6.63 5.9076C6.63 5.9076 7.45 6.0976 7.43 6.1076C7.88 6.2176 7.96 6.4976 7.94 6.7476L6.71 11.6776C6.66 11.8176 6.5 11.9976 6.21 11.9476C6.22 11.9576 5.41 11.7476 5.41 11.7476L4.87 12.9976L6.29 13.3576C6.56 13.4276 6.82 13.4976 7.08 13.5576L6.62 15.3776L7.72 15.6576L8.17 13.8476C8.47 13.9276 8.76 13.9976 9.04 14.0776L8.59 15.8676L9.69 16.1476L10.15 14.3276C12 14.6776 13.42 14.5376 14 12.8476C14.5 11.4976 14 10.6976 13 10.1876C13.72 9.9976 14.26 9.5476 14.41 8.5676C14.61 7.2376 13.59 6.5276 12.21 6.0476Z" fill="black"/>
</svg>
