<svg width="16" height="16" viewBox="0 0 16 16" fill="none" xmlns="http://www.w3.org/2000/svg">
    <g clip-path="url(#clip0_1360_6424)">
        <path d="M15.7607 9.93462C14.6918 14.2226 10.3474 16.8292 6.06549 15.7603C1.77737 14.6914 -0.829259 10.3472 0.239679 6.06537C1.30855 1.77737 5.64668 -0.829258 9.9348 0.239679C14.2167 1.3023 16.8296 5.64655 15.7607 9.93462Z" fill="url(#paint0_linear_1360_6424)"/>
        <path d="M11.8089 7.00332C11.9651 5.94082 11.1589 5.36582 10.0464 4.98457L10.4089 3.54082L9.53389 3.32207L9.18389 4.72832C8.95264 4.67207 8.71514 4.61582 8.47764 4.56582L8.82764 3.15332L7.95264 2.93457L7.59639 4.37207C7.40264 4.32832 7.21514 4.28457 7.03389 4.24082V4.23457L5.82139 3.93457L5.59014 4.87207C5.59014 4.87207 6.24014 5.02207 6.22764 5.02832C6.58389 5.11582 6.64639 5.35332 6.63389 5.54082L6.22139 7.18457C6.24639 7.19082 6.27764 7.19707 6.31514 7.21582C6.28389 7.20957 6.25264 7.20332 6.22139 7.19082L5.64639 9.49082C5.60264 9.59707 5.49014 9.75957 5.24639 9.69707C5.25264 9.70957 4.60889 9.54082 4.60889 9.54082L4.17139 10.5471L5.31514 10.8346C5.52764 10.8908 5.73389 10.9408 5.94014 10.9971L5.57764 12.4533L6.45264 12.6721L6.81514 11.2283C7.05264 11.2908 7.29014 11.3533 7.51514 11.4096L7.15889 12.8471L8.03389 13.0658L8.39639 11.6096C9.89639 11.8908 11.0214 11.7783 11.4901 10.4221C11.8714 9.33457 11.4714 8.70332 10.6839 8.29082C11.2651 8.15957 11.6964 7.77832 11.8089 7.00332ZM9.80264 9.81582C9.53389 10.9033 7.69639 10.3158 7.10264 10.1658L7.58389 8.23457C8.17764 8.38457 10.0901 8.67832 9.80264 9.81582ZM10.0776 6.98457C9.82764 7.97832 8.30264 7.47207 7.80889 7.34707L8.24639 5.59707C8.74014 5.72207 10.3339 5.95332 10.0776 6.98457Z" fill="white"/>
    </g>
    <defs>
        <linearGradient id="paint0_linear_1360_6424" x1="799.567" y1="-0.384" x2="799.567" y2="1599.84" gradientUnits="userSpaceOnUse">
            <stop stop-color="#F9AA4B"/>
            <stop offset="1" stop-color="#F7931A"/>
        </linearGradient>
        <clipPath id="clip0_1360_6424">
            <rect width="16" height="16" fill="white"/>
        </clipPath>
    </defs>
</svg>
