<svg width="24" height="24" viewBox="0 0 24 24" fill="none" xmlns="http://www.w3.org/2000/svg">
<g clip-path="url(#clip0_1358_6434)">
<path d="M12 8L9 9.75V13.25L12 15L15 13.25V9.75L12 8ZM13.517 10.04L11.987 10.932L10.47 10.047L12 9.155L13.517 10.04ZM9.99 10.922L11.474 11.788V13.538L9.99 12.673V10.922ZM12.464 13.575V11.808L14.01 10.906V12.673L12.464 13.575ZM3 0L0 1.75V5.25L3 7L6 5.25V1.75L3 0ZM4.517 2.04L2.987 2.932L1.47 2.047L3 1.155L4.517 2.04ZM0.99 2.921L2.474 3.787V5.537L0.99 4.674V2.921ZM3.464 5.574V3.808L5.01 2.906V4.673L3.464 5.574ZM3 17L0 18.75V22.25L3 24L6 22.25V18.75L3 17ZM4.517 19.04L2.987 19.932L1.47 19.047L3 18.155L4.517 19.04ZM0.99 19.922L2.474 20.788V22.538L0.99 21.674V19.922ZM3.464 22.575V20.808L5.01 19.906V21.673L3.464 22.575ZM21 0L18 1.75V5.25L21 7L24 5.25V1.75L21 0ZM22.517 2.04L20.987 2.932L19.47 2.047L21 1.155L22.517 2.04ZM18.99 2.922L20.474 3.788V5.538L18.99 4.673V2.922ZM21.464 5.575V3.808L23.01 2.906V4.673L21.464 5.575ZM21 17L18 18.75V22.25L21 24L24 22.25V18.75L21 17ZM22.517 19.04L20.987 19.932L19.47 19.047L21 18.155L22.517 19.04ZM18.99 19.922L20.474 20.788V22.538L18.99 21.673V19.922ZM21.464 22.575V20.808L23.01 19.906V21.673L21.464 22.575ZM9 3H15V4H9V3ZM9 20H15V21H9V20ZM3.5 9V15H2.5V9H3.5ZM7.293 8.828L5.172 6.707L5.879 6L8 8.12L7.293 8.828ZM16 8.293L18.121 6.172L18.828 6.879L16.707 9L16 8.293ZM8.128 14.879L6.007 17L5.3 16.293L7.421 14.172L8.128 14.879ZM16.879 14.129L19 16.25L18.293 16.957L16.172 14.836L16.879 14.129ZM21.5 9V15H20.5V9H21.5Z" fill="black"/>
</g>
<defs>
<clipPath id="clip0_1358_6434">
<rect width="24" height="24" fill="black"/>
</clipPath>
</defs>
</svg>
