<svg width="24" height="22" viewBox="0 0 24 22" fill="none" xmlns="http://www.w3.org/2000/svg">
<path d="M12.5 7.5V4.5L9 6.5H4L0.5 4.5V19.5" stroke="black" stroke-miterlimit="10" stroke-linecap="round" stroke-linejoin="round"/>
<path d="M12.5 7.5L9 9.5H4L0.5 7.5M9.475 12.229L9 12.5H4L0.5 10.5M9.475 15.229L9 15.5H4L0.5 13.5M9.475 18.229L9 18.5H4L0.5 16.5M9.475 21.229L9 21.5H4L0.5 19.5M0.5 4.5L4 2.5H9L12.5 4.5M23.5 19.5V10.5L20 12.5H15L11.5 10.5V19.5" stroke="black" stroke-miterlimit="10" stroke-linecap="round" stroke-linejoin="round"/>
<path d="M23.5 13.5L20 15.5H15L11.5 13.5M23.5 16.5L20 18.5H15L11.5 16.5M23.5 19.5L20 21.5H15L11.5 19.5M11.5 10.5L15 8.5H20L23.5 10.5M18.5 0.5V1.5M18.5 5.5V6.5M21.5 3.5H20.5M16.5 3.5H15.5" stroke="black" stroke-miterlimit="10" stroke-linecap="round" stroke-linejoin="round"/>
</svg>
