<?xml version="1.0" encoding="utf-8"?>
<!-- Generator: Adobe Illustrator 27.5.0, SVG Export Plug-In . SVG Version: 6.00 Build 0)  -->
<svg version="1.1" id="Capa_1" xmlns="http://www.w3.org/2000/svg" xmlns:xlink="http://www.w3.org/1999/xlink" x="0px" y="0px"
	 viewBox="0 0 425.197 371.61" style="enable-background:new 0 0 425.197 371.61;" xml:space="preserve">
<rect style="fill:#FFFFFF;" width="425.197" height="371.61"/>
<g>
	<ellipse style="fill:#C6C6C6;" cx="289.727" cy="313.268" rx="62.978" ry="14.336"/>
	<g>
		<polygon style="fill:#C6C6C6;" points="42.975,302.158 88.274,319.691 279.717,273.172 233.403,261.44 		"/>
		<g>
			<g style="enable-background:new    ;">
				<g>
					<polygon style="fill:#9E4129;" points="226.991,277.272 199.693,269.471 201.363,101.123 228.66,108.926 					"/>
				</g>
				<g>
					<polygon style="fill:#EE7044;" points="228.66,108.926 201.363,101.123 231.083,94.814 258.38,102.617 					"/>
				</g>
				<g>
					<polygon style="fill:#D8693E;" points="258.38,102.617 256.71,270.963 226.991,277.272 228.66,108.926 					"/>
				</g>
			</g>
			<g style="enable-background:new    ;">
				<g>
					<polygon style="fill:#0D4F64;" points="182.604,286.695 155.308,278.893 156.634,144.895 183.933,152.697 					"/>
				</g>
				<g>
					<polygon style="fill:#1E7E9F;" points="183.933,152.697 156.634,144.895 186.356,138.586 213.654,146.387 					"/>
				</g>
				<g>
					<polygon style="fill:#1A718E;" points="213.654,146.387 212.324,280.385 182.604,286.695 183.933,152.697 					"/>
				</g>
			</g>
			<g style="enable-background:new    ;">
				<g>
					<polygon style="fill:#005C64;" points="139.285,295.893 111.987,288.09 113.084,177.553 140.379,185.355 					"/>
				</g>
				<g>
					<polygon style="fill:#00B1C3;" points="140.379,185.355 113.084,177.553 142.796,171.244 170.095,179.049 					"/>
				</g>
				<g>
					<polygon style="fill:#00A2B1;" points="170.095,179.049 168.999,289.582 139.285,295.893 140.379,185.355 					"/>
				</g>
			</g>
			<g style="enable-background:new    ;">
				<g>
					<polygon style="fill:#7C2821;" points="94.897,305.313 67.6,297.512 68.44,212.885 95.738,220.688 					"/>
				</g>
				<g>
					<polygon style="fill:#E74645;" points="95.738,220.688 68.44,212.885 98.16,206.578 125.456,214.379 					"/>
				</g>
				<g>
					<polygon style="fill:#D0383C;" points="125.456,214.379 124.618,299.006 94.897,305.313 95.738,220.688 					"/>
				</g>
			</g>
		</g>
		<g>
			<g>
				<g>
					<g style="enable-background:new    ;">
						<g>
							<polygon style="fill:#7E1210;" points="212.126,86.313 206.358,83.041 194.981,71.705 200.749,74.977 							"/>
						</g>
						<g>
							<polygon style="fill:#7E1210;" points="174.227,102.352 168.458,99.079 167.098,98.042 172.866,101.314 							"/>
						</g>
						<g>
							<polygon style="fill:#851312;" points="174.167,97.282 168.398,94.01 194.374,71.102 200.143,74.374 							"/>
						</g>
						<g>
							<polygon style="fill:#8F1315;" points="186.631,60.906 180.863,57.635 208.242,55.229 214.01,58.501 							"/>
						</g>
						<g>
							<polygon style="fill:#7E1210;" points="200.143,74.374 194.374,71.102 180.863,57.635 186.631,60.906 							"/>
						</g>
						<g>
							<polygon style="fill:#7E1210;" points="172.866,101.314 167.098,98.042 147.999,83.383 153.767,86.654 							"/>
						</g>
						<g>
							<polygon style="fill:#841212;" points="151.253,80.494 145.485,77.222 147.62,75.068 153.388,78.34 							"/>
						</g>
						<g>
							<polygon style="fill:#7E1210;" points="107.756,140.996 101.988,137.724 97.592,134.459 103.361,137.73 							"/>
						</g>
						<g>
							<polygon style="fill:#841212;" points="106.932,125.246 101.164,121.975 145.485,77.222 151.253,80.494 							"/>
						</g>
						<g>
							<polygon style="fill:#7E1210;" points="103.361,137.73 97.592,134.459 83.037,123.627 88.804,126.898 							"/>
						</g>
						<g>
							<polygon style="fill:#851312;" points="83.796,113.063 78.028,109.791 82.716,105.656 88.484,108.928 							"/>
						</g>
						<g>
							<polygon style="fill:#851312;" points="44.755,147.486 38.987,144.215 78.028,109.791 83.796,113.063 							"/>
						</g>
						<g>
							<polygon style="fill:#7E1210;" points="56.501,160.226 50.733,156.953 38.987,144.215 44.755,147.486 							"/>
						</g>
						<g>
							<polygon style="fill:#B0161E;" points="186.631,60.906 214.01,58.501 212.126,86.313 200.749,74.977 175.358,101.194 
								174.227,102.352 172.866,101.314 153.767,86.654 111.142,137.009 107.756,140.996 103.361,137.73 88.804,126.898 
								56.501,160.226 44.755,147.486 83.796,113.063 88.484,108.928 92.593,112.564 106.932,125.246 151.253,80.494 153.388,78.34 
								155.365,80.14 174.167,97.282 200.143,74.374 							"/>
						</g>
					</g>
				</g>
			</g>
		</g>
	</g>
	<g>
		<g>
			<path style="fill:#00B1C3;" d="M384.446,220.092c0,51.459-41.713,93.176-93.173,93.176c-51.46,0-93.172-41.717-93.172-93.176
				c0-51.457,41.712-93.174,93.172-93.174C342.733,126.918,384.446,168.635,384.446,220.092z"/>
			<path style="fill:#DADADA;" d="M365.102,240.875c-22.934,20.445-59.366,24.125-85.238,6.498
				c-12.893-8.785-22.477-20.359-28.202-34.898c-5.406-13.729-5.744-29.141-3.645-43.578c2.146-14.75,8.804-27.662,18.147-38.527
				c-39.258,10.965-68.063,46.969-68.063,89.723c0,51.459,41.712,93.176,93.172,93.176c51.46,0,93.173-41.717,93.173-93.176
				c0-1.656-0.047-3.299-0.132-4.934C379.24,224.543,373.021,233.816,365.102,240.875z"/>
			<g>
				<path style="fill:#A9C811;" d="M227.776,171.176c0.872-0.445,2.071-0.568,3.062-0.742c1.896-0.338,4.374,1.127,6.139,0.113
					c0.467-0.252,0.674-0.689,1.14-0.961c0.438-0.279,1.048-0.355,1.528-0.539c0.907-0.338,2.057-0.754,2.232-1.83
					c0.351-1.982-2.361-1.232-3.487-1.383c0.105-0.324,0.704-0.668,0.759-0.973c0.118-0.676-0.346-0.674-0.64-1.176
					c-0.611-0.99-0.174-1.918,0.09-2.871c0.247-0.936,0.03-2.225-0.891-2.564c-1.313-0.475-1.678,0.895-2.462,1.445
					c-0.499,0.355-1.708,0.666-2.145,0.018c-0.365-0.531-0.206-1.955-0.468-2.602c-0.571-1.365-1.079-1.445-2.511-1.59
					c-0.886-0.088-1.864-0.189-2.739-0.096c-0.977,0.104-1.75,0.521-1.938,1.559c-0.075,0.434,0.219,0.842-0.015,1.248
					c-0.279,0.467-1.024,0.451-1.458,0.67c-1.288,0.666-0.366,1.072-0.206,2.166c0.176,1.162-0.614,1.918-1.562,2.42
					c-0.832,0.438-1.399,0.773-2.039,1.379c-0.396,0.371-0.745,0.439-0.98,0.977c-0.217,0.475-0.129,0.973-0.479,1.463
					c-0.526,0.754-1.286,1.924-2.349,1.66c-0.875-0.207-1.251-1.104-1.166-1.949c0.059-0.504,0.348-0.975,0.542-1.469
					c-6.941,9.598-12.098,20.57-14.984,32.434c0.112,0.551,0.016,1.215,0.136,1.697c0.13,0.457,0.381,0.773,0.469,1.244
					c0.087,0.459-0.146,0.949-0.103,1.371c0.114,1.086,1.037,1.295,1.88,0.773c0.875-0.531,1.196-1.686,1.239-2.631
					c0.091-1.365-0.698-2.342-0.871-3.508c-0.266-1.932,2.11-1.771,3.116-2.5c1.096-0.783,1.345-2.348,2.537-3.027
					c0.994-0.566,2.231-0.693,2.833-1.85c0.537-1.064-0.907-4.275,0.889-4.705c0.579-0.145,0.802,0.475,1.341,0.402
					c0.524-0.064,1.225-1.08,1.561-1.477c0.845-0.961,1.355-1.133,2.594-1.258c1.184-0.117,2.277-0.424,2.846-1.561
					c0.204-0.424,0.087-0.969,0.335-1.373c0.48-0.795,0.597-0.355,1.344-0.576c1.223-0.354,2.215-1.369,3.513-1.787
					c0.583-0.189,2.393-0.873,2.727-0.309c0.569,0.959-1.706,0.645-2.029,1.434c-0.799,1.938,2.67-0.357,2.994-0.488
					c0.989-0.395,3.426-0.137,3.015-1.957c-0.612-0.035-1.105,0.039-1.675,0.156c-0.903,0.189-0.675,0.328-1.208-0.266
					c-0.703-0.777-0.762-1.508-0.132-2.221c0.827-0.949,1.306-1.301-0.484-1.459c-0.539-0.051-1.122-0.078-1.63,0.104
					c-0.249,0.078-1.067,0.814-1.284,0.754C225.444,172.664,227.381,171.381,227.776,171.176z"/>
				<path style="fill:#A9C811;" d="M230.605,288.707c1.692-0.182,4.55-2.076,3.572-4.185c-0.22-0.461-1.924-1.816-0.756-2.027
					c0.172-0.035,1.077,0.52,1.371,0.57c0.611,0.125,1.122,0.125,1.688-0.08c1.152-0.418,2.026-1.664,2.467-2.779
					c0.376-0.969,0.438-1.15,1.255-1.836c1.735-1.438,2.054-3.494,1.922-5.613c-0.134-1.969-0.436-3.85,2.189-4.111
					c0.553-0.06,0.901,0,1.373-0.201c0.582-0.238,0.741-0.467,1.371-0.58c1.341-0.256,1.484-0.559,2.111-1.762
					c0.468-0.895,1.007-1.785,1.401-2.748c0.539-1.299,0.421-2.351,0.598-3.73c0.132-1.066,0.452-2.063,0.539-3.137
					c0.087-1.066-0.174-2.094,0.524-2.945c0.7-0.863,1.488-1.113,1.996-2.15c0.834-1.656,1.592-2.777,1.592-4.678
					c0-0.748,0.263-2.016,0-2.709c-0.377-1.064-1.082-0.547-1.953-0.789c-1.81-0.525-1.694-3.119-3.672-3.389
					c-0.822-0.119-1.667,0.096-2.483-0.023c-1.196-0.174-1.939-0.041-3.075-0.012c0.175-1.219-1.371-1.889-2.233-2.318
					c-0.51-0.26-0.262-0.33-0.936-0.236c-0.231,0.033-0.624,0.246-0.856,0.344c-0.644,0.285-1.065,0.541-1.635,0.945
					c-0.145-0.74,0.539-1.201,0.362-1.926c-2.314-0.979-3.264,0.775-4.839,2.023c-0.439-1.066,0.159-1.457,0.887-2.113
					c0.603-0.549,0.833-0.842,0.983-1.693c0.231-1.482-0.585-3.123-0.983-4.539c-0.364-1.287-0.872-1.193-2.069-1.193
					c-0.844,0-1.689,0.045-2.523-0.168c-3.078-0.771-4.17-4.111-7.013-5.117c-1.371-0.492-2.742-0.629-4.188-0.854
					c-0.642-0.104-1.34-0.305-1.966-0.504c-0.934-0.303-1.199-0.889-1.854-1.449c-0.669-0.572-1.255-0.41-2.071-0.148
					c-0.542,0.186-2.257,0.994-1.149,1.531c0.083,0.418,0.216,1.107-0.017,1.527c-0.35,0.635-1.138,0.473-1.446,1.004
					c-0.787-0.648-0.916-1.5-0.595-2.451c0.277-0.816,1.326-1.406,1.253-2.318c-0.901-0.174-1.516,0.805-2.231,1.131
					c-0.716,0.336-1.382,0.484-2.102,1.02c-0.29,0.236-0.566,0.418-0.802,0.74c-0.229,0.326-0.259,0.816-0.567,1.113
					c-0.22,0.227-0.672,0.316-0.992,0.381c-0.742,0.154-0.35,0.232-0.991-0.211c-0.946-0.643-1.049-0.557-2.116-0.293
					c-0.828,0.211-1.6,0.402-2.417,0.699c-0.569,0.205-0.062,0.619-0.878,0.178c-0.148-0.074-0.303-0.24-0.444-0.42
					c0.033,0.73,0.077,1.459,0.127,2.184c0.551,0.482,1.216,0.969,1.848,0.676c0.778-0.357,0.567-1.514,0.6-2.23
					c0.861-0.045,1.706-0.152,2.406,0.352c0.729,0.541,0.643,1.412,1.079,2.191c0.98,1.773,0.381,3.598-0.788,5.145
					c-1.076,1.422-2.127,2.586-2.932,4.174c-0.263,0.541-0.438,0.736-0.481,1.381c-0.058,0.836,0.308,0.566,0.542,1.158
					c0.177,0.459,0.033,0.926-0.176,1.379c0.799,3.504,1.799,6.932,2.982,10.275c0.028,0.049,0.054,0.094,0.084,0.145
					c0.554,0.928,0.696,1.93,1.193,2.818c0.438,0.789,1.136,1.521,1.617,2.32c0.656,1.119,0.672,1.32,1.957,1.389
					c1.441,0.063,1.808,0.56,2.898,1.438c2.245,1.793,3.955,2.978,3.225,5.865c-0.67,2.627-0.481,5.564,0.327,8.07
					c4.13,5.94,8.93,11.379,14.295,16.201c0.018-0.135,0.051-0.258,0.121-0.355C229.526,288.525,230.02,288.781,230.605,288.707z"/>
				<path style="fill:#A9C811;" d="M207.562,210.324c0.495,0.096,0.83,0.318,1.33,0.197c0.115-0.314,0.463-0.684,0.407-1.021
					c-0.073-0.369-0.717-0.576-1.034-0.721c-0.746-0.322-1.548-0.59-2.249-1.002c-0.742-0.43-1.3-0.975-2.128-1.254
					c-1.079-0.348-2.144-0.34-3.235-0.633c-0.627-0.168-0.702,0.023-1.302,0.152c-0.064,0.014-0.132,0.021-0.2,0.029
					c-0.042,0.275-0.076,0.553-0.115,0.83c1.183-0.734,2.194-0.141,3.353,0.273c0.523,0.191,1.075,0.26,1.528,0.619
					c0.263,0.205,0.919,0.678,0.99,0.977c0.162,0.555-0.727,0.504-0.481,1.113c0.234,0.605,1.505,0.469,1.986,0.439
					C206.806,210.309,207.17,210.252,207.562,210.324z"/>
				<path style="fill:#A9C811;" d="M214.914,210.938c-0.498-0.479-0.904-0.416-1.591-0.416c-0.642,0-1.545,0.035-2.027-0.385v-0.152
					c-0.555-0.107-0.219,0.654-0.145,0.869c0.136,0.367,0.31,0.617-0.29,0.736c-0.411,0.09-0.989-0.152-1.372,0.045
					c-0.452,0.248-0.351,0.695,0.074,0.838c0.687,0.229,1.618-0.32,2.302-0.24c0.236,0.031,0.278,0.199,0.422,0.229
					c0.235,0.059,0.513,0,0.748,0.004c0.418,0.027,1.063,0.186,1.474,0.045c0.261-0.086,0.8-0.758,0.306-0.824
					C215.554,211.857,215.219,211.238,214.914,210.938z"/>
				<path style="fill:#A9C811;" d="M203.931,212.221c0.177,0.059,0.381,0.035,0.543,0.109c0.242,0.102,0.242,0.246,0.393,0.371
					c0.274,0.26,0.611,0.313,1.122,0.256c0.438-0.045,0.611-0.229,0.159-0.582c-0.336-0.256-0.703-0.033-0.75-0.506
					C204.858,211.783,204.368,211.881,203.931,212.221z"/>
				<path style="fill:#A9C811;" d="M205.389,211.736c0,0.055,0.005,0.092,0.009,0.133c0.036,0.006,0.072,0.006,0.11,0.014
					L205.389,211.736z"/>
				<path style="fill:#A9C811;" d="M217.057,212.424c0.161,0.371,0.395,0.152,0.67,0.242c0.335,0.1,0.465,0.281,0.832,0.281
					c0.611,0,1.152-0.158,1.049-0.91c-0.67-0.051-0.816,0.408-1.439-0.006l0.188-0.094
					C217.727,211.686,217.418,211.92,217.057,212.424z"/>
				<path style="fill:#A9C811;" d="M236.962,173.498c0.688,0.23,1.518-0.463,2.293-0.326c0.623,0.117,0.96,0.545,1.66,0.447
					c0.51-0.072,1.475-0.615,1.383-1.24c-0.101-0.883-1.079-0.414-1.602-0.742c-0.263-0.16-0.395-0.527-0.437-0.797
					c-0.086-0.512,0.129-0.396,0.216-0.803c0.075-0.299,0.409-0.516-0.273-0.566c-0.413-0.029-0.526,0.17-0.697,0.479
					c-1.02,0.314-1.323,1.926-1.96,2.584C237.241,172.83,236.119,173.203,236.962,173.498z"/>
				<path style="fill:#A9C811;" d="M235.066,147.24c0.423,0.465,0.542,1.09,1.036,1.441c0.324,0.24,0.773,0.314,1.094,0.59
					c0.539,0.438,0.889,1.043,0.496,1.643c-0.376,0.596-0.875,0.334-1.371,0.049c-0.494-0.271-0.874-0.533-1.441-0.51
					c-0.263,0.016-0.632,0.037-0.863,0.152c-0.261,0.131-0.493,0.453-0.712,0.666c-0.381,0.406-0.805,0.951-1.371,1.082
					c-0.718,0.172-1.999-0.451-2.641-0.076c-0.336,0.193-0.393,0.611-0.072,0.814c0.322,0.197,1.093-0.184,1.399-0.225
					c0.642-0.086,1.648-0.066,2.155,0.289c0.586,0.389,0.732,1.291,1.258,1.814c0.686,0.68,1.513,0.977,2.479,0.967
					c0.351-0.01,1.048,0.074,0.905-0.512c-0.101-0.357-0.893-0.248-1.082-0.523c-0.099-0.154-0.084-0.912,0.033-1.027
					c0.433-0.406,0.96,0.266,1.251,0.396c0.513,0.236,1.705,0.303,1.895-0.459c0.104-0.43-0.19-0.547-0.35-0.873
					c-0.232-0.451-0.293-0.605-0.293-1.166c-0.015-2.111,2.087-0.482,3.139-0.207c0.815,0.229,1.938-0.582,1.255-1.412
					c-0.423-0.492-1.488-0.459-1.984-1.051c-0.293-0.33-0.609-0.836-0.583-1.281c0.015-0.365,0.438-0.561,0.438-0.801
					c0.03-0.543-1.065-1-1.547-1.096c-0.743-0.146-1.181,0.08-1.646-0.658c-0.362-0.563-0.435-0.893-0.863-0.969
					c-0.992,0.709-1.968,1.439-2.93,2.186C234.517,146.693,234.849,146.984,235.066,147.24z"/>
				<path style="fill:#A9C811;" d="M246.575,139.406c0.698,0.926,3.619,0.203,4.767,0.381c1.167,0.166,2.596,1.219,3.386,2.063
					c0.715,0.77,0.889,2.332,0.957,3.369c0.106,1.777-1.48,2.953-2.346,4.229c-1.355,2.02,0.949,4.703,1.24,6.699
					c0.158,1.102,1.486,1.453,2.583,1.162c0.842-0.227,1.766-1.051,2.447-1.631c1.108-0.969,1.108-2.381,2.38-3.248
					c1.297-0.91,2.509-1.045,3.994-1.328c3.283-0.625,5.95-3.143,9.335-3.127c1.428,0,2.9,0.234,4.391,0.143
					c0.86-0.049,1.587-0.494,0.449-1.004c-0.873-0.393-1.705-0.277-1.705-1.539c0.015-1.051,0.803-0.908,1.576-0.523
					c0.479,0.248,1.732,1.414,2.377,1.004c1.004-0.627-0.367-1.238-0.786-1.443c-0.615-0.289-1.636-0.6-1.389-1.465
					c0.277-1.004,2.306-1.014,3.152-1.326c0.9-0.338,1.909-0.961,2.42-1.809c0.523-0.898,0.189-1.885,0.48-2.779
					c0.553-1.699,3.208-0.836,4.304-1.83c0.451-0.406,0.51-0.387-0.09-0.582c-0.845-0.285-2.013,0.168-2.873,0.221
					c-1.298,0.082-1.194-0.5-2.186-1.098c-1.078-0.662-2.961-0.291-4.198-0.291c-1.342,0-2.688-0.029-3.985,0.264
					c-1.936,0.436-3.66,1.494-5.741,1.486c-1.697-0.008-3.368-0.438-5.089-0.279c-2.234,0.209-4.435,0.068-6.64-0.01
					c-1.163-0.045-2.754-0.141-3.817,0.361l0.145-0.072c-1.633,0.367-3.093,1.35-4.783,1.664c-1.117,0.207-2.26,0.24-3.355,0.51
					c-0.451,0.238-0.9,0.475-1.348,0.719C246.362,138.607,246.262,138.996,246.575,139.406z"/>
				<path style="fill:#A9C811;" d="M290.396,163.367c-0.364,0.021-0.703,0.236-1.021,0.377c-0.628,0.271-1.398,0.102-2.026-0.023
					c-0.379-0.078-0.67-0.121-1.01,0.117c-0.318,0.229-0.45,0.359-0.858,0.43c-0.453,0.082-0.585,0.105-0.892,0.404
					c-0.145,0.143-0.756,0.461-0.548,0.721c0.115,0.168,0.273,0,0.391-0.027c0.232-0.059,0.232-0.141,0.508-0.039
					c0.339,0.125,0.614,0.42,0.918,0.621c0.613,0.43,1.43,0.154,2.017-0.174c0.36-0.213,0.567-0.125,1.004-0.189
					c0.364-0.061,0.688-0.258,1.022-0.404c0.338-0.135,0.83-0.1,1.061-0.375c0.135-0.143,0.135-0.326,0.267-0.473
					c0.087-0.09,0.391-0.121,0.438-0.201c0.014-0.014,0.07-0.064,0.087-0.084c-0.111-0.102-0.306-0.281-0.477-0.34
					C290.946,163.627,290.809,163.332,290.396,163.367z"/>
				<path style="fill:#A9C811;" d="M289.756,167.807c-0.063,0.365-0.063,0.846,0.406,0.811c0.523-0.035,0.585-0.631,1.021-0.693
					c0.712-0.102,1.616,0.496,2.215-0.107c0.322-0.328,0.6-0.994,0.38-1.432c-0.203-0.43-0.786-0.59-1.21-0.832
					c-0.293-0.174-0.466-0.691-0.832-0.662h0.073c-0.393-0.195-0.703,0.371-0.917,0.605c-0.188,0.199-0.729,0.254-0.729,0.563
					c0.012,0.443,0.567,0.246,0.19,0.809C290.146,167.172,289.827,167.424,289.756,167.807z"/>
				<path style="fill:#A9C811;" d="M294.056,164.629c0.041-0.582-1.093,0.043-1.152-0.328l0.045,0.072
					c-0.216,0-0.51-0.072-0.643,0.117c0.277,0.254,0.468,0.559,0.79,0.771c0.293,0.199,0.945,0.379,0.829-0.258
					C293.5,165.016,293.72,164.592,294.056,164.629z"/>
				<path style="fill:#A9C811;" d="M295.529,169.639c-0.261,0.045-0.99,0.262-1.096,0.545c-0.146,0.412,0.862,0.277,1.096,0.227
					c0.715-0.162,1.383-0.6,2.057-0.855c0.596-0.232,1.022-0.064,1.632-0.025c0.596,0.035,1.576-0.199,2.058-0.598
					c0.162-0.135,0.381-0.309,0.335-0.541c-0.045-0.193-0.248-0.197-0.35-0.33c-0.292-0.443,0.383-0.531,0.235-0.975
					c-0.118-0.389-0.544-0.162-0.85-0.191c-0.493-0.045-0.684-0.58-0.845-1.014c-0.204-0.555-0.188-1.316-0.52-1.793
					c-0.266-0.357-0.808-0.502-1.188-0.635c-0.219-0.07-0.712-0.133-0.831-0.318c-0.304-0.43,0.38-0.643,0.538-0.912
					c0.282-0.496-0.318-0.541-0.666-0.574c-0.207-0.018-0.408,0.006-0.54-0.172c-0.105-0.158-0.092-0.564-0.25-0.646
					c-0.117-0.061-0.435,0.057-0.553,0.104c-0.321,0.098-0.785,0.27-0.962,0.59c-0.206,0.34,0.041,0.893,0.275,1.172
					c0.1,0.133,0.19,0.074,0.25,0.291c0.059,0.24-0.134,0.402-0.134,0.617c0,0.559,0.496,0.506,0.891,0.594
					c0.391,0.08,0.439,0.232,0.715,0.51c0.333,0.342,0.333,0.498,0.317,1.02c-0.01,0.357-0.026,0.789-0.435,0.941
					c-0.382,0.148-0.641-0.043-0.96,0.344c-0.164,0.178-0.13,0.355-0.221,0.574c-0.1,0.338-0.324,0.439-0.541,0.664
					c0.426,0.16,1.897,0.117,1.547,0.885C296.344,169.529,295.878,169.578,295.529,169.639z"/>
				<path style="fill:#A9C811;" d="M351.089,148.658c-0.797,0.146-1.512,0.506-2.303,0.547c-1.46,0.061-2.974-0.611-4.388-0.109
					c-0.63,0.221-0.86,1.031-1.387,1.203c-0.835,0.277-1.647-0.344-2.567,0.096c-0.99,0.473-1.75,1.605-2.786,2.158
					c-2.45,1.313-4.578-0.006-6.441-1.801c0.668-0.723,7.534,0.115,6.646-1.678c-0.729-1.475-6.342-0.865-7.8-1.24
					c-2.641-0.686-3.661-2.414-6.621-2.158c-3.238,0.279-9.467,2.172-10.939,5.564c-0.261,0.613,0.015,1.027-0.437,1.627
					c-0.915,1.24-2.686,1.318-4.067,1.611c-1.124,0.23-1.315,1.281-2.406,1.611c-0.061,1.1-0.131,3.258,0.7,4.082
					c1.106,1.088,3.325-0.896,4.635-0.584c0.975,0.232,0.758,0.994,1.007,1.686c0.233,0.65,1.313,1.66,1.969,1.904
					c0.876,0.328,1.998,0.059,2.496-0.738c0.449-0.701,0.186-1.492,0.8-2.09c0.553-0.529,0.99-0.797,1.109-1.635
					c0.163-1.238-0.568-0.844-1.239-1.525c-1.678-1.676,1.867-2.553,2.756-3.004c0.379-0.182,0.875-0.547,1.134-0.875
					c0.235-0.283,0.354-0.881,0.645-1.08c0.889-0.604,0.571,1.035,0.353,1.498c-0.586,1.25-1.796,2.559-0.439,3.891
					c1.151,1.131,2.464-0.051,3.718-0.15c0.64-0.051,1.681-0.178,2.276,0.014c0.406,0.137,1.193,1.1,0.949,1.547
					c-0.396,0.703-1.824,0.088-2.35-0.029c-0.319-0.072-2.041-0.264-2.257,0.014c-0.397,0.502,0.405,0.525,0.579,0.795
					c0.132,0.211,0.087,0.693,0.074,0.947c-0.014,0.693-0.368,1.35-1.168,1.088c-0.421-0.139-0.965-0.885-1.531-0.408
					c-0.366,0.283-0.408,1.393-0.366,1.814c0.063,0.549,0.411,1.475-0.287,1.904c-0.383,0.225-1.428,0.092-1.842-0.018
					c-0.583-0.152-1.004-0.539-1.676-0.43c-0.539,0.09-1.268,0.568-1.824,0.729c-1.371,0.398-3.265,0.213-4.736,0.143
					c-0.28-0.619-0.79-1.381-0.598-2.117c0.143-0.527,0.915-1.182,0.349-1.75c-0.381-0.369-1.428-0.168-1.796,0.242
					c-0.624,0.701-0.115,1.143,0.119,1.816c0.189,0.531,0.204,1.436-0.176,1.887c-0.509,0.625-1.416,0.254-2.143,0.426
					c-0.364,0.078-0.889,0.199-1.11,0.523c-0.218,0.328-0.028,0.807-0.497,1.088c-0.598,0.338-1.369,0.188-1.952,0.684
					c-1.051,0.865-2.041,1.951-3.165,2.674c-0.758,0.477-1.734,0.553-2.607,0.744c-0.923,0.189-1.522,0.385-2.512,0.445
					c-0.014,0.67-0.059,1.105,0.351,1.617c0.439,0.543,0.949,0.98,1.326,1.568c0.835,1.275,0.862,2.705-0.873,3.166
					c-1.533,0.414-3.24-0.301-4.83-0.219c-0.491,0.021-1.587-0.066-1.876,0.502c-0.368,0.684,0.596,1.428,1.004,1.83
					c0.291,0.299,0.803,0.549,1.05,0.875c0.554,0.793-0.115,2.342-0.525,3.078c-0.19,0.365-0.975,0.932-1.032,1.305
					c-0.282,1.5,1.646,2.398,2.739,2.641c0.947,0.195,2.726,0.727,3.689,0.439c1.066-0.322,2.083-1.922,2.48-2.957
					c0.612-1.566,0.375-2.354,1.938-3.301c0.556-0.34,1.297-0.357,1.793-0.898c0.48-0.541,0.425-1.504,0.947-1.947
					c0.788-0.654,2.7-0.195,3.691-0.664c1.62-0.75,1.809-1.215,3.503-0.07c1.484,1.004,2.827,2.188,4.21,3.223
					c1.066,0.785,0.703,0.705,1.006,1.922c0.207,0.748,0.718,1.918,1.331,2.363c0.814-0.779,1.456-1.787,1.191-2.912
					c0.558-0.035,1.157-0.01,1.71-0.047c0.757-3.129-7.309-3.014-6.826-6.645c0.99-0.268,1.181,0.332,1.926,0.643
					c0.524,0.234,1.354,0.211,1.85,0.496c0.714,0.402,0.702,0.896,1.299,1.441c0.424,0.396,0.977,0.375,1.475,0.727
					c2.041,1.42,0.155,5.43,4.535,5.139c-1.522,0.818,0.102,2.316,0.438,3.441c0.058-1.125,1.049-1.875,1.019-3.172
					c-0.012-1.438-0.745-1.824,0.893-2.34c1.048-0.338,2.186-0.357,3.208-0.736c1.56-0.572,1.341-0.625,0.92-2.195
					c-0.162-0.592-0.628-0.488-0.353-1.303c0.145-0.402,1.063-0.938,1.342-1.354c0.612-0.932,0.962-2.789,2.45-2.863
					c1.562-0.072,0.961,1.523,1.879,2.207c0.802,0.605,2.48,0.371,2.803-0.598c-2.522-0.744,0.601-1.375,1.342-1.75
					c0.481-0.227,1.165-1.289,1.734-0.771c0.672,0.631-0.613,1.59-0.687,1.947c-0.32,1.561,0.889,1.508,1.913,2.449
					c1.049,0.986,1.515,2.582,2.288,3.773c-1.544,0.092-3.268,0.191-4.65-0.445c-1.78-0.82-2.483-1.514-4.553-0.803
					c-0.642,0.211-1.284,0.545-1.877,0.857c-0.159,0.094-0.308,0.578-0.601,0.713c-0.309,0.154-0.831-0.107-1.171,0.018
					c-1.602,0.598-1.966,1.221-3.77,1.311c0.099,0.725,0.842,0.469,1.107,1.037c0.216,0.432,0,1.326,0,1.801
					c-0.018,1.582,0.144,1.596,1.777,1.67c1.94,0.102,2.476-0.016,4.097,1.137c1.896,1.365,1.88-0.174,3.354-1.152
					c1.735,0.678,0.012,2.326-0.411,3.248c-0.404,0.879-0.068,2.008-0.449,2.77c-0.743,1.545-3.852,0.727-5.279,0.727
					c-0.963,0-2.142,0.178-3.019-0.176c-1.018-0.414-1.75-1.25-2.961-1.578c-1.544-0.406-4.796-1.016-5.558,1.027
					c0.293,0.098,0.526,0.467,0.745,0.574c-0.624,1.016-2.669,0.379-3.485-0.176c-1.21-0.828-1.43-1.172-2.928-1.6
					c-1.462-0.432-2.92-1.098-3.662-2.459c-0.657-1.219-0.248-2.488-1.637-3.094c-0.725-0.33-0.887-0.256-1.605,0.014
					c-0.902,0.346-0.726,0.777-1.893,0.893c-1.3,0.131-2.652-0.074-3.955,0c-1.192,0.064-2.462,0.174-3.467,0.75
					c-0.612,0.355-0.803,0.982-1.796,1.15c-0.613,0.104-1.429,0.055-2.043-0.006c-1.456-0.139-3.878-1.348-5.057,0.338
					c-0.586,0.818-0.118,1.287-0.963,2.023c-0.703,0.615-1.782,0.826-2.278,1.691c-1.063,1.809,0.568,2.947-1.484,4.246
					c-1.913,1.201-2.858,1.656-3.969,3.668c-0.947,1.709-2.652,2.926-3.486,4.688c-0.582,1.207-0.156,2.529-0.145,3.807
					c0,2.785-2.524,4.154-0.698,7.016c0.686,1.082,1.733,1.943,2.347,3.074c0.626,1.184,0.713,2.602,1.226,3.828
					c0.976,2.268,4.9,5.41,7.205,6.367c1.838,0.771,2.786,0.211,4.183-0.535c1.403-0.723,2.754-0.531,4.287-0.457
					c2.409,0.109,3.78-2.764,6.579-1.438c1.342,0.635,1.182,1.615,2.772,1.91c1.443,0.264,2.714-0.039,3.516,1.549
					c1.017,2.01-0.309,4.16-0.369,6.205c-0.043,2.055,1.854,2.063,2.556,3.898c0.524,1.377,0.524,2.902,1.138,4.244
					c1.223,2.699,1.719,4.154,0.469,7.162c-0.937,2.273-1.416,5.025-0.108,7.303c1.503,2.604,1.854,5.121,2.276,8.082
					c0.192,1.363,0.115,2.709,0.644,3.9c0.64,1.436,2.056,2.754,2.436,4.242c0.391,1.605-0.294,3.268,0.453,4.836
					c0.767,1.619,1.818,1.348,3.367,1.123c2.49-0.352,5.364,0.129,7.61-1.24c1.081-0.67,1.721-1.451,2.438-2.525
					c0.948-1.412,1.588-1.873,2.975-2.813c1.354-0.912,2.142-1.984,2.171-3.617c0.044-1.943-0.464-2.48,1.545-3.512
					c1.27-0.654,2.377-1.191,2.261-2.918c-0.086-1.291-1.02-2.523-0.566-3.943c1.092-3.357,6.009-4.26,6.88-7.613
					c0.76-2.879-0.58-6.783-1.015-9.631c-0.925-5.982,4.3-8.547,8.118-12.1c2.029-1.889,3.224-4.98,4.582-7.379
					c0.568-0.977,1.34-2.092,0.857-3.217c-0.391-0.945-1.648-1.727-2.639-1.574c-1.503,0.24-2.408,0.801-4.082,0.729
					c-3.239-0.131-3.603-2.678-5.996-4.383c-2.247-1.605-2.725-4.096-4.393-6.252c-1.135-1.482-0.709-2.184-0.872-3.975
					c-0.131-1.604-1.136-1.846-2.331-2.771c-0.948-0.725-1.198-1.342-1.605-2.35c-0.453-1.115-1.575-2.623-1.765-3.762
					c-0.203-1.248,0.846-1.535,1.749-0.756c0.279,0.225-0.028,0.945,0.63,1.129c0.424,0.111,0.715-0.49,1.105-0.68
					c0.409,1.43,0.613,2.98,1.243,4.334c0.508,1.111,1.386,2.186,1.865,3.402c0.524,1.305,0.802,1.771,1.928,2.734
					c1.136,0.984,2.168,2.229,2.855,3.582c0.902,1.777,1.34,6.639,3.69,7.27c1.105,0.301,2.537-1.045,3.655-1.285
					c1.652-0.35,2.275-0.494,3.488-1.75c1.27-1.291,2.93-1.984,4.567-2.779c0.947-0.457,2.126-0.516,2.843-1.463
					c0.568-0.752,0.448-1.676,0.815-2.496c0.551-1.248,2.932-2.762,1.881-4.41c-0.992-1.545-3.118-0.729-3.689-2.893
					c-1.124-0.227-1.942,0.67-2.845,1.15c-1.251,0.66-2.114,0.766-3.487,0.146c-1.909-0.861-1.54-1.723-2.125-3.371
					c-0.381-1.07-1.55-1.646-1.299-2.9c2.126-0.115,2.596,0.236,3.793,1.91c0.816,1.168,1.426,2.166,2.914,2.311
					c1.3,0.117,2.581-0.715,3.805-0.441c1.255,0.289,2.015,1.557,3.385,1.9c1.371,0.35,2.876,0.043,4.215,0.574
					c0.51,0.205,0.963,0.717,1.485,0.861c0.717,0.189,1.461-0.33,2.015-0.232c1.357,0.219,1.678,1.801,2.495,2.861
					c1.122,1.463,1.809,1.164,3.499,1.34c0.244,0.023,0.449,0.059,0.623,0.105C380.782,184.59,368.707,163.428,351.089,148.658z"/>
			</g>
			<g>
				<path style="fill:#DADADA;" d="M215.774,183.773c0.699-0.795,1.175-1.049,2.017-1.184c2.073-7.688,5.297-14.938,9.987-21.238
					c1.351-1.816,2.759-3.572,4.191-5.299c-0.414-0.373-0.948-0.439-1.849-0.531c-0.886-0.088-1.864-0.189-2.739-0.096
					c-0.977,0.104-1.75,0.521-1.938,1.559c-0.075,0.434,0.219,0.842-0.015,1.248c-0.279,0.467-1.024,0.451-1.458,0.67
					c-1.288,0.666-0.366,1.072-0.206,2.166c0.176,1.162-0.614,1.918-1.562,2.42c-0.832,0.438-1.399,0.773-2.039,1.379
					c-0.396,0.371-0.745,0.439-0.98,0.977c-0.217,0.475-0.129,0.973-0.479,1.463c-0.526,0.754-1.286,1.924-2.349,1.66
					c-0.875-0.207-1.251-1.104-1.166-1.949c0.059-0.504,0.348-0.975,0.542-1.469c-6.941,9.598-12.098,20.57-14.984,32.434
					c0.112,0.551,0.016,1.215,0.136,1.697c0.13,0.457,0.381,0.773,0.469,1.244c0.087,0.459-0.146,0.949-0.103,1.371
					c0.114,1.086,1.037,1.295,1.88,0.773c0.875-0.531,1.196-1.686,1.239-2.631c0.091-1.365-0.698-2.342-0.871-3.508
					c-0.266-1.932,2.11-1.771,3.116-2.5c1.096-0.783,1.345-2.348,2.537-3.027c0.994-0.566,2.231-0.693,2.833-1.85
					c0.537-1.064-0.907-4.275,0.889-4.705c0.579-0.145,0.802,0.475,1.341,0.402C214.738,185.186,215.438,184.17,215.774,183.773z"/>
				<path style="fill:#DADADA;" d="M217.101,231c-0.64-3.291-1.164-6.699-1.559-10.176c-0.577-0.363-1.119-0.211-1.84,0.02
					c-0.542,0.186-2.257,0.994-1.149,1.531c0.083,0.418,0.216,1.107-0.017,1.527c-0.35,0.635-1.138,0.473-1.446,1.004
					c-0.787-0.648-0.916-1.5-0.595-2.451c0.277-0.816,1.326-1.406,1.253-2.318c-0.901-0.174-1.516,0.805-2.231,1.131
					c-0.716,0.336-1.382,0.484-2.102,1.02c-0.29,0.236-0.566,0.418-0.802,0.74c-0.229,0.326-0.259,0.816-0.567,1.113
					c-0.22,0.227-0.672,0.316-0.992,0.381c-0.742,0.154-0.35,0.232-0.991-0.211c-0.946-0.643-1.049-0.557-2.116-0.293
					c-0.828,0.211-1.6,0.402-2.417,0.699c-0.569,0.205-0.062,0.619-0.878,0.178c-0.148-0.074-0.303-0.24-0.444-0.42
					c0.033,0.73,0.077,1.459,0.127,2.184c0.551,0.482,1.216,0.969,1.848,0.676c0.778-0.357,0.567-1.514,0.6-2.23
					c0.861-0.045,1.706-0.152,2.406,0.352c0.729,0.541,0.643,1.412,1.079,2.191c0.98,1.773,0.381,3.598-0.788,5.145
					c-1.076,1.422-2.127,2.586-2.932,4.174c-0.263,0.541-0.438,0.736-0.481,1.381c-0.058,0.836,0.308,0.566,0.542,1.158
					c0.177,0.459,0.033,0.926-0.176,1.379c0.799,3.504,1.799,6.932,2.982,10.275c0.028,0.049,0.054,0.094,0.084,0.145
					c0.554,0.928,0.696,1.93,1.193,2.818c0.438,0.789,1.136,1.521,1.617,2.32c0.656,1.119,0.672,1.32,1.957,1.389
					c1.441,0.063,1.808,0.56,2.898,1.438c2.245,1.793,3.955,2.978,3.225,5.865c-0.67,2.627-0.481,5.564,0.327,8.07
					c4.13,5.94,8.93,11.379,14.295,16.201c0.018-0.135,0.051-0.258,0.121-0.355c0.394-0.523,0.888-0.267,1.473-0.342
					c1.692-0.182,4.55-2.076,3.572-4.185c-0.22-0.461-1.924-1.816-0.756-2.027c0.172-0.035,1.077,0.52,1.371,0.57
					c0.611,0.125,1.122,0.125,1.688-0.08c1.152-0.418,2.026-1.664,2.467-2.779c0.376-0.969,0.438-1.15,1.255-1.836
					c0.742-0.615,1.214-1.35,1.514-2.146C229.464,263.861,220.494,248.48,217.101,231z"/>
				<path style="fill:#DADADA;" d="M207.562,210.324c0.495,0.096,0.83,0.318,1.33,0.197c0.115-0.314,0.463-0.684,0.407-1.021
					c-0.073-0.369-0.717-0.576-1.034-0.721c-0.746-0.322-1.548-0.59-2.249-1.002c-0.742-0.43-1.3-0.975-2.128-1.254
					c-1.079-0.348-2.144-0.34-3.235-0.633c-0.627-0.168-0.702,0.023-1.302,0.152c-0.064,0.014-0.132,0.021-0.2,0.029
					c-0.042,0.275-0.076,0.553-0.115,0.83c1.183-0.734,2.194-0.141,3.353,0.273c0.523,0.191,1.075,0.26,1.528,0.619
					c0.263,0.205,0.919,0.678,0.99,0.977c0.162,0.555-0.727,0.504-0.481,1.113c0.234,0.605,1.505,0.469,1.986,0.439
					C206.806,210.309,207.17,210.252,207.562,210.324z"/>
				<path style="fill:#DADADA;" d="M214.846,211.697c-0.014-0.002-0.019-0.01-0.033-0.012c0.014,0.004,0.02,0.002,0.033,0.006
					c-0.012-0.277-0.024-0.551-0.031-0.828c-0.455-0.377-0.852-0.342-1.492-0.342c-0.642,0-1.545,0.035-2.027-0.385v-0.152
					c-0.555-0.107-0.219,0.654-0.145,0.869c0.136,0.367,0.31,0.617-0.29,0.736c-0.411,0.09-0.989-0.152-1.372,0.045
					c-0.452,0.248-0.351,0.695,0.074,0.838c0.687,0.229,1.618-0.32,2.302-0.24c0.236,0.031,0.278,0.199,0.422,0.229
					c0.235,0.059,0.513,0,0.748,0.004c0.418,0.027,1.063,0.186,1.474,0.045c0.105-0.035,0.252-0.162,0.36-0.311
					C214.862,212.033,214.853,211.865,214.846,211.697z"/>
				<path style="fill:#DADADA;" d="M203.931,212.221c0.177,0.059,0.381,0.035,0.543,0.109c0.242,0.102,0.242,0.246,0.393,0.371
					c0.274,0.26,0.611,0.313,1.122,0.256c0.438-0.045,0.611-0.229,0.159-0.582c-0.336-0.256-0.703-0.033-0.75-0.506
					C204.858,211.783,204.368,211.881,203.931,212.221z"/>
				<path style="fill:#DADADA;" d="M205.389,211.736c0,0.055,0.005,0.092,0.009,0.133c0.036,0.006,0.072,0.006,0.11,0.014
					L205.389,211.736z"/>
				<path style="fill:#DADADA;" d="M236.102,148.682c0.324,0.24,0.773,0.314,1.094,0.59c0.158,0.129,0.296,0.273,0.408,0.426
					c1.04-1.1,2.098-2.182,3.17-3.242c-0.356-0.273-0.888-0.471-1.186-0.529c-0.743-0.146-1.181,0.08-1.646-0.658
					c-0.362-0.563-0.435-0.893-0.863-0.969c-0.992,0.709-1.968,1.439-2.93,2.186c0.369,0.209,0.701,0.5,0.918,0.756
					C235.489,147.705,235.608,148.33,236.102,148.682z"/>
				<path style="fill:#DADADA;" d="M230.62,152.867c0.642-0.086,1.648-0.066,2.155,0.289c0.345,0.23,0.539,0.633,0.747,1.037
					c0.934-1.084,1.885-2.15,2.852-3.201c-0.019-0.01-0.037-0.02-0.054-0.029c-0.494-0.271-0.874-0.533-1.441-0.51
					c-0.263,0.016-0.632,0.037-0.863,0.152c-0.261,0.131-0.493,0.453-0.712,0.666c-0.381,0.406-0.805,0.951-1.371,1.082
					c-0.718,0.172-1.999-0.451-2.641-0.076c-0.336,0.193-0.393,0.611-0.072,0.814C229.542,153.289,230.313,152.908,230.62,152.867z"
					/>
				<path style="fill:#DADADA;" d="M247.885,139.869c1.088-0.941,2.187-1.869,3.299-2.781c-1.072,0.186-2.163,0.23-3.212,0.488
					c-0.451,0.238-0.9,0.475-1.348,0.719c-0.263,0.313-0.362,0.701-0.05,1.111C246.808,139.717,247.302,139.834,247.885,139.869z"/>
				<path style="fill:#DADADA;" d="M290.396,163.367c-0.364,0.021-0.703,0.236-1.021,0.377c-0.628,0.271-1.398,0.102-2.026-0.023
					c-0.379-0.078-0.67-0.121-1.01,0.117c-0.318,0.229-0.45,0.359-0.858,0.43c-0.453,0.082-0.585,0.105-0.892,0.404
					c-0.145,0.143-0.756,0.461-0.548,0.721c0.115,0.168,0.273,0,0.391-0.027c0.232-0.059,0.232-0.141,0.508-0.039
					c0.339,0.125,0.614,0.42,0.918,0.621c0.613,0.43,1.43,0.154,2.017-0.174c0.36-0.213,0.567-0.125,1.004-0.189
					c0.364-0.061,0.688-0.258,1.022-0.404c0.338-0.135,0.83-0.1,1.061-0.375c0.135-0.143,0.135-0.326,0.267-0.473
					c0.087-0.09,0.391-0.121,0.438-0.201c0.014-0.014,0.07-0.064,0.087-0.084c-0.111-0.102-0.306-0.281-0.477-0.34
					C290.946,163.627,290.809,163.332,290.396,163.367z"/>
				<path style="fill:#DADADA;" d="M289.756,167.807c-0.063,0.365-0.063,0.846,0.406,0.811c0.523-0.035,0.585-0.631,1.021-0.693
					c0.712-0.102,1.616,0.496,2.215-0.107c0.322-0.328,0.6-0.994,0.38-1.432c-0.203-0.43-0.786-0.59-1.21-0.832
					c-0.293-0.174-0.466-0.691-0.832-0.662h0.073c-0.393-0.195-0.703,0.371-0.917,0.605c-0.188,0.199-0.729,0.254-0.729,0.563
					c0.012,0.443,0.567,0.246,0.19,0.809C290.146,167.172,289.827,167.424,289.756,167.807z"/>
				<path style="fill:#DADADA;" d="M294.056,164.629c0.041-0.582-1.093,0.043-1.152-0.328l0.045,0.072
					c-0.216,0-0.51-0.072-0.643,0.117c0.277,0.254,0.468,0.559,0.79,0.771c0.293,0.199,0.945,0.379,0.829-0.258
					C293.5,165.016,293.72,164.592,294.056,164.629z"/>
				<path style="fill:#DADADA;" d="M295.529,169.639c-0.261,0.045-0.99,0.262-1.096,0.545c-0.146,0.412,0.862,0.277,1.096,0.227
					c0.715-0.162,1.383-0.6,2.057-0.855c0.596-0.232,1.022-0.064,1.632-0.025c0.596,0.035,1.576-0.199,2.058-0.598
					c0.162-0.135,0.381-0.309,0.335-0.541c-0.045-0.193-0.248-0.197-0.35-0.33c-0.292-0.443,0.383-0.531,0.235-0.975
					c-0.118-0.389-0.544-0.162-0.85-0.191c-0.493-0.045-0.684-0.58-0.845-1.014c-0.204-0.555-0.188-1.316-0.52-1.793
					c-0.266-0.357-0.808-0.502-1.188-0.635c-0.219-0.07-0.712-0.133-0.831-0.318c-0.304-0.43,0.38-0.643,0.538-0.912
					c0.282-0.496-0.318-0.541-0.666-0.574c-0.207-0.018-0.408,0.006-0.54-0.172c-0.105-0.158-0.092-0.564-0.25-0.646
					c-0.117-0.061-0.435,0.057-0.553,0.104c-0.321,0.098-0.785,0.27-0.962,0.59c-0.206,0.34,0.041,0.893,0.275,1.172
					c0.1,0.133,0.19,0.074,0.25,0.291c0.059,0.24-0.134,0.402-0.134,0.617c0,0.559,0.496,0.506,0.891,0.594
					c0.391,0.08,0.439,0.232,0.715,0.51c0.333,0.342,0.333,0.498,0.317,1.02c-0.01,0.357-0.026,0.789-0.435,0.941
					c-0.382,0.148-0.641-0.043-0.96,0.344c-0.164,0.178-0.13,0.355-0.221,0.574c-0.1,0.338-0.324,0.439-0.541,0.664
					c0.426,0.16,1.897,0.117,1.547,0.885C296.344,169.529,295.878,169.578,295.529,169.639z"/>
				<path style="fill:#DADADA;" d="M310.927,159.588c0.975,0.232,0.758,0.994,1.007,1.686c0.233,0.65,1.313,1.66,1.969,1.904
					c0.876,0.328,1.998,0.059,2.496-0.738c0.449-0.701,0.186-1.492,0.8-2.09c0.553-0.529,0.99-0.797,1.109-1.635
					c0.163-1.238-0.568-0.844-1.239-1.525c-1.678-1.676,1.867-2.553,2.756-3.004c0.379-0.182,0.875-0.547,1.134-0.875
					c0.235-0.283,0.354-0.881,0.645-1.08c0.889-0.604,0.571,1.035,0.353,1.498c-0.586,1.25-1.796,2.559-0.439,3.891
					c1.151,1.131,2.464-0.051,3.718-0.15c0.64-0.051,1.681-0.178,2.276,0.014c0.406,0.137,1.193,1.1,0.949,1.547
					c-0.396,0.703-1.824,0.088-2.35-0.029c-0.319-0.072-2.041-0.264-2.257,0.014c-0.397,0.502,0.405,0.525,0.579,0.795
					c0.132,0.211,0.087,0.693,0.074,0.947c-0.014,0.693-0.368,1.35-1.168,1.088c-0.421-0.139-0.965-0.885-1.531-0.408
					c-0.366,0.283-0.408,1.393-0.366,1.814c0.054,0.469,0.31,1.207-0.048,1.682c0.153-0.072,0.311-0.135,0.464-0.211
					c5.822-2.928,11.391-5.1,17.635-6.945c4.989-1.477,8.62-4.125,12.345-6.994c0.186-0.355,0.513-0.619,0.868-0.705
					c-0.538-0.473-1.065-0.957-1.615-1.418c-0.797,0.146-1.512,0.506-2.303,0.547c-1.46,0.061-2.974-0.611-4.388-0.109
					c-0.63,0.221-0.86,1.031-1.387,1.203c-0.835,0.277-1.647-0.344-2.567,0.096c-0.99,0.473-1.75,1.605-2.786,2.158
					c-2.45,1.313-4.578-0.006-6.441-1.801c0.668-0.723,7.534,0.115,6.646-1.678c-0.729-1.475-6.342-0.865-7.8-1.24
					c-2.641-0.686-3.661-2.414-6.621-2.158c-3.238,0.279-9.467,2.172-10.939,5.564c-0.261,0.613,0.015,1.027-0.437,1.627
					c-0.915,1.24-2.686,1.318-4.067,1.611c-1.124,0.23-1.315,1.281-2.406,1.611c-0.061,1.1-0.131,3.258,0.7,4.082
					C307.399,161.26,309.618,159.275,310.927,159.588z"/>
				<path style="fill:#DADADA;" d="M355.054,152.201c6.56,8.99,9.716,19.492,15.499,28.941c2.366,3.865,6.453,6.371,8.649,10.209
					c1.152,2.016,1.176,3.51-0.041,5.508c-2.847,4.672-10.715,1.27-14.281-0.203c-2.213-0.914-5.899-3.59-8.346-3.342
					c-4.446,0.453-2.892,6.404-1.737,8.561c1.519,2.834,3.478,3.902,6.312,5.072c0.761,0.314,1.176,1.07,0.754,1.852
					c-3.141,5.814-9.857,2.871-13.297-1.152c-2.951-3.449-8.186-16.373-3.399-20.137c1.088-0.855,2.369-1.131,3.471-1.918
					c2.255-1.613,2.433-4.891,2.686-7.385c0.202-1.961,0.808-4.934-0.438-6.688c-2.15-3.027-5.564-2.037-8.245-1.025
					c-3.419,1.291-5.343,1.873-8.903,1.361c-4.359-0.629-4.128,4.674-7.672,5.307c-1.101,0.197-1.944-0.816-1.423-1.852
					c2.614-5.193-9.618-0.99-12.001-0.342c-2.966,0.809-6.21,0.66-8.873,2.385c-2.608,1.691-4.892,3.84-7.383,5.701
					c0,0,0,0-0.002,0.002c0,0,0,0,0-0.002c-0.085,0.064-0.167,0.135-0.254,0.199c-1.228,0.898-2.394-0.963-1.528-1.982
					c3.189-3.746,6.42-8.189,10.93-10.461c4.834-2.438,10.181-3.326,15.137-5.547c-0.465,0.033-1.064-0.051-1.356-0.127
					c-0.583-0.152-1.004-0.539-1.676-0.43c-0.539,0.09-1.268,0.568-1.824,0.729c-1.371,0.398-3.265,0.213-4.736,0.143
					c-0.28-0.619-0.79-1.381-0.598-2.117c0.143-0.527,0.915-1.182,0.349-1.75c-0.381-0.369-1.428-0.168-1.796,0.242
					c-0.624,0.701-0.115,1.143,0.119,1.816c0.189,0.531,0.204,1.436-0.176,1.887c-0.509,0.625-1.416,0.254-2.143,0.426
					c-0.364,0.078-0.889,0.199-1.11,0.523c-0.218,0.328-0.028,0.807-0.497,1.088c-0.598,0.338-1.369,0.188-1.952,0.684
					c-1.051,0.865-2.041,1.951-3.165,2.674c-0.758,0.477-1.734,0.553-2.607,0.744c-0.923,0.189-1.522,0.385-2.512,0.445
					c-0.014,0.67-0.059,1.105,0.351,1.617c0.439,0.543,0.949,0.98,1.326,1.568c0.835,1.275,0.862,2.705-0.873,3.166
					c-1.533,0.414-3.24-0.301-4.83-0.219c-0.491,0.021-1.587-0.066-1.876,0.502c-0.368,0.684,0.596,1.428,1.004,1.83
					c0.291,0.299,0.803,0.549,1.05,0.875c0.554,0.793-0.115,2.342-0.525,3.078c-0.19,0.365-0.975,0.932-1.032,1.305
					c-0.282,1.5,1.646,2.398,2.739,2.641c0.947,0.195,2.726,0.727,3.689,0.439c1.066-0.322,2.083-1.922,2.48-2.957
					c0.612-1.566,0.375-2.354,1.938-3.301c0.556-0.34,1.297-0.357,1.793-0.898c0.48-0.541,0.425-1.504,0.947-1.947
					c0.788-0.654,2.7-0.195,3.691-0.664c1.62-0.75,1.809-1.215,3.503-0.07c1.484,1.004,2.827,2.188,4.21,3.223
					c1.066,0.785,0.703,0.705,1.006,1.922c0.207,0.748,0.718,1.918,1.331,2.363c0.814-0.779,1.456-1.787,1.191-2.912
					c0.558-0.035,1.157-0.01,1.71-0.047c0.757-3.129-7.309-3.014-6.826-6.645c0.99-0.268,1.181,0.332,1.926,0.643
					c0.524,0.234,1.354,0.211,1.85,0.496c0.714,0.402,0.702,0.896,1.299,1.441c0.424,0.396,0.977,0.375,1.475,0.727
					c2.041,1.42,0.155,5.43,4.535,5.139c-1.522,0.818,0.102,2.316,0.438,3.441c0.058-1.125,1.049-1.875,1.019-3.172
					c-0.012-1.438-0.745-1.824,0.893-2.34c1.048-0.338,2.186-0.357,3.208-0.736c1.56-0.572,1.341-0.625,0.92-2.195
					c-0.162-0.592-0.628-0.488-0.353-1.303c0.145-0.402,1.063-0.938,1.342-1.354c0.612-0.932,0.962-2.789,2.45-2.863
					c1.562-0.072,0.961,1.523,1.879,2.207c0.802,0.605,2.48,0.371,2.803-0.598c-2.522-0.744,0.601-1.375,1.342-1.75
					c0.481-0.227,1.165-1.289,1.734-0.771c0.672,0.631-0.613,1.59-0.687,1.947c-0.32,1.561,0.889,1.508,1.913,2.449
					c1.049,0.986,1.515,2.582,2.288,3.773c-1.544,0.092-3.268,0.191-4.65-0.445c-1.78-0.82-2.483-1.514-4.553-0.803
					c-0.642,0.211-1.284,0.545-1.877,0.857c-0.159,0.094-0.308,0.578-0.601,0.713c-0.309,0.154-0.831-0.107-1.171,0.018
					c-1.602,0.598-1.966,1.221-3.77,1.311c0.099,0.725,0.842,0.469,1.107,1.037c0.216,0.432,0,1.326,0,1.801
					c-0.018,1.582,0.144,1.596,1.777,1.67c1.94,0.102,2.476-0.016,4.097,1.137c1.896,1.365,1.88-0.174,3.354-1.152
					c1.735,0.678,0.012,2.326-0.411,3.248c-0.404,0.879-0.068,2.008-0.449,2.77c-0.743,1.545-3.852,0.727-5.279,0.727
					c-0.963,0-2.142,0.178-3.019-0.176c-1.018-0.414-1.75-1.25-2.961-1.578c-1.544-0.406-4.796-1.016-5.558,1.027
					c0.293,0.098,0.526,0.467,0.745,0.574c-0.624,1.016-2.669,0.379-3.485-0.176c-1.21-0.828-1.43-1.172-2.928-1.6
					c-1.462-0.432-2.92-1.098-3.662-2.459c-0.657-1.219-0.248-2.488-1.637-3.094c-0.725-0.33-0.887-0.256-1.605,0.014
					c-0.902,0.346-0.726,0.777-1.893,0.893c-1.3,0.131-2.652-0.074-3.955,0c-1.192,0.064-2.462,0.174-3.467,0.75
					c-0.612,0.355-0.803,0.982-1.796,1.15c-0.613,0.104-1.429,0.055-2.043-0.006c-1.456-0.139-3.878-1.348-5.057,0.338
					c-0.586,0.818-0.118,1.287-0.963,2.023c-0.703,0.615-1.782,0.826-2.278,1.691c-1.063,1.809,0.568,2.947-1.484,4.246
					c-1.913,1.201-2.858,1.656-3.969,3.668c-0.947,1.709-2.652,2.926-3.486,4.688c-0.582,1.207-0.156,2.529-0.145,3.807
					c0,2.785-2.524,4.154-0.698,7.016c0.686,1.082,1.733,1.943,2.347,3.074c0.626,1.184,0.713,2.602,1.226,3.828
					c0.976,2.268,4.9,5.41,7.205,6.367c1.838,0.771,2.786,0.211,4.183-0.535c1.403-0.723,2.754-0.531,4.287-0.457
					c2.409,0.109,3.78-2.764,6.579-1.438c1.342,0.635,1.182,1.615,2.772,1.91c1.443,0.264,2.714-0.039,3.516,1.549
					c1.017,2.01-0.309,4.16-0.369,6.205c-0.043,2.055,1.854,2.063,2.556,3.898c0.524,1.377,0.524,2.902,1.138,4.244
					c1.223,2.699,1.719,4.154,0.469,7.162c-0.937,2.273-1.416,5.025-0.108,7.303c1.503,2.604,1.854,5.121,2.276,8.082
					c0.192,1.363,0.115,2.709,0.644,3.9c0.64,1.436,2.056,2.754,2.436,4.242c0.062,0.256,0.091,0.514,0.108,0.77
					c1.592,1.418,2.887,3.201,3.845,5.176c2.459-0.316,5.271,0.119,7.478-1.227c1.081-0.67,1.721-1.451,2.438-2.525
					c0.948-1.412,1.588-1.873,2.975-2.813c1.354-0.912,2.142-1.984,2.171-3.617c0.044-1.943-0.464-2.48,1.545-3.512
					c1.27-0.654,2.377-1.191,2.261-2.918c-0.086-1.291-1.02-2.523-0.566-3.943c1.092-3.357,6.009-4.26,6.88-7.613
					c0.76-2.879-0.58-6.783-1.015-9.631c-0.925-5.982,4.3-8.547,8.118-12.1c2.029-1.889,3.224-4.98,4.582-7.379
					c0.568-0.977,1.34-2.092,0.857-3.217c-0.391-0.945-1.648-1.727-2.639-1.574c-1.503,0.24-2.408,0.801-4.082,0.729
					c-3.239-0.131-3.603-2.678-5.996-4.383c-2.247-1.605-2.725-4.096-4.393-6.252c-1.135-1.482-0.709-2.184-0.872-3.975
					c-0.131-1.604-1.136-1.846-2.331-2.771c-0.948-0.725-1.198-1.342-1.605-2.35c-0.453-1.115-1.575-2.623-1.765-3.762
					c-0.203-1.248,0.846-1.535,1.749-0.756c0.279,0.225-0.028,0.945,0.63,1.129c0.424,0.111,0.715-0.49,1.105-0.68
					c0.409,1.43,0.613,2.98,1.243,4.334c0.508,1.111,1.386,2.186,1.865,3.402c0.524,1.305,0.802,1.771,1.928,2.734
					c1.136,0.984,2.168,2.229,2.855,3.582c0.902,1.777,1.34,6.639,3.69,7.27c1.105,0.301,2.537-1.045,3.655-1.285
					c1.652-0.35,2.275-0.494,3.488-1.75c1.27-1.291,2.93-1.984,4.567-2.779c0.947-0.457,2.126-0.516,2.843-1.463
					c0.568-0.752,0.448-1.676,0.815-2.496c0.551-1.248,2.932-2.762,1.881-4.41c-0.992-1.545-3.118-0.729-3.689-2.893
					c-1.124-0.227-1.942,0.67-2.845,1.15c-1.251,0.66-2.114,0.766-3.487,0.146c-1.909-0.861-1.54-1.723-2.125-3.371
					c-0.381-1.07-1.55-1.646-1.299-2.9c2.126-0.115,2.596,0.236,3.793,1.91c0.816,1.168,1.426,2.166,2.914,2.311
					c1.3,0.117,2.581-0.715,3.805-0.441c1.255,0.289,2.015,1.557,3.385,1.9c1.371,0.35,2.876,0.043,4.215,0.574
					c0.51,0.205,0.963,0.717,1.485,0.861c0.717,0.189,1.461-0.33,2.015-0.232c1.357,0.219,1.678,1.801,2.495,2.861
					c1.122,1.463,1.809,1.164,3.499,1.34c0.244,0.023,0.449,0.059,0.623,0.105C381.01,186.441,370.504,166.723,355.054,152.201z
					 M342.277,223.049c1.889,0.963,5.307,3.084,3.513,5.744c-1.119,1.66-2.676,2.813-4.268,3.994
					c-4.107,3.041-5.396,4.998-4.612,10.006c0.679,4.342-0.232,6.623-2.961,9.828c-3.896,4.58-0.242,10.836-2.199,16.127
					c-0.832,2.248-4.188,4.404-6.623,3.629c-2.733-0.869-3.245-3.647-3.076-6.248c0.273-4.244,0.593-7.846,0.1-12.129
					c-0.504-4.377-0.919-9.088-2.642-13.205c-1.511-3.613-3.827-5.918-6.16-8.938c-1.236-1.602-2.805-3.664-2.643-5.85
					c0.581-7.861-5.603-7.6-10.833-5.219c-3.726,1.697-7.538,3.24-11.662,2.061c-2.686-0.768-4.28-4.16-3.342-6.73
					c1.086-2.969,3.21-5.67,4.045-8.693c0.554-2.008,0.399-4.361,1.218-6.293c1.946-4.592,8.185-6.428,12.658-7.186
					c0.367-0.063,0.678,0.031,0.93,0.195c3.419-0.381,7.484,1.119,10.127,2.691c2.149,1.279,3.414,3.619,5.082,5.389
					c2.801,2.971,5.015,1.559,8.301,0.912c2.818-0.555,6.642,1.459,7.472,4.371c0.694,2.439,0.358,4.135-0.665,6.426
					C330.875,221.002,339.008,221.385,342.277,223.049z"/>
			</g>
		</g>
		<path style="opacity:0.8;fill:#FFFFFF;" d="M360.238,203.488c-7.737,23.479-35.708,35.359-62.473,26.539
			c-26.766-8.822-42.189-35.006-34.45-58.484c7.738-23.479,35.709-35.359,62.472-26.537
			C352.552,153.828,367.976,180.012,360.238,203.488z"/>
	</g>
</g>
</svg>
