<svg width="22" height="16" viewBox="0 0 22 16" fill="none" xmlns="http://www.w3.org/2000/svg">
<path d="M10.7621 14.03L11.9461 8.23C11.9738 8.09448 12.0474 7.97267 12.1546 7.8852C12.2617 7.79773 12.3958 7.74997 12.5341 7.75H18.6961C18.8344 7.74997 18.9685 7.79773 19.0757 7.8852C19.1828 7.97267 19.2565 8.09448 19.2841 8.23L20.4681 14.03C20.4859 14.1172 20.4841 14.2072 20.4628 14.2936C20.4415 14.38 20.4012 14.4606 20.345 14.5295C20.2887 14.5984 20.2178 14.654 20.1374 14.6921C20.057 14.7302 19.9691 14.75 19.8801 14.75H11.3501C11.2611 14.75 11.1733 14.7302 11.0929 14.6921C11.0125 14.654 10.9416 14.5984 10.8853 14.5295C10.829 14.4606 10.7887 14.38 10.7674 14.2936C10.7461 14.2072 10.7443 14.1172 10.7621 14.03Z" stroke="black" stroke-width="1.5" stroke-linecap="round"/>
<path d="M5.76212 7.03L6.94612 1.23C6.97375 1.09464 7.04724 0.972969 7.15419 0.885519C7.26113 0.798069 7.39498 0.750202 7.53312 0.75H13.6971C13.8353 0.750202 13.9691 0.798069 14.0761 0.885519C14.183 0.972969 14.2565 1.09464 14.2841 1.23L15.4681 7.03C15.4859 7.11718 15.4841 7.20724 15.4628 7.29363C15.4415 7.38003 15.4012 7.4606 15.345 7.52952C15.2887 7.59844 15.2178 7.65398 15.1374 7.69211C15.057 7.73024 14.9691 7.75002 14.8801 7.75H6.35012C6.26114 7.75002 6.17327 7.73024 6.09287 7.69211C6.01247 7.65398 5.94157 7.59844 5.88528 7.52952C5.829 7.4606 5.78875 7.38003 5.76745 7.29363C5.74614 7.20724 5.74433 7.11718 5.76212 7.03Z" stroke="black" stroke-width="1.5" stroke-linecap="round"/>
<path d="M0.762123 14.03L1.94612 8.23C1.97375 8.09464 2.04724 7.97297 2.15419 7.88552C2.26113 7.79807 2.39498 7.7502 2.53312 7.75H8.69612C8.83444 7.74997 8.96852 7.79773 9.07567 7.8852C9.18282 7.97267 9.25646 8.09448 9.28412 8.23L10.4681 14.03C10.4859 14.1172 10.4841 14.2072 10.4628 14.2936C10.4415 14.38 10.4012 14.4606 10.345 14.5295C10.2887 14.5984 10.2178 14.654 10.1374 14.6921C10.057 14.7302 9.96911 14.75 9.88012 14.75H1.35012C1.26114 14.75 1.17327 14.7302 1.09287 14.6921C1.01247 14.654 0.941565 14.5984 0.885281 14.5295C0.828996 14.4606 0.788746 14.38 0.767445 14.2936C0.746144 14.2072 0.744326 14.1172 0.762123 14.03Z" stroke="black" stroke-width="1.5" stroke-linecap="round"/>
</svg>
