<?xml version="1.0" encoding="utf-8"?>
<!-- Generator: Adobe Illustrator 27.5.0, SVG Export Plug-In . SVG Version: 6.00 Build 0)  -->
<svg version="1.1" xmlns="http://www.w3.org/2000/svg" xmlns:xlink="http://www.w3.org/1999/xlink" x="0px" y="0px"
	 viewBox="0 0 600 500" style="enable-background:new 0 0 600 500;" xml:space="preserve">
<g id="BACKGROUND">
	<rect style="fill:#FFFFFF;" width="600" height="500"/>
</g>
<g id="OBJECTS">
	<path style="fill:#B3D9D5;" d="M300,472.272c140.733,0,254.991-99.598,254.991-222.272c0-122.676-114.258-222.272-254.991-222.272
		C159.266,27.728,45.009,127.324,45.009,250C45.009,372.674,159.266,472.272,300,472.272"/>
	<g>
		<g>
			<path style="fill:#81C436;" d="M184.623,302.215c-17.988-2.565-35.977-5.13-53.965-7.695
				c5.384-37.762,10.769-75.523,16.153-113.285c17.989,2.565,35.977,5.13,53.965,7.695
				C195.392,226.692,190.008,264.453,184.623,302.215"/>
			<path style="fill:#36802B;" d="M178.718,206.436c0.489-3.411-2.061-6.609-5.685-7.129c-3.626-0.52-6.974,1.831-7.463,5.242
				c-0.49,3.412,2.062,6.612,5.687,7.132C174.882,212.201,178.229,209.849,178.718,206.436"/>
			<path style="fill:#36802B;" d="M168.816,279.207c0.489-3.411-2.061-6.609-5.685-7.129c-3.625-0.52-6.971,1.831-7.461,5.242
				c-0.489,3.411,2.061,6.61,5.685,7.129C164.98,284.97,168.326,282.618,168.816,279.207"/>
			<path style="fill:#36802B;" d="M193.846,311.992l0.001-0.005l5.035-35.328l5.032-35.299l0.414-2.904l0.412-2.889l1.783-12.526
				l0.215-1.516l2.849-19.971l2.846-19.971c0.23-1.621-1.026-3.199-2.744-3.445l-32.547-4.641l-32.573-4.648
				c-1.722-0.244-3.373,0.914-3.605,2.529l-7.835,54.98l-7.835,54.975l-1.457,10.221l-1.459,10.234
				c-0.23,1.621,1.026,3.198,2.744,3.444l32.424,4.624l32.696,4.665C191.964,314.766,193.615,313.608,193.846,311.992
				 M190.838,220.59l-4.324,30.339l-5.364,37.635c-3.913,0.76-6.908,3.808-7.449,7.58c-0.083,0.576-0.106,1.195-0.069,1.837
				c-5.918-0.896-11.962-1.762-17.807-2.598l-2.587-0.371l-4.069-0.582l-2.592-0.369c0.083-0.186,0.146-0.445,0.192-0.763
				c0.591-4.119-1.843-8.154-5.918-9.812c0.17-1.179,0.339-2.359,0.508-3.538c4.036-28.122,8.05-56.276,12.065-84.437l0.021-0.146
				l0.025-0.174c5.125,0.497,9.688-2.904,10.381-7.737c0.078-0.545,0.104-1.102,0.077-1.653l22.516,3.256
				c-0.64,0.941-1.05,2.036-1.224,3.245c-0.709,4.938,2.972,9.63,8.205,10.46L190.838,220.59z"/>
			<path style="fill:#36802B;" d="M184.305,244.209c1.344-9.366-5.183-18.08-14.548-19.424c-9.368-1.344-18.082,5.182-19.427,14.549
				c-1.344,9.365,5.183,18.079,14.551,19.423C174.247,260.101,182.961,253.575,184.305,244.209"/>
			<path style="fill:#327527;" d="M193.876,311.997v-0.005l0.354-2.481c-0.632-0.351-1.235-0.689-1.804-1.022
				c-0.958-0.568-1.984-1.209-3.136-1.961c-0.99-0.653-1.885-1.262-2.736-1.86c-1.888-1.341-3.685-2.709-5.34-4.066
				c-2.452-2.012-4.794-4.139-6.962-6.321c-0.282,0.507-0.473,1.132-0.578,1.86c-0.081,0.566-0.104,1.187-0.069,1.844
				c-5.919-0.933-11.948-1.797-17.777-2.631l-2.588-0.371l-4.069-0.581l-2.592-0.37c0.096-0.136,0.168-0.385,0.217-0.729
				c0.593-4.131-1.847-8.177-5.934-9.837l0.524-3.515c1.848-12.879,3.692-25.762,5.534-38.651c-0.198-0.981-0.395-2.033-0.602-3.218
				c-1.038-6.074-1.641-12.28-1.792-18.444c-0.158-6.16,0.103-12.385,0.776-18.503c0.171-1.567,0.373-3.171,0.602-4.767
				c0.663-4.616,1.553-9.2,2.647-13.625c0.747-3.038,1.581-6.007,2.477-8.824c0.419-1.324,0.863-2.655,1.321-3.958l-7.778-1.141
				c-1.737-0.246-3.401,0.924-3.635,2.554l-7.836,54.98l-7.835,54.975l-1.457,10.222l-1.459,10.233
				c-0.232,1.635,1.035,3.227,2.767,3.476l32.424,4.623l32.699,4.666C191.977,314.795,193.642,313.627,193.876,311.997"/>
		</g>
		<g>
			<g>
				<path style="fill:#FFFFFF;" d="M154.78,237.718l2.757,0.557c0.362-1.175,0.893-2.181,1.595-3.019
					c0.702-0.839,1.576-1.431,2.622-1.777c1.044-0.346,2.26-0.369,3.648-0.07l0.062,0.041l-0.95,4.706
					c-0.741-0.15-1.364-0.162-1.87-0.035c-0.506,0.126-0.905,0.359-1.199,0.701c-0.291,0.34-0.488,0.762-0.59,1.266
					c-0.083,0.412-0.068,0.771,0.046,1.08c0.113,0.309,0.306,0.562,0.582,0.76c0.274,0.198,0.608,0.336,1.001,0.416
					c0.466,0.094,0.874,0.103,1.221,0.026c0.35-0.078,0.683-0.253,1-0.527c0.316-0.274,0.655-0.669,1.017-1.187
					c0.854-1.313,1.659-2.372,2.412-3.176c0.752-0.804,1.553-1.35,2.4-1.635c0.847-0.286,1.843-0.314,2.986-0.083
					c1.555,0.314,2.726,1.098,3.516,2.352c0.789,1.253,1.088,2.775,0.899,4.564l2.895,0.584l-0.443,2.195l-2.964-0.598
					c-0.579,1.596-1.52,2.765-2.82,3.506c-1.302,0.741-2.81,0.925-4.523,0.55l-0.118,0.019l0.961-4.76
					c0.979,0.198,1.74,0.159,2.286-0.117c0.545-0.275,0.878-0.71,0.998-1.305c0.124-0.613,0.023-1.104-0.302-1.475
					c-0.325-0.37-0.794-0.617-1.407-0.74c-0.402-0.082-0.765-0.086-1.089-0.013c-0.324,0.072-0.643,0.249-0.956,0.528
					c-0.313,0.28-0.657,0.681-1.029,1.206c-0.896,1.285-1.731,2.33-2.503,3.136c-0.772,0.804-1.58,1.358-2.426,1.658
					c-0.846,0.301-1.831,0.337-2.956,0.11c-1.582-0.319-2.757-1.08-3.523-2.281c-0.766-1.202-1.064-2.666-0.897-4.393l-2.785-0.562
					L154.78,237.718z"/>
			</g>
		</g>
	</g>
	<g>
		<g>
			<path style="fill:#81C436;" d="M169.888,295.217c-20.639,9.882-41.277,19.763-61.916,29.645
				c-20.743-43.325-41.486-86.649-62.229-129.974c20.639-9.881,41.277-19.763,61.916-29.644
				C128.402,208.57,149.145,251.893,169.888,295.217"/>
			<path style="fill:#36802B;" d="M96.781,198.998c-1.87-3.916-6.777-5.484-10.937-3.497c-4.162,1.988-6.026,6.791-4.156,10.707
				c1.871,3.917,6.779,5.486,10.941,3.498C96.789,207.719,98.651,202.915,96.781,198.998"/>
			<path style="fill:#36802B;" d="M137.251,282.158c-1.871-3.916-6.777-5.484-10.938-3.497c-4.16,1.987-6.023,6.79-4.153,10.705
				c1.871,3.916,6.778,5.484,10.938,3.497C137.258,290.876,139.121,286.073,137.251,282.158"/>
			<path style="fill:#4A9A36;" d="M186.366,299.025l-0.003-0.006l-19.408-40.53l-19.392-40.498l-1.596-3.331l-1.586-3.316
				l-6.885-14.369l-0.834-1.739l-10.969-22.913l-10.972-22.912c-0.887-1.85-3.295-2.621-5.257-1.683l-37.342,17.878l-37.374,17.891
				c-1.966,0.942-2.882,3.297-2,5.143l30.205,63.076l30.203,63.071l5.615,11.727l5.622,11.74c0.887,1.85,3.295,2.621,5.258,1.683
				l37.2-17.81l37.515-17.958C186.332,303.226,187.248,300.871,186.366,299.025 M119.384,205.351l16.668,34.808l20.676,43.177
				c-3.563,3.54-4.572,8.827-2.508,13.145c0.322,0.675,0.729,1.337,1.209,1.968c-6.824,3.222-13.655,6.488-20.49,9.757l-2.957,1.412
				l-4.669,2.233l-2.974,1.425c-0.068-0.277-0.191-0.596-0.357-0.942c-2.255-4.722-7.617-7.246-13.039-6.141
				c-16.084-33.649-32.205-67.318-48.326-100.989l-0.066-0.139l-0.096-0.199c5.711-3.071,8.115-9.822,5.47-15.359
				c-0.299-0.626-0.661-1.227-1.075-1.785l25.874-12.346c0.011,1.455,0.354,2.892,1.01,4.264c2.703,5.659,9.826,7.999,15.879,5.216
				L119.384,205.351z"/>
			<path style="fill:#4A9A36;" d="M90.041,253.292c5.137,10.754,18.038,15.313,28.792,10.177
				c10.754-5.137,15.314-18.038,10.177-28.792c-5.136-10.754-18.038-15.315-28.792-10.177
				C89.464,229.636,84.904,242.538,90.041,253.292"/>
			<path style="fill:#438D31;" d="M186.401,299.009l-0.003-0.006l-1.363-2.847c-0.891,0.081-1.759,0.148-2.588,0.196
				c-1.378,0.076-2.9,0.121-4.655,0.137c-1.572,0.009-2.934-0.003-4.166-0.038c-2.921-0.082-5.76-0.259-8.436-0.527
				c-3.976-0.394-7.917-0.985-11.715-1.756c0.081,0.73,0.325,1.51,0.716,2.327c0.316,0.664,0.725,1.328,1.212,1.976
				c-6.842,3.18-13.769,6.492-20.468,9.695l-2.97,1.419l-4.67,2.235l-2.974,1.423c-0.018-0.231-0.126-0.545-0.307-0.925
				c-2.262-4.736-7.638-7.266-13.074-6.154l-1.922-4.053c-7.063-14.786-14.132-29.571-21.208-44.363
				c-0.982-0.982-1.946-1.973-2.871-2.946c-5.324-5.629-10.294-11.71-14.773-18.075c-4.475-6.354-8.552-13.058-12.116-19.927
				c-0.923-1.778-1.832-3.6-2.699-5.416c-2.526-5.288-4.796-10.712-6.748-16.124c-1.332-3.691-2.534-7.384-3.569-10.975
				c-0.485-1.685-0.949-3.39-1.382-5.069l-8.921,4.248c-1.983,0.95-2.906,3.327-2.015,5.191l30.205,63.077l30.203,63.07
				l5.615,11.727l5.622,11.74c0.895,1.867,3.323,2.644,5.303,1.699l37.2-17.811l37.518-17.959
				C186.366,303.247,187.29,300.871,186.401,299.009"/>
		</g>
		<g>
			<g>
				<path style="fill:#FFFFFF;" d="M93.622,250.313l3.174-1.599c-0.559-1.449-0.815-2.863-0.771-4.245
					c0.043-1.382,0.449-2.651,1.218-3.812c0.77-1.159,1.959-2.131,3.57-2.917l0.096-0.008l2.728,5.417
					c-0.853,0.43-1.482,0.904-1.886,1.426c-0.404,0.521-0.619,1.063-0.644,1.63c-0.025,0.567,0.108,1.14,0.4,1.719
					c0.239,0.475,0.534,0.819,0.889,1.038c0.354,0.218,0.744,0.317,1.171,0.301c0.427-0.018,0.867-0.14,1.32-0.367
					c0.537-0.271,0.948-0.581,1.235-0.93c0.286-0.349,0.48-0.783,0.582-1.302c0.101-0.521,0.13-1.178,0.085-1.975
					c-0.175-1.97-0.202-3.649-0.082-5.036c0.12-1.387,0.489-2.554,1.109-3.498c0.619-0.946,1.587-1.75,2.903-2.413
					c1.79-0.901,3.565-1.037,5.329-0.407c1.763,0.63,3.248,1.908,4.456,3.834l3.332-1.679l1.272,2.527l-3.411,1.718
					c0.67,2.039,0.648,3.934-0.066,5.688c-0.714,1.752-2.07,3.11-4.064,4.076l-0.103,0.11l-2.76-5.479
					c1.126-0.567,1.854-1.201,2.181-1.9c0.328-0.699,0.319-1.392-0.026-2.076c-0.355-0.705-0.839-1.115-1.451-1.229
					c-0.612-0.115-1.271,0.006-1.976,0.36c-0.463,0.233-0.828,0.513-1.092,0.838c-0.266,0.325-0.444,0.749-0.538,1.271
					c-0.094,0.522-0.121,1.189-0.081,2.002c0.11,1.977,0.097,3.666-0.041,5.068c-0.138,1.402-0.51,2.584-1.117,3.542
					c-0.605,0.959-1.557,1.765-2.852,2.417c-1.821,0.918-3.582,1.078-5.281,0.481c-1.699-0.596-3.14-1.817-4.32-3.665l-3.206,1.615
					L93.622,250.313z"/>
			</g>
		</g>
	</g>
	<g>
		<path style="fill:#2FC3B0;" d="M566.593,373.738l-7.263-4.863c0.025-0.291,0.06-0.582,0.08-0.873
			c0.06-0.905,0.095-1.803,0.106-2.699l0.002-0.144l0.001-0.161c0.004-0.693-0.027-1.383-0.054-2.074l2.135-1.477l5.838-4.038
			c0.137-0.093,0.219-0.333,0.174-0.501l-1.547-5.663l-1.546-5.663c-0.012-0.044-0.029-0.085-0.048-0.126
			c-0.091-0.188-0.246-0.299-0.437-0.313l-9.174-0.661c-0.108-0.223-0.207-0.456-0.318-0.675c-0.097-0.193-0.198-0.385-0.297-0.576
			c-0.582-1.118-1.219-2.203-1.886-3.266l1.132-2.268l3.169-6.351c0.076-0.147,0.032-0.397-0.089-0.523l-4.084-4.218l-4.083-4.217
			c-0.032-0.033-0.067-0.061-0.103-0.087c-0.171-0.121-0.361-0.144-0.534-0.064l-8.609,3.957l-0.037-0.029
			c-1.012-0.691-2.066-1.352-3.132-1.961l-0.155-0.087l-0.11-0.061c-0.282-0.16-0.568-0.308-0.852-0.461l-0.195-3.522l-0.392-7.086
			c-0.009-0.167-0.169-0.362-0.337-0.411l-5.635-1.641l-5.638-1.641c-0.043-0.013-0.087-0.02-0.131-0.024
			c-0.207-0.021-0.384,0.053-0.496,0.209l-5.914,8.252l-0.287,0.402c-1.589-0.108-3.171-0.131-4.743-0.079l-1.839-2.87l-3.829-5.975
			c-0.088-0.141-0.325-0.232-0.495-0.193l-5.714,1.345l-5.713,1.345c-0.045,0.011-0.086,0.026-0.127,0.044
			c-0.191,0.084-0.308,0.235-0.329,0.426l-1.085,10.095l-0.07,0.661c-1.142,0.57-2.262,1.187-3.357,1.852l-2.857-1.464l-6.316-3.237
			c-0.147-0.077-0.397-0.038-0.525,0.083l-4.26,4.038l-4.261,4.038c-0.033,0.032-0.061,0.067-0.087,0.103
			c-0.123,0.168-0.147,0.358-0.07,0.533l4.141,9.266c-0.845,1.219-1.631,2.478-2.357,3.771l-3.199,0.216l-7.081,0.478
			c-0.166,0.011-0.361,0.173-0.407,0.342l-1.572,5.656l-1.573,5.655c-0.013,0.044-0.018,0.088-0.023,0.132
			c-0.019,0.208,0.058,0.383,0.216,0.493l7.859,5.489c-0.051,0.537-0.103,1.074-0.134,1.606c-0.074,1.256-0.088,2.502-0.066,3.738
			l-2.427,1.536l-5.995,3.797c-0.142,0.089-0.234,0.324-0.196,0.493l1.315,5.722l1.314,5.721c0.009,0.044,0.024,0.086,0.043,0.127
			c0.083,0.191,0.234,0.309,0.424,0.331l9.888,1.118c0.384,0.818,0.783,1.629,1.216,2.424c0.459,0.844,0.949,1.665,1.453,2.474
			l-1.108,2.087l-3.326,6.269c-0.079,0.146-0.043,0.397,0.074,0.526l3.978,4.318l3.976,4.317c0.032,0.034,0.065,0.063,0.101,0.089
			c0.167,0.126,0.356,0.152,0.532,0.077l8.941-3.842c1.391,0.965,2.823,1.856,4.301,2.658l0.085,2.135l0.281,7.091
			c0.005,0.167,0.162,0.366,0.329,0.417l5.609,1.73l5.611,1.728c0.043,0.014,0.087,0.022,0.131,0.027
			c0.207,0.024,0.384-0.048,0.499-0.201l5.554-7.5c1.755,0.157,3.521,0.227,5.261,0.182c0.027-0.001,0.054-0.003,0.081-0.004
			l1.345,2.05l3.892,5.935c0.091,0.139,0.328,0.229,0.498,0.187l5.699-1.406l5.699-1.406c0.044-0.011,0.086-0.027,0.126-0.045
			c0.19-0.087,0.305-0.239,0.324-0.43l0.89-9.203c1.721-0.8,3.378-1.699,4.973-2.687l2.344,1.26l6.252,3.361
			c0.146,0.08,0.396,0.045,0.526-0.073l4.338-3.953l4.34-3.954c0.033-0.031,0.063-0.064,0.089-0.1
			c0.127-0.166,0.154-0.355,0.08-0.532l-3.959-9.349l-0.017-0.039c0.946-1.383,1.823-2.808,2.609-4.27l2.436-0.212l7.07-0.617
			c0.167-0.013,0.358-0.179,0.401-0.349l1.462-5.685l1.461-5.685c0.012-0.044,0.017-0.088,0.021-0.133
			C566.832,374.019,566.753,373.846,566.593,373.738z M511.57,341.714c1.009-0.027,2.029,0.011,3.031,0.111
			c1.024,0.103,2.054,0.273,3.06,0.508c1.652,0.408,3.257,0.991,4.782,1.741l0.127,0.063l0.139,0.072
			c0.151,0.077,0.304,0.155,0.453,0.238c0.496,0.274,0.945,0.542,1.379,0.82l0.068,0.044l0.067,0.044l0.091,0.057l0.004-0.006
			l0.104,0.077l0.086,0.059c0.026,0.019,0.052,0.035,0.078,0.052c0.021,0.016,0.041,0.029,0.113,0.078
			c0,0.001,0.079,0.055,0.079,0.055c0.044,0.03,0.085,0.059,0.135,0.095c0.624,0.439,1.235,0.915,1.818,1.416l0.074,0.063
			c0.217,0.188,0.43,0.381,0.643,0.577c0.532,0.508,1.039,1.039,1.521,1.591l0.055,0.063l0.078,0.091l0.121,0.142l0.048,0.058
			l0.049,0.056l0.005-0.004l0.055,0.075l0.096,0.118l0.119,0.148l0.076,0.096l0.049,0.06l0.006-0.005l0.061,0.088l0.082,0.107
			l0.063,0.081l0.006-0.004l0.049,0.076l0.006-0.005l0.055,0.084l0.054,0.074l0.006-0.004l0.042,0.068l0.081,0.11l0.109,0.147
			c0.27,0.379,0.534,0.765,0.783,1.16l0-0.001l0.042,0.068c1.003,1.626,1.808,3.378,2.411,5.261c0.007,0.02,0.013,0.041,0.02,0.061
			c0.092,0.304,0.179,0.611,0.257,0.919c0.314,1.223,0.53,2.473,0.65,3.754l0.011,0.134c0.005,0.036,0.007,0.072,0.014,0.172
			c0.022,0.268,0.037,0.539,0.053,0.86l0.006,0l-0.005,0.089c0.004,0.112,0.005,0.228,0.006,0.375
			c0.017,1.919-0.194,3.828-0.626,5.673c-0.471,1.921-1.187,3.785-2.117,5.547l0.055-0.128c-0.957,1.757-2.139,3.39-3.514,4.855
			c-1.35,1.414-2.875,2.659-4.533,3.702c-1.64,1.004-3.386,1.805-5.17,2.374c-1.941,0.596-3.947,0.942-5.976,1.024l-0.074,0.002
			c-0.997,0.026-2.005-0.011-2.996-0.11c-1.035-0.104-2.073-0.277-3.086-0.516c-1.953-0.481-3.837-1.213-5.599-2.172l-0.001,0.001
			c-1.672-0.934-3.236-2.076-4.647-3.398c-1.397-1.334-2.631-2.844-3.67-4.488c-1.051-1.699-1.884-3.531-2.491-5.439l0.056,0.127
			c-0.576-1.9-0.91-3.869-0.993-5.853c-0.064-2.054,0.139-4.112,0.604-6.113c0.475-1.952,1.203-3.843,2.145-5.591
			c0.943-1.702,2.088-3.278,3.4-4.683c1.356-1.425,2.884-2.677,4.541-3.723c1.7-1.046,3.52-1.873,5.411-2.458
			c1.664-0.495,3.375-0.805,5.156-0.927C511.118,341.736,511.322,341.723,511.57,341.714z"/>
		<path style="fill:#FFFFFF;" d="M517.574,331.9c3.308,0.526,6.516,1.566,9.501,3.058c0.025,0.01,0.05,0.02,0.074,0.032
			c0.352,0.18,0.701,0.365,1.046,0.556c2.017,1.106,3.92,2.423,5.667,3.928c0.011,0.009,0.021,0.017,0.032,0.027
			c0.059,0.051,0.118,0.102,0.177,0.153c0.021,0.018,0.042,0.037,0.063,0.056c0.048,0.042,0.096,0.084,0.143,0.127
			c0.032,0.029,0.066,0.058,0.098,0.088c0.022,0.019,0.043,0.039,0.066,0.059c0.056,0.051,0.112,0.101,0.168,0.153
			c0.012,0.011,0.024,0.021,0.035,0.032c0.033,0.031,0.068,0.061,0.101,0.092c1.213,1.123,2.343,2.332,3.382,3.621
			c0.375,0.467,0.737,0.946,1.083,1.434l0.008,0.013c0.047,0.067,0.095,0.133,0.141,0.2c0.02,0.029,0.04,0.057,0.06,0.086
			c0.034,0.048,0.066,0.095,0.099,0.143c0.031,0.045,0.062,0.09,0.092,0.134c0.024,0.037,0.048,0.072,0.073,0.108l0.114,0.172
			c0.018,0.026,0.035,0.053,0.053,0.079c0.043,0.064,0.084,0.128,0.126,0.191c0.015,0.024,0.03,0.047,0.045,0.071
			c0.043,0.066,0.085,0.132,0.127,0.197c0.016,0.024,0.031,0.048,0.045,0.072c0.04,0.062,0.078,0.124,0.118,0.186
			c0.018,0.03,0.037,0.059,0.055,0.089c0.034,0.055,0.068,0.109,0.101,0.164c0.025,0.039,0.048,0.076,0.072,0.115
			c0.026,0.041,0.05,0.083,0.075,0.124c0.032,0.052,0.063,0.105,0.095,0.157l0.043,0.072c0.086,0.144,0.171,0.289,0.256,0.434
			c1.63,2.801,2.797,5.861,3.537,9.01c0.742,3.151,0.968,6.427,0.762,9.654c-0.425,6.523-2.865,12.851-6.859,18.014
			c-3.983,5.145-9.52,9.055-15.691,11.113c-1.61,0.536-3.257,0.95-4.931,1.238c-1.631,0.28-3.277,0.406-4.932,0.445
			c-3.425,0.081-6.849-0.431-10.133-1.4c-6.316-1.862-11.974-5.746-16.125-10.838c-4.167-5.113-6.723-11.493-7.268-18.063
			c-0.278-3.339-0.04-6.714,0.692-9.981c0.363-1.628,0.845-3.221,1.444-4.777c0.611-1.588,1.371-3.113,2.215-4.587
			c3.278-5.723,8.372-10.339,14.288-13.214c5.452-2.652,11.627-3.686,17.648-3.083C516.297,331.716,516.936,331.799,517.574,331.9
			 M511.193,333.607c-2.67,0.115-5.306,0.554-7.867,1.312c-2.568,0.802-5.017,1.915-7.312,3.318
			c-2.241,1.414-4.297,3.088-6.137,4.995c-1.872,1.996-3.485,4.214-4.805,6.614c0.031-0.058,0.062-0.117,0.092-0.176
			c-0.038,0.071-0.076,0.142-0.115,0.214c-0.004,0.009-0.01,0.019-0.016,0.028c0.005-0.009,0.01-0.018,0.016-0.027
			c-1.24,2.344-2.184,4.819-2.823,7.391c-0.643,2.755-0.924,5.58-0.844,8.408c0.118,2.724,0.577,5.413,1.366,8.022
			c0.803,2.514,1.904,4.915,3.281,7.168c1.429,2.26,3.124,4.333,5.054,6.182c1.946,1.814,4.1,3.38,6.426,4.671
			c2.396,1.285,4.935,2.26,7.573,2.915c2.74,0.632,5.545,0.913,8.354,0.836c2.74-0.118,5.446-0.577,8.07-1.373
			c-0.06,0.018-0.12,0.036-0.182,0.055c2.577-0.806,5.036-1.927,7.337-3.337c2.217-1.404,4.253-3.063,6.074-4.947
			c1.844-1.96,3.434-4.132,4.742-6.482c1.324-2.459,2.322-5.073,2.978-7.79c0.602-2.675,0.869-5.404,0.798-8.144
			c-0.112-2.69-0.553-5.346-1.32-7.924c-0.823-2.63-1.973-5.137-3.428-7.479c-0.499-0.779-1.03-1.536-1.591-2.27l-0.001,0
			c-0.039-0.051-0.077-0.102-0.117-0.153l-0.047-0.06l-0.046-0.058c-0.711-0.908-1.469-1.778-2.273-2.609
			c-0.009-0.008-0.017-0.018-0.026-0.027c-0.04-0.041-0.079-0.082-0.119-0.122c-0.025-0.026-0.051-0.053-0.078-0.079
			c-0.024-0.025-0.049-0.05-0.075-0.076c-0.043-0.042-0.086-0.085-0.128-0.127c-0.007-0.007-0.013-0.014-0.02-0.021
			c-0.153-0.151-0.307-0.301-0.463-0.449c-0.016-0.014-0.031-0.03-0.047-0.044c-0.027-0.026-0.056-0.052-0.084-0.078
			c-0.032-0.029-0.065-0.059-0.097-0.089c-0.037-0.034-0.073-0.066-0.111-0.1c-0.023-0.022-0.048-0.043-0.073-0.066
			c-0.043-0.039-0.085-0.076-0.127-0.114c-0.02-0.017-0.039-0.035-0.06-0.053c-0.05-0.044-0.101-0.088-0.151-0.133
			c-0.012-0.01-0.023-0.021-0.034-0.03l-0.17-0.147c-0.007-0.006-0.014-0.012-0.021-0.019c-0.061-0.052-0.123-0.104-0.184-0.156
			l-0.009-0.007c-1.611-1.361-3.35-2.563-5.197-3.592c-2.399-1.292-4.947-2.273-7.592-2.927
			C516.822,333.81,514.01,333.527,511.193,333.607 M489.846,343.264c-0.037,0.038-0.073,0.076-0.11,0.114
			C489.773,343.341,489.809,343.302,489.846,343.264 M543.256,363.46c0.003,0.083,0.007,0.165,0.009,0.248
			C543.263,363.624,543.259,363.543,543.256,363.46 M542.424,371.752c-0.007,0.029-0.014,0.059-0.021,0.09
			C542.41,371.812,542.417,371.782,542.424,371.752 M505.003,394.622c0.027,0.006,0.053,0.012,0.08,0.019
			C505.057,394.634,505.03,394.628,505.003,394.622 M505.085,394.641c0.065,0.016,0.129,0.032,0.193,0.048
			C505.215,394.672,505.15,394.656,505.085,394.641 M485.05,349.885l0-0.001c0.008-0.013,0.014-0.025,0.022-0.038
			C485.065,349.858,485.057,349.872,485.05,349.885"/>
	</g>
	<g>
		<path style="fill:#2FC3B0;" d="M297.727,197.683l-5.381-3.603c0.019-0.216,0.045-0.431,0.059-0.647c0.044-0.67,0.07-1.336,0.078-2
			l0.001-0.107l0.001-0.119c0.003-0.513-0.02-1.025-0.04-1.536l1.581-1.094l4.325-2.992c0.101-0.069,0.163-0.247,0.129-0.371
			l-1.146-4.196l-1.145-4.196c-0.009-0.033-0.021-0.063-0.036-0.093c-0.068-0.139-0.182-0.222-0.323-0.232l-6.797-0.49
			c-0.08-0.165-0.154-0.337-0.236-0.5c-0.072-0.143-0.146-0.286-0.22-0.427c-0.431-0.828-0.903-1.632-1.397-2.42l0.839-1.68
			l2.348-4.706c0.056-0.109,0.024-0.295-0.066-0.387l-3.026-3.125l-3.025-3.124c-0.024-0.025-0.049-0.045-0.076-0.065
			c-0.126-0.089-0.267-0.107-0.396-0.048l-6.378,2.932l-0.027-0.022c-0.75-0.512-1.531-1.002-2.32-1.453l-0.115-0.064l-0.082-0.045
			c-0.209-0.118-0.421-0.228-0.631-0.342l-0.145-2.61l-0.29-5.25c-0.007-0.124-0.125-0.268-0.25-0.305l-4.175-1.216l-4.177-1.216
			c-0.031-0.01-0.064-0.014-0.097-0.018c-0.154-0.015-0.284,0.04-0.367,0.155l-4.382,6.114l-0.213,0.298
			c-1.177-0.08-2.349-0.097-3.514-0.059l-1.362-2.126l-2.836-4.427c-0.066-0.105-0.241-0.172-0.367-0.143l-4.234,0.997l-4.233,0.996
			c-0.033,0.008-0.064,0.019-0.094,0.033c-0.142,0.063-0.228,0.174-0.244,0.315l-0.804,7.479l-0.052,0.49
			c-0.846,0.422-1.675,0.88-2.487,1.372l-2.117-1.085l-4.679-2.398c-0.109-0.057-0.294-0.028-0.389,0.062l-3.156,2.992l-3.157,2.992
			c-0.025,0.024-0.045,0.049-0.065,0.076c-0.091,0.125-0.109,0.265-0.052,0.395l3.068,6.865c-0.626,0.903-1.208,1.836-1.746,2.794
			l-2.37,0.16l-5.246,0.354c-0.123,0.008-0.267,0.128-0.302,0.253l-1.164,4.191l-1.165,4.19c-0.01,0.032-0.014,0.065-0.017,0.098
			c-0.014,0.154,0.043,0.284,0.16,0.365l5.823,4.067c-0.038,0.398-0.077,0.796-0.1,1.19c-0.055,0.931-0.065,1.854-0.049,2.769
			l-1.798,1.138l-4.442,2.813c-0.105,0.065-0.174,0.24-0.145,0.366l0.975,4.239l0.974,4.239c0.007,0.032,0.018,0.064,0.032,0.094
			c0.062,0.142,0.174,0.229,0.314,0.245l7.326,0.828c0.284,0.606,0.58,1.206,0.901,1.796c0.34,0.626,0.703,1.234,1.076,1.833
			l-0.82,1.546l-2.464,4.645c-0.058,0.108-0.032,0.294,0.055,0.39l2.947,3.199l2.946,3.199c0.024,0.025,0.048,0.047,0.075,0.066
			c0.124,0.093,0.264,0.113,0.394,0.057l6.624-2.847c1.031,0.715,2.091,1.375,3.186,1.969l0.063,1.582l0.208,5.254
			c0.003,0.124,0.12,0.271,0.244,0.309l4.156,1.282l4.157,1.281c0.032,0.01,0.064,0.016,0.097,0.02
			c0.153,0.018,0.285-0.036,0.37-0.149l4.115-5.557c1.3,0.116,2.609,0.168,3.898,0.135c0.02-0.001,0.04-0.002,0.06-0.003
			l0.996,1.518l2.884,4.397c0.067,0.103,0.243,0.17,0.369,0.138l4.222-1.042l4.223-1.042c0.032-0.008,0.064-0.02,0.094-0.033
			c0.141-0.064,0.226-0.177,0.24-0.319l0.659-6.818c1.275-0.593,2.503-1.259,3.684-1.99l1.737,0.933l4.632,2.49
			c0.108,0.059,0.293,0.033,0.389-0.054l3.214-2.929l3.216-2.929c0.025-0.023,0.047-0.048,0.066-0.074
			c0.094-0.123,0.114-0.263,0.059-0.394l-2.933-6.926l-0.012-0.029c0.701-1.025,1.351-2.081,1.933-3.164l1.805-0.157l5.238-0.457
			c0.124-0.01,0.265-0.133,0.297-0.258l1.083-4.212l1.083-4.212c0.009-0.032,0.013-0.065,0.015-0.098
			C297.905,197.892,297.845,197.763,297.727,197.683z M256.961,173.957c0.747-0.02,1.503,0.008,2.246,0.083
			c0.759,0.076,1.522,0.202,2.267,0.376c1.224,0.303,2.413,0.735,3.543,1.29l0.094,0.047l0.103,0.053
			c0.111,0.057,0.225,0.115,0.336,0.176c0.368,0.203,0.7,0.401,1.022,0.608l0.051,0.033l0.05,0.033l0.067,0.042l0.003-0.004
			l0.077,0.057l0.064,0.044c0.019,0.014,0.039,0.026,0.058,0.038c0.015,0.012,0.03,0.021,0.084,0.058
			c0,0.001,0.059,0.041,0.059,0.041c0.033,0.022,0.063,0.044,0.1,0.07c0.462,0.325,0.915,0.678,1.347,1.049l0.055,0.047
			c0.161,0.139,0.318,0.282,0.477,0.428c0.394,0.376,0.77,0.77,1.127,1.179l0.04,0.047l0.057,0.067l0.09,0.106l0.035,0.043
			l0.036,0.042l0.003-0.003l0.04,0.056l0.071,0.087l0.088,0.109l0.056,0.071l0.037,0.045l0.004-0.003l0.045,0.066l0.061,0.079
			l0.046,0.06l0.004-0.003l0.036,0.057l0.004-0.003l0.04,0.063l0.04,0.055l0.004-0.003l0.032,0.051l0.06,0.081l0.081,0.109
			c0.2,0.281,0.395,0.567,0.58,0.859l0-0.001l0.031,0.051c0.743,1.205,1.339,2.503,1.786,3.898c0.005,0.015,0.01,0.03,0.014,0.045
			c0.069,0.226,0.133,0.453,0.191,0.681c0.232,0.906,0.393,1.832,0.482,2.781l0.008,0.099c0.004,0.027,0.005,0.054,0.01,0.128
			c0.017,0.199,0.027,0.4,0.039,0.637l0.005,0l-0.003,0.066c0.003,0.083,0.004,0.169,0.005,0.278
			c0.013,1.422-0.144,2.836-0.464,4.203c-0.349,1.423-0.88,2.804-1.569,4.11l0.04-0.095c-0.709,1.301-1.585,2.511-2.603,3.597
			c-1.001,1.047-2.13,1.97-3.359,2.743c-1.215,0.744-2.509,1.337-3.83,1.759c-1.438,0.442-2.924,0.698-4.428,0.758l-0.055,0.002
			c-0.738,0.02-1.486-0.008-2.22-0.082c-0.767-0.077-1.536-0.205-2.286-0.382c-1.447-0.356-2.842-0.899-4.148-1.609l-0.001,0.001
			c-1.239-0.692-2.397-1.538-3.443-2.517c-1.035-0.988-1.949-2.107-2.719-3.325c-0.779-1.259-1.396-2.616-1.845-4.03l0.041,0.094
			c-0.427-1.407-0.674-2.866-0.736-4.337c-0.047-1.522,0.103-3.046,0.448-4.529c0.352-1.447,0.891-2.847,1.59-4.143
			c0.699-1.261,1.547-2.428,2.519-3.47c1.005-1.056,2.137-1.983,3.364-2.758c1.259-0.775,2.608-1.387,4.009-1.821
			c1.233-0.367,2.501-0.597,3.82-0.687C256.626,173.973,256.778,173.964,256.961,173.957z"/>
		<path style="fill:#FFFFFF;" d="M261.409,166.686c2.451,0.39,4.828,1.16,7.039,2.266c0.018,0.007,0.037,0.015,0.055,0.024
			c0.261,0.133,0.519,0.271,0.775,0.412c1.495,0.82,2.905,1.795,4.199,2.911c0.008,0.006,0.015,0.013,0.023,0.02
			c0.044,0.038,0.088,0.075,0.131,0.114c0.015,0.013,0.031,0.028,0.047,0.041c0.036,0.031,0.071,0.063,0.106,0.094
			c0.024,0.021,0.049,0.043,0.073,0.065c0.016,0.014,0.032,0.029,0.049,0.044c0.041,0.037,0.083,0.075,0.124,0.113
			c0.009,0.008,0.017,0.015,0.026,0.024c0.025,0.023,0.05,0.045,0.075,0.068c0.899,0.832,1.736,1.728,2.505,2.682
			c0.278,0.346,0.546,0.701,0.803,1.062l0.006,0.009c0.035,0.049,0.07,0.099,0.105,0.148c0.014,0.021,0.03,0.043,0.044,0.064
			c0.025,0.036,0.049,0.071,0.073,0.106c0.023,0.033,0.046,0.066,0.069,0.099c0.018,0.027,0.036,0.053,0.054,0.08l0.085,0.127
			c0.013,0.02,0.026,0.039,0.039,0.059c0.032,0.048,0.063,0.095,0.094,0.142c0.011,0.018,0.022,0.035,0.034,0.053
			c0.032,0.049,0.063,0.097,0.094,0.146c0.012,0.018,0.023,0.035,0.034,0.053c0.03,0.046,0.058,0.092,0.087,0.138
			c0.014,0.022,0.027,0.044,0.041,0.066c0.025,0.04,0.05,0.081,0.075,0.122c0.018,0.029,0.035,0.057,0.053,0.085
			c0.019,0.03,0.037,0.062,0.056,0.092c0.024,0.039,0.047,0.078,0.071,0.116l0.032,0.053c0.064,0.107,0.127,0.214,0.189,0.322
			c1.208,2.076,2.072,4.342,2.621,6.676c0.55,2.334,0.717,4.762,0.565,7.152c-0.315,4.833-2.122,9.521-5.082,13.346
			c-2.951,3.812-7.053,6.709-11.626,8.233c-1.193,0.397-2.413,0.704-3.653,0.917c-1.209,0.208-2.428,0.301-3.654,0.33
			c-2.538,0.06-5.074-0.319-7.507-1.037c-4.68-1.38-8.872-4.257-11.947-8.03c-3.088-3.788-4.981-8.515-5.385-13.382
			c-0.206-2.474-0.03-4.974,0.513-7.395c0.269-1.206,0.626-2.387,1.07-3.539c0.453-1.177,1.016-2.306,1.641-3.398
			c2.428-4.24,6.203-7.66,10.586-9.79c4.039-1.965,8.614-2.731,13.075-2.284C260.463,166.55,260.937,166.611,261.409,166.686
			 M256.682,167.951c-1.978,0.085-3.931,0.411-5.829,0.972c-1.902,0.594-3.717,1.419-5.418,2.458c-1.66,1.048-3.184,2.288-4.547,3.7
			c-1.387,1.479-2.582,3.122-3.56,4.9c0.023-0.043,0.046-0.087,0.069-0.13c-0.028,0.053-0.057,0.105-0.085,0.159
			c-0.003,0.007-0.008,0.014-0.012,0.021c0.004-0.007,0.008-0.014,0.012-0.02c-0.918,1.736-1.618,3.57-2.091,5.476
			c-0.476,2.041-0.684,4.134-0.625,6.229c0.088,2.018,0.427,4.01,1.012,5.943c0.595,1.863,1.411,3.642,2.431,5.31
			c1.059,1.674,2.315,3.21,3.744,4.58c1.442,1.344,3.038,2.504,4.761,3.46c1.775,0.952,3.656,1.675,5.611,2.16
			c2.03,0.468,4.108,0.676,6.189,0.619c2.03-0.087,4.035-0.427,5.979-1.017c-0.044,0.013-0.089,0.027-0.135,0.04
			c1.909-0.597,3.731-1.428,5.436-2.473c1.643-1.04,3.151-2.269,4.5-3.665c1.366-1.452,2.544-3.062,3.514-4.803
			c0.981-1.822,1.721-3.759,2.207-5.771c0.446-1.982,0.644-4.004,0.591-6.034c-0.083-1.993-0.41-3.961-0.978-5.87
			c-0.61-1.948-1.462-3.806-2.539-5.541c-0.37-0.577-0.764-1.138-1.179-1.681l-0.001,0c-0.029-0.038-0.057-0.075-0.087-0.113
			l-0.035-0.045l-0.034-0.043c-0.526-0.673-1.088-1.317-1.684-1.933c-0.007-0.006-0.013-0.013-0.019-0.02
			c-0.029-0.031-0.059-0.061-0.088-0.09c-0.019-0.019-0.038-0.04-0.057-0.059c-0.018-0.018-0.037-0.037-0.055-0.056
			c-0.032-0.031-0.063-0.063-0.095-0.094c-0.005-0.005-0.01-0.011-0.015-0.016c-0.113-0.112-0.227-0.223-0.343-0.333
			c-0.012-0.011-0.023-0.022-0.035-0.033c-0.02-0.019-0.041-0.038-0.062-0.058c-0.024-0.021-0.048-0.044-0.072-0.066
			c-0.028-0.025-0.055-0.049-0.082-0.074c-0.017-0.016-0.036-0.032-0.054-0.049c-0.032-0.029-0.063-0.056-0.094-0.085
			c-0.015-0.013-0.029-0.026-0.044-0.039c-0.037-0.032-0.075-0.065-0.112-0.098c-0.009-0.007-0.017-0.015-0.025-0.022l-0.126-0.108
			c-0.005-0.005-0.01-0.009-0.015-0.014c-0.045-0.039-0.091-0.077-0.136-0.116l-0.007-0.005c-1.194-1.008-2.482-1.899-3.851-2.661
			c-1.778-0.957-3.665-1.684-5.625-2.169C260.853,168.101,258.77,167.891,256.682,167.951 M240.867,175.105
			c-0.027,0.028-0.054,0.056-0.081,0.084C240.813,175.163,240.839,175.134,240.867,175.105 M280.437,190.069
			c0.002,0.061,0.005,0.122,0.007,0.184C280.442,190.19,280.44,190.13,280.437,190.069 M279.821,196.212
			c-0.005,0.022-0.011,0.044-0.015,0.066C279.811,196.257,279.815,196.234,279.821,196.212 M252.096,213.156
			c0.02,0.004,0.04,0.009,0.06,0.014C252.136,213.165,252.116,213.16,252.096,213.156 M252.157,213.17
			c0.048,0.012,0.096,0.024,0.143,0.036C252.253,213.193,252.205,213.181,252.157,213.17 M237.313,180.011L237.313,180.011
			c0.006-0.011,0.011-0.02,0.016-0.029C237.324,179.991,237.318,180.001,237.313,180.011"/>
	</g>
	<g>
		
			<polyline style="fill:none;stroke:#E38907;stroke-width:2;stroke-linecap:round;stroke-linejoin:round;stroke-miterlimit:10;stroke-dasharray:6;" points="
			299.049,457.198 106.656,457.198 106.656,386.699 		"/>
		
			<ellipse transform="matrix(0.9229 -0.3851 0.3851 0.9229 -153.0145 150.4423)" style="fill:#EE2F24;" cx="299.049" cy="457.198" rx="10.457" ry="10.457"/>
	</g>
	<g>
		<path style="fill:#EE2F24;" d="M268.917,255.294H136.445H94.82H69.956c-9.766,0-18.016,7.222-18.016,15.771V392.94
			c0,8.548,8.25,15.771,18.016,15.771h179.486h19.475c9.766,0,18.016-7.223,18.016-15.771V271.065
			C286.933,262.516,278.683,255.294,268.917,255.294"/>
		<path style="fill:#E12B22;" d="M51.92,271.066v121.875c0,8.559,8.258,15.789,18.035,15.789H249.44h19.476
			c9.777,0,18.039-7.23,18.039-15.789v-23.058c-10.434,0.527-20.889,0.638-31.328,0.242c-5.902-0.223-11.797-0.579-17.68-1.114
			c-5.879-0.535-11.746-1.211-17.59-2.07c-5.847-0.859-11.675-1.863-17.468-3.055c-5.594-1.156-11.164-2.445-16.684-3.914
			c-2.988-0.797-5.969-1.629-8.933-2.519c-2.5-0.754-4.997-1.524-7.473-2.352c-4.555-1.519-9.066-3.172-13.516-4.98
			c-4.554-1.852-9.058-3.832-13.488-5.977c-4.336-2.098-8.617-4.312-12.812-6.683c-4.383-2.477-8.692-5.09-12.887-7.868
			c-4.203-2.785-8.321-5.707-12.301-8.804c-3.965-3.086-7.824-6.313-11.516-9.719c-3.535-3.262-6.957-6.652-10.191-10.215
			c-3.324-3.66-6.496-7.465-9.426-11.449c-1.515-2.055-2.988-4.149-4.383-6.289c-1.187-1.824-2.343-3.672-3.437-5.559
			c-1.274-2.199-2.5-4.429-3.633-6.707c-1.051-2.101-2.051-4.226-2.969-6.39c-0.646-1.524-1.266-3.058-1.849-4.607
			C54.035,262.741,51.92,266.733,51.92,271.066"/>
		<g>
			<g>
				
					<line style="fill:none;stroke:#FFFFFF;stroke-width:0.9194;stroke-linecap:round;stroke-miterlimit:10;" x1="269.546" y1="263.699" x2="266.546" y2="263.699"/>
				
					<path style="fill:none;stroke:#FFFFFF;stroke-width:0.9194;stroke-linecap:round;stroke-miterlimit:10;stroke-dasharray:5.9935,5.9935;" d="
					M260.552,263.699H141.918h-40.103H77.86c-9.409,0-17.357,6.337-17.357,13.837v106.931c0,7.5,7.948,13.837,17.357,13.837h172.922
					h18.763c9.409,0,17.357-6.337,17.357-13.837V277.537c0-5.855-4.842-11-11.442-12.976"/>
				<path style="fill:none;stroke:#FFFFFF;stroke-width:0.9194;stroke-linecap:round;stroke-miterlimit:10;" d="M272.536,263.915
					c-0.974-0.141-1.974-0.215-2.99-0.215"/>
			</g>
		</g>
		<g>
			<path style="fill:#2C2585;" d="M88.081,353.667H48.508c-3.638,0-6.587-2.949-6.587-6.587v-31.956
				c0-3.638,2.949-6.587,6.587-6.587h39.573c12.462,0,22.565,10.103,22.565,22.565l0,0
				C110.646,343.564,100.544,353.667,88.081,353.667z"/>
			<circle style="fill:#FBA92D;" cx="87.59" cy="331.102" r="11.598"/>
		</g>
	</g>
	<g>
		<g>
			<path style="fill:#FBA92D;" d="M236.686,122.749c25.581-7.104,40.581-33.64,33.477-59.22
				c-7.104-25.581-33.639-40.581-59.22-33.477c-25.581,7.104-40.58,33.639-33.476,59.22
				C184.569,114.853,211.105,129.853,236.686,122.749"/>
			<path style="fill:#E38907;" d="M200.061,40.425c-1.807,1.214-3.519,2.556-5.124,4.026c-0.985,0.9-1.921,1.853-2.811,2.845
				c-0.437,0.483-0.862,0.976-1.276,1.479c-0.184,0.222-0.365,0.447-0.546,0.671c-2.345,2.939-4.275,6.195-5.759,9.645
				c-1.642,3.761-2.701,7.771-3.217,11.843c-0.106,0.836-0.185,1.674-0.236,2.513c-0.011,0.185-0.023,0.369-0.033,0.554
				c-0.473,9.018,2.046,18.143,6.99,25.69c1.25,1.903,2.643,3.708,4.175,5.396c1.498,1.647,3.148,3.157,4.879,4.565
				c3.358,2.72,7.167,4.881,11.176,6.483c8.001,3.196,16.926,3.81,25.315,1.91c4.481-1.019,8.801-2.779,12.73-5.156
				c3.882-2.354,7.368-5.332,10.321-8.78c1.399-1.633,2.67-3.364,3.817-5.187c1.137-1.81,2.12-3.726,2.982-5.682
				c1.738-3.939,2.83-8.159,3.319-12.431c1.023-8.971-0.972-18.223-5.434-26.054c-2.267-3.976-5.192-7.569-8.6-10.617
				c-1.702-1.529-3.525-2.916-5.443-4.161c-1.87-1.206-3.846-2.248-5.87-3.158c-4.033-1.817-8.366-2.946-12.757-3.445
				c-4.384-0.497-8.862-0.257-13.181,0.607c-2.963,0.594-5.852,1.511-8.613,2.716c-0.388,0.166-0.773,0.339-1.155,0.517
				c-0.287,0.134-0.57,0.269-0.854,0.41C203.194,38.447,201.597,39.392,200.061,40.425 M210.958,37.424
				c3.496-1.152,7.109-1.859,10.782-2.088c-0.017,0.002-0.033,0.002-0.05,0.002c3.468-0.173,6.932,0.068,10.34,0.734
				c3.415,0.709,6.713,1.827,9.86,3.334c3.254,1.611,6.291,3.626,9.045,5.997c-0.074-0.058-0.14-0.118-0.217-0.182
				c2.747,2.397,5.169,5.124,7.217,8.136l-0.158-0.241c2.081,3.104,3.743,6.45,4.956,9.989c1.14,3.483,1.842,7.079,2.073,10.735
				c-0.006-0.09-0.014-0.181-0.017-0.279c0.202,3.579-0.047,7.158-0.737,10.677c0.018-0.089,0.036-0.18,0.059-0.273
				c-0.716,3.502-1.858,6.883-3.407,10.099c-1.585,3.185-3.551,6.154-5.86,8.862c0.058-0.072,0.118-0.14,0.181-0.215
				c-2.396,2.762-5.121,5.203-8.136,7.267c-3.046,2.035-6.328,3.652-9.789,4.845c0.024-0.007,0.05-0.015,0.075-0.023
				c-0.049,0.017-0.099,0.033-0.147,0.049c-0.043,0.015-0.084,0.029-0.128,0.044c0.03-0.011,0.057-0.02,0.086-0.03
				c-3.428,1.117-6.975,1.81-10.577,2.048c0.02-0.002,0.04-0.004,0.057-0.004c-3.507,0.189-7.017-0.055-10.467-0.722
				c-3.497-0.728-6.873-1.884-10.083-3.445c0.088,0.038,0.171,0.079,0.253,0.119c-3.149-1.551-6.09-3.48-8.768-5.746
				c0.028,0.023,0.053,0.046,0.08,0.07c-0.048-0.041-0.094-0.082-0.141-0.123c-0.022-0.019-0.046-0.037-0.067-0.057
				c0.011,0.009,0.022,0.018,0.033,0.027c-2.73-2.381-5.143-5.098-7.187-8.094c-2.012-3.03-3.623-6.304-4.807-9.743
				c-1.154-3.498-1.857-7.115-2.086-10.786c-0.129-2.575-0.026-5.147,0.31-7.697c0.002-0.019,0.004-0.037,0.007-0.057
				c0.011-0.079,0.022-0.16,0.034-0.24c0.005-0.043,0.011-0.086,0.018-0.129c0.007-0.053,0.014-0.108,0.022-0.163
				c0.011-0.066,0.021-0.132,0.03-0.199c0.006-0.033,0.011-0.066,0.016-0.101c0.014-0.092,0.028-0.186,0.044-0.278l0.001-0.008
				c0.079-0.477,0.162-0.954,0.256-1.43c0.606-2.913,1.51-5.75,2.701-8.472c0.001-0.004,0.003-0.008,0.005-0.012
				c0.208-0.477,0.427-0.953,0.655-1.425c0.225-0.451,0.457-0.899,0.697-1.342c0.005-0.009,0.01-0.019,0.015-0.028
				c0.028-0.051,0.056-0.101,0.083-0.153c1.395-2.546,3.039-4.941,4.919-7.162c-0.001,0.001-0.002,0.002-0.003,0.003
				c0.975-1.124,2.004-2.194,3.087-3.206c1.563-1.462,3.233-2.803,5-4.016c0.548-0.368,1.106-0.72,1.67-1.06
				C205.369,39.677,208.101,38.405,210.958,37.424 M193.187,49.33c-0.017,0.021-0.033,0.04-0.05,0.06
				c0.005-0.007,0.01-0.012,0.015-0.019c-0.008,0.009-0.016,0.019-0.026,0.029c0.01-0.012,0.021-0.023,0.031-0.035
				C193.167,49.355,193.176,49.343,193.187,49.33 M221.458,35.35c0.06-0.002,0.121-0.005,0.18-0.009
				C221.577,35.346,221.518,35.349,221.458,35.35 M190.073,98.872c0.011,0.016,0.022,0.032,0.033,0.048
				C190.096,98.904,190.084,98.888,190.073,98.872 M237.027,114.85c0.024-0.009,0.048-0.017,0.072-0.026
				c-0.037,0.012-0.075,0.026-0.113,0.04C237.001,114.858,237.013,114.854,237.027,114.85 M197.339,107.061
				c0.022,0.018,0.041,0.035,0.061,0.053c-0.03-0.028-0.063-0.056-0.095-0.083C197.316,107.04,197.328,107.052,197.339,107.061"/>
		</g>
		<g>
			
				<rect x="214.291" y="51.822" transform="matrix(0.9726 -0.2324 0.2324 0.9726 -12.3107 52.6247)" style="fill:#E38907;" width="5.828" height="53.484"/>
			
				<rect x="217.447" y="50.834" transform="matrix(0.9726 -0.2324 0.2324 0.9726 -7.234 52.4248)" style="fill:#E38907;" width="2.913" height="12.166"/>
			
				<rect x="227.049" y="91.021" transform="matrix(0.9726 -0.2324 0.2324 0.9726 -16.3097 55.7579)" style="fill:#E38907;" width="2.913" height="12.166"/>
			<g>
				<g>
					<path style="fill:#E38907;" d="M211.658,102.766l-1.456-6.095l4.262-2.024l-6.969-29.17l-4.718,0.122l-1.463-6.125l4.489-1.073
						l15.105-3.609c5.451-1.303,9.942-1.316,13.473-0.045c3.531,1.273,5.77,3.891,6.717,7.856c0.488,2.042,0.438,3.986-0.146,5.834
						c-0.585,1.848-1.79,3.429-3.612,4.745c1.814-0.035,3.374,0.269,4.68,0.909c1.305,0.642,2.369,1.539,3.189,2.694
						c0.821,1.156,1.41,2.477,1.765,3.963c1.014,4.242,0.36,7.782-1.958,10.621c-2.319,2.838-6.173,4.9-11.565,6.188
						L211.658,102.766z M220.531,73.868l4.223-1.009c2.458-0.587,4.203-1.418,5.235-2.493c1.032-1.074,1.351-2.434,0.958-4.08
						c-0.431-1.804-1.314-2.981-2.651-3.532c-1.336-0.549-3.164-0.548-5.483,0.006l-4.668,1.115L220.531,73.868z M224.687,91.262
						l6.869-1.641c2.061-0.493,3.516-1.27,4.361-2.332c0.847-1.06,1.071-2.424,0.673-4.089c-0.298-1.249-0.745-2.237-1.337-2.965
						c-0.593-0.727-1.354-1.195-2.283-1.403c-0.93-0.207-2.069-0.15-3.417,0.172l-7.374,1.762L224.687,91.262z"/>
				</g>
			</g>
		</g>
	</g>
	<g>
		<g>
			<path style="fill:#FBA92D;" d="M149.984,156.44c15.966-1.003,28.114-14.778,27.111-30.744
				c-1.003-15.966-14.778-28.114-30.744-27.111c-15.966,1.003-28.113,14.778-27.11,30.744
				C120.243,145.295,134.019,157.443,149.984,156.44"/>
			<path style="fill:#E38907;" d="M138.644,103.345c-1.217,0.49-2.393,1.069-3.522,1.735c-0.693,0.408-1.363,0.853-2.011,1.327
				c-0.318,0.23-0.63,0.468-0.937,0.713c-0.136,0.108-0.271,0.218-0.405,0.328c-1.749,1.44-3.292,3.12-4.597,4.969
				c-1.436,2.013-2.56,4.245-3.371,6.581c-0.167,0.48-0.317,0.964-0.452,1.452c-0.03,0.108-0.06,0.215-0.088,0.322
				c-1.402,5.258-1.053,10.951,0.922,16.016c0.5,1.278,1.097,2.515,1.79,3.701c0.678,1.158,1.463,2.253,2.308,3.299
				c1.641,2.022,3.617,3.77,5.782,5.214c4.319,2.88,9.504,4.354,14.686,4.278c2.769-0.043,5.535-0.543,8.147-1.454
				c2.582-0.904,5.008-2.226,7.178-3.891c1.028-0.788,1.993-1.651,2.896-2.583c0.896-0.925,1.714-1.933,2.465-2.978
				c1.515-2.105,2.685-4.458,3.505-6.915c1.72-5.161,1.696-10.864,0.041-16.036c-0.841-2.627-2.118-5.109-3.748-7.33
				c-0.813-1.113-1.715-2.158-2.691-3.131c-0.952-0.944-1.987-1.804-3.068-2.593c-2.152-1.573-4.565-2.779-7.092-3.62
				c-2.523-0.839-5.192-1.255-7.846-1.283c-1.821-0.019-3.638,0.162-5.416,0.529c-0.249,0.05-0.498,0.104-0.745,0.161
				c-0.186,0.043-0.37,0.088-0.554,0.135C140.738,102.57,139.678,102.928,138.644,103.345 M145.442,102.933
				c2.204-0.243,4.423-0.211,6.617,0.112c-0.01-0.001-0.02-0.003-0.03-0.005c2.066,0.33,4.078,0.904,6.005,1.72
				c1.925,0.843,3.73,1.913,5.397,3.193c1.718,1.355,3.257,2.921,4.586,4.662c-0.036-0.044-0.068-0.087-0.105-0.134
				c1.321,1.755,2.409,3.664,3.242,5.695l-0.063-0.162c0.84,2.089,1.403,4.269,1.678,6.506c0.238,2.195,0.205,4.403-0.115,6.587
				c0.008-0.054,0.014-0.108,0.024-0.166c-0.326,2.135-0.919,4.214-1.764,6.203c0.022-0.05,0.044-0.102,0.069-0.154
				c-0.858,1.975-1.952,3.827-3.266,5.53c-1.331,1.68-2.86,3.186-4.558,4.495c0.043-0.035,0.087-0.068,0.133-0.104
				c-1.757,1.33-3.667,2.429-5.702,3.271c-2.049,0.82-4.185,1.365-6.374,1.638c0.015-0.001,0.031-0.003,0.047-0.004
				c-0.031,0.003-0.063,0.007-0.093,0.01c-0.027,0.003-0.053,0.006-0.081,0.01c0.019-0.003,0.036-0.005,0.055-0.007
				c-2.16,0.231-4.337,0.199-6.491-0.11c0.012,0.001,0.024,0.003,0.034,0.005c-2.091-0.325-4.13-0.906-6.081-1.729
				c-1.971-0.864-3.817-1.967-5.515-3.287c0.047,0.034,0.091,0.068,0.134,0.102c-1.663-1.307-3.157-2.81-4.454-4.479
				c0.013,0.017,0.026,0.034,0.038,0.051c-0.023-0.03-0.045-0.06-0.068-0.09c-0.011-0.014-0.022-0.027-0.032-0.042
				c0.005,0.007,0.011,0.013,0.016,0.02c-1.313-1.744-2.397-3.646-3.229-5.667c-0.809-2.037-1.351-4.168-1.621-6.343
				c-0.245-2.206-0.209-4.426,0.114-6.619c0.244-1.534,0.625-3.038,1.141-4.499c0.003-0.011,0.007-0.021,0.011-0.033
				c0.016-0.045,0.033-0.092,0.05-0.137c0.008-0.024,0.017-0.049,0.027-0.074c0.011-0.031,0.022-0.062,0.033-0.094
				c0.015-0.038,0.029-0.075,0.042-0.114c0.008-0.019,0.014-0.038,0.022-0.058c0.02-0.052,0.04-0.106,0.06-0.159l0.002-0.005
				c0.106-0.271,0.215-0.542,0.329-0.811c0.72-1.642,1.606-3.202,2.647-4.659c0.001-0.002,0.003-0.004,0.005-0.007
				c0.182-0.255,0.371-0.509,0.563-0.758c0.189-0.238,0.382-0.473,0.578-0.704c0.004-0.005,0.008-0.01,0.012-0.015
				c0.023-0.026,0.045-0.053,0.068-0.08c1.14-1.327,2.407-2.535,3.792-3.61c-0.001,0-0.001,0.001-0.002,0.001
				c0.715-0.541,1.455-1.044,2.219-1.506c1.103-0.667,2.255-1.25,3.448-1.745c0.369-0.148,0.742-0.287,1.116-0.417
				C141.867,103.565,143.636,103.156,145.442,102.933 M133.483,107.74c-0.013,0.01-0.025,0.02-0.037,0.029
				c0.004-0.004,0.007-0.006,0.011-0.009c-0.006,0.004-0.012,0.009-0.019,0.014c0.007-0.005,0.015-0.011,0.023-0.016
				C133.468,107.752,133.474,107.746,133.483,107.74 M151.89,103.018c0.036,0.006,0.072,0.012,0.107,0.017
				C151.961,103.031,151.926,103.025,151.89,103.018 M125.477,136.559c0.005,0.01,0.009,0.022,0.014,0.032
				C125.487,136.581,125.482,136.57,125.477,136.559 M151.169,151.826c0.016-0.002,0.03-0.004,0.046-0.006
				c-0.023,0.002-0.048,0.006-0.072,0.009C151.153,151.827,151.16,151.826,151.169,151.826 M128.741,142.291
				c0.011,0.013,0.02,0.026,0.03,0.039c-0.014-0.021-0.03-0.041-0.046-0.061C128.73,142.276,128.736,142.285,128.741,142.291"/>
		</g>
		<g>
			
				<rect x="142.246" y="111.852" transform="matrix(0.9997 -0.0264 0.0264 0.9997 -3.3245 3.842)" style="fill:#E38907;" width="3.511" height="32.227"/>
			
				<rect x="146.821" y="111.75" transform="matrix(0.9997 -0.0264 0.0264 0.9997 -2.9926 3.9356)" style="fill:#E38907;" width="1.756" height="7.331"/>
			
				<rect x="147.477" y="136.637" transform="matrix(0.9997 -0.0263 0.0263 0.9997 -3.6412 3.9531)" style="fill:#E38907;" width="1.756" height="7.331"/>
			<g>
				<g>
					<path style="fill:#E38907;" d="M137.683,141.554l-0.1-3.775l2.765-0.661l-0.477-18.065l-2.795-0.516l-0.1-3.793l2.78-0.073
						l9.354-0.247c3.376-0.089,6.025,0.46,7.949,1.651c1.923,1.191,2.917,3.013,2.982,5.468c0.033,1.265-0.238,2.404-0.813,3.421
						c-0.575,1.016-1.482,1.798-2.72,2.348c1.074,0.205,1.956,0.578,2.646,1.119c0.689,0.541,1.205,1.202,1.544,1.986
						c0.34,0.784,0.522,1.635,0.547,2.556c0.069,2.628-0.756,4.633-2.477,6.018c-1.72,1.384-4.25,2.121-7.588,2.208L137.683,141.554
						z M146.513,125.621l2.615-0.069c1.522-0.041,2.655-0.313,3.397-0.818s1.1-1.267,1.073-2.286
						c-0.029-1.117-0.404-1.921-1.123-2.412c-0.72-0.491-1.798-0.718-3.234-0.68l-2.891,0.076L146.513,125.621z M146.797,136.394
						l4.254-0.112c1.276-0.034,2.231-0.311,2.861-0.832c0.632-0.52,0.934-1.295,0.907-2.326c-0.021-0.774-0.16-1.413-0.419-1.915
						c-0.259-0.502-0.65-0.873-1.171-1.111c-0.523-0.238-1.202-0.347-2.036-0.325l-4.567,0.121L146.797,136.394z"/>
				</g>
			</g>
		</g>
	</g>
	<g>
		<path style="fill:#2C2585;" d="M530.092,107.885c-0.084,0-0.18,0.026-0.262,0.071c-0.103,0.062-0.218,0.183-0.244,0.316
			l-4.715,28.031l-4.695,27.872l-4.723,28.054l-4.703,27.922l-2.797,16.625c-1.343,7.992-2.687,15.976-4.039,23.968
			c-0.021,0.149-0.034,0.292,0.053,0.434c0.071,0.119,0.184,0.207,0.307,0.238c0.047,0.013,0.094,0.02,0.134,0.02
			c0.097,0,0.19-0.025,0.268-0.072c0.103-0.06,0.218-0.182,0.243-0.315l0.016-0.102l3.011-17.882l2.157-12.809l3.922-23.297
			l4.444-26.401l3.907-23.204l1.156-6.871c2.356-13.981,4.711-27.961,7.063-41.942c0.018-0.12,0.027-0.261-0.057-0.397
			c-0.072-0.12-0.183-0.208-0.306-0.239C530.193,107.896,530.145,107.885,530.092,107.885"/>
		<path style="fill:#151241;" d="M307.113,47.044c-1.153,0-2.321,0.137-3.471,0.407l0.097-0.007l-0.028,0.004l-0.409,0.089
			l0.158-0.012l-0.197,0.027l-0.125,0.028l-0.144,0.047l-0.111,0.041h0.01l-0.03,0.003l-0.071,0.01
			c-4.642,1.354-8.541,4.71-10.773,9.23c-0.799,1.598-1.361,3.317-1.669,5.102l-27.84,161.86L234.475,386.88l-3.692,21.465
			c-0.335,1.963-0.346,3.968-0.035,5.96c0.461,3.069,1.722,5.966,3.548,8.347c0.054,0.071,0.109,0.142,0.165,0.213
			c1.367,1.727,3.036,3.17,4.913,4.19l-0.31-0.22c1.515,0.926,3.18,1.542,4.938,1.846l152.778,26.278l72.926,12.543
			c0.813,0.139,1.649,0.21,2.485,0.21c1.158,0,2.326-0.136,3.472-0.406c-0.022,0-0.043,0-0.065,0.002
			c0.042-0.01,0.085-0.019,0.127-0.029l0.278-0.059l-0.094,0.003c0.072-0.005,0.141-0.022,0.211-0.042
			c0.144-0.035,0.242-0.062,0.34-0.09l0.132-0.039c4.565-1.333,8.459-4.687,10.693-9.205c0.799-1.594,1.361-3.312,1.671-5.103
			l29.875-173.696l29.085-169.121l0.605-3.516c0.335-1.958,0.347-3.961,0.036-5.952c-0.471-3.154-1.791-6.13-3.702-8.551
			l-0.035-0.044c0.002,0.002,0.003,0.004,0.005,0.006c-1.363-1.717-3.025-3.151-4.895-4.168l0.311,0.22
			c-1.515-0.927-3.18-1.542-4.939-1.847L401.381,63.04l-20.664-3.555l-29.661-5.097l-41.457-7.133
			C308.786,47.115,307.95,47.044,307.113,47.044"/>
		<path style="fill:#201C61;" d="M291.997,56.999c2.544-5.172,7.365-8.867,12.703-9.738
			C299.343,48.116,294.534,51.802,291.997,56.999"/>
		<path style="fill:#201C61;" d="M531.67,98.381c-0.059-1.012-0.141-2.024-0.246-3.035c-0.219-1.203-0.524-2.387-0.95-3.532
			c-0.32-0.726-0.675-1.441-1.078-2.128c-0.422-0.715-0.879-1.403-1.382-2.059c-0.208-0.266-0.422-0.527-0.641-0.781
			c-0.09-0.094-0.18-0.184-0.274-0.274c-0.441-0.429-0.906-0.828-1.386-1.203c-0.594-0.453-1.219-0.867-1.86-1.254L401.377,63.049
			l-20.664-3.555l-29.66-5.097l-41.457-7.133c-0.829-0.145-1.661-0.211-2.485-0.211c-7.902,0-15.262,6.347-16.742,14.949
			l-27.84,161.859l-28.035,163.008l-3.691,21.465c-0.047,0.281-0.09,0.566-0.125,0.851c8.961,1.531,17.921,3.067,26.882,4.602
			c29.032,4.972,58.063,9.941,87.094,14.914c28.067,4.804,56.137,9.613,84.203,14.418c7.48,1.281,14.96,2.562,22.44,3.841
			c0.183,0.036,0.367,0.072,0.55,0.108c2.132,0.478,4.282,0.855,6.453,1.094c0.289,0.05,0.578,0.098,0.866,0.148
			c0.258,0.012,0.519,0.016,0.777,0.012c0.625-0.008,1.242-0.051,1.86-0.129c-0.02,0.004-0.043,0.008-0.067,0.012
			c0.68-0.094,1.356-0.223,2.016-0.407c0.605-0.171,1.199-0.375,1.781-0.613c-0.019,0.008-0.039,0.016-0.059,0.027
			c0.598-0.253,1.188-0.539,1.747-0.867c0.578-0.332,1.125-0.703,1.66-1.109h-0.004c0.004,0,0.008-0.004,0.012-0.004
			c0.007-0.008,0.015-0.02,0.031-0.027c0,0,0.004,0,0.004-0.004c0,0,0.004,0,0.004-0.004v0.004c0.484-0.391,0.961-0.801,1.394-1.25
			c0.43-0.438,0.836-0.899,1.223-1.387h-0.004c0.004,0,0.004-0.004,0.008-0.008c0.007-0.012,0.015-0.023,0.027-0.035
			c0.004,0,0.004-0.004,0.004-0.008v0.008c0.367-0.496,0.719-1.012,1.027-1.551c0.301-0.527,0.571-1.066,0.813-1.621
			c-0.008,0.02-0.016,0.039-0.024,0.063c0.235-0.551,0.442-1.118,0.61-1.692c0.139-0.826,0.28-1.65,0.422-2.474
			c0.238-1.109,0.421-2.23,0.57-3.354c0,0.001,0,0.003,0.001,0.004c6.101-35.742,12.211-71.488,18.312-107.23
			c6.75-39.5,13.496-79,20.243-118.504c5.863-34.347,11.734-68.715,17.601-103.07c0.122-0.881,0.267-1.76,0.413-2.64
			c0.047-0.546,0.092-1.092,0.128-1.637C531.688,98.671,531.68,98.527,531.67,98.381z"/>
		<path style="fill:#2C2585;" d="M301.182,48.232c-3.535,1.449-6.585,4.148-8.589,7.598c-1.118,1.945-1.871,4.023-2.246,6.168
			l-27.84,161.859l-28.035,163.008l-3.692,21.465c-0.047,0.281-0.09,0.566-0.125,0.851c7.243,1.254,14.474,2.494,21.702,3.733
			c3.339-19.054,6.679-38.111,10.017-57.166c9.719-55.45,19.433-110.903,29.152-166.352c8.237-47.004,16.476-94.009,24.714-141.013
			l-6.644-1.143c-0.82-0.141-1.656-0.211-2.484-0.211C305.108,47.029,303.112,47.435,301.182,48.232"/>
		<path style="fill:#2C2585;" d="M495.352,314.234c-0.092,0-0.185,0.026-0.267,0.076c-0.103,0.058-0.218,0.177-0.243,0.316
			l-7.066,41.98l-3.848,22.852l-3.297,19.578l-1.566,9.316c-1.046,6.198-2.088,12.398-3.131,18.596l-0.029,0.182l-0.032,0.179
			c-0.058,0.328-0.113,0.656-0.167,0.988c-0.02,0.121-0.028,0.262,0.056,0.398c0.066,0.117,0.175,0.202,0.306,0.238
			c0.048,0.014,0.095,0.021,0.136,0.021c0.096,0,0.188-0.026,0.267-0.073c0.1-0.053,0.214-0.171,0.242-0.314
			c1.547-9.22,3.098-18.438,4.653-27.657l1.554-9.211l3.578-21.258l3.579-21.262l2.66-15.812l3.113-18.473
			c0.02-0.12,0.028-0.262-0.056-0.397c-0.066-0.117-0.174-0.201-0.306-0.239C495.435,314.242,495.392,314.234,495.352,314.234"/>
		<path style="fill:#2C2585;" d="M501.662,276.741c-0.084,0-0.18,0.026-0.262,0.071c-0.095,0.059-0.215,0.176-0.24,0.316
			l-0.944,5.609l-0.81,4.805l-0.254,1.508c-0.029,0.18-0.031,0.311,0.049,0.444c0.063,0.113,0.177,0.203,0.307,0.239
			c0.048,0.013,0.094,0.02,0.134,0.02c0.097,0,0.19-0.025,0.268-0.072c0.094-0.058,0.213-0.175,0.239-0.315l1.313-7.801l0.703-4.168
			c0.019-0.118,0.028-0.257-0.057-0.397c-0.062-0.113-0.176-0.202-0.306-0.239C501.752,276.747,501.709,276.741,501.662,276.741"/>
		<path style="fill:#131039;" d="M348.18,423.808c4.553,0,8.249-3.696,8.249-8.249s-3.696-8.249-8.249-8.249
			s-8.249,3.696-8.249,8.249S343.627,423.808,348.18,423.808"/>
		<path style="fill:#2C2585;" d="M348.198,406.054c-0.845,0-1.688,0.107-2.506,0.317c-1.082,0.273-2.181,0.808-3.179,1.549
			c-0.168,0.125-0.332,0.257-0.489,0.394c-0.454,0.387-0.871,0.814-1.24,1.268c-0.133,0.164-0.258,0.332-0.379,0.508
			c-0.14,0.195-0.273,0.394-0.398,0.598c-0.617,0.989-1.044,2.186-1.233,3.46c-0.019,0.126-0.035,0.251-0.046,0.376l-0.018,0.168
			l-0.018,0.168c-0.077,0.834-0.008,1.758,0.207,2.823c0.182,0.854,0.538,1.749,1.056,2.663c0.906,1.601,2.358,2.943,4.087,3.778
			c1.26,0.616,2.689,0.942,4.133,0.942c0.464,0,0.939-0.034,1.416-0.101c0.837-0.121,1.678-0.374,2.642-0.798
			c0.75-0.326,1.497-0.824,2.351-1.568c1.262-1.105,2.245-2.699,2.769-4.489c0.243-0.822,0.36-1.755,0.348-2.772
			c-0.016-0.966-0.205-1.988-0.548-2.956c-0.775-2.209-2.434-4.123-4.551-5.252C351.28,406.426,349.758,406.054,348.198,406.054
			 M348.167,422.531c-0.288,0-0.577-0.012-0.87-0.043c-0.622-0.093-1.226-0.255-1.845-0.496c-0.528-0.248-1.036-0.545-1.51-0.881
			c-0.478-0.389-0.902-0.81-1.295-1.292c-0.347-0.474-0.646-0.984-0.912-1.559c-0.218-0.563-0.375-1.14-0.476-1.764
			c-0.011-0.101-0.019-0.201-0.027-0.303l-0.02-0.115l0.009-0.108c-0.024-0.465-0.01-0.916,0.042-1.377
			c0.08-0.465,0.19-0.913,0.328-1.331c0.051-0.148,0.105-0.295,0.164-0.444c0.051-0.109,0.1-0.215,0.151-0.316
			c0.23-0.44,0.464-0.822,0.739-1.201c0.385-0.473,0.801-0.887,1.271-1.268c0.484-0.359,1.001-0.661,1.58-0.925
			c0.607-0.229,1.2-0.387,1.814-0.479c0.288-0.028,0.577-0.043,0.869-0.043c0.3,0,0.601,0.015,0.905,0.047
			c0.592,0.091,1.181,0.249,1.799,0.48c0.564,0.262,1.072,0.559,1.552,0.904c0.454,0.37,0.868,0.785,1.267,1.268
			c0.356,0.488,0.663,1.01,0.913,1.549c0.229,0.595,0.387,1.171,0.484,1.76c0.073,0.649,0.071,1.284-0.004,1.942
			c-0.1,0.589-0.255,1.154-0.472,1.727c-0.256,0.559-0.557,1.074-0.921,1.573c-0.372,0.456-0.797,0.88-1.264,1.259
			c-0.475,0.344-0.999,0.65-1.556,0.91c-0.586,0.222-1.159,0.378-1.751,0.475C348.808,422.515,348.487,422.531,348.167,422.531"/>
		<path style="fill:#2C2585;" d="M458.553,80.658c-2.961,0-5.369,2.409-5.369,5.37c0,2.96,2.408,5.369,5.369,5.369
			s5.369-2.409,5.369-5.369C463.922,83.066,461.514,80.658,458.553,80.658"/>
		<path style="fill:#2C2585;" d="M381.992,68.984c-1.062,0.621-1.855,1.652-2.184,2.84c-0.336,1.222-0.164,2.562,0.481,3.66
			c0.57,0.977,1.68,1.977,2.836,2.18c20.211,3.558,40.43,7.066,60.644,10.597c1.305,0.231,2.481,0.215,3.661-0.476
			c1.062-0.625,1.855-1.653,2.183-2.84c0.336-1.227,0.164-2.563-0.48-3.66c-0.571-0.977-1.68-1.981-2.836-2.184
			c-20.215-3.531-40.434-7.039-60.645-10.597c-0.463-0.082-0.909-0.133-1.346-0.133C383.513,68.371,382.754,68.538,381.992,68.984"
			/>
		<path style="fill:#B3D9D5;" d="M312.874,73.636c-0.946,0-1.904,0.112-2.847,0.333l0.079-0.005l-0.023,0.003l-0.335,0.073
			l0.129-0.009l-0.16,0.022l-0.104,0.022l-0.118,0.039l-0.091,0.033h0.009l-0.024,0.004l-0.059,0.007
			c-3.808,1.111-7.005,3.863-8.836,7.571c-0.655,1.31-1.116,2.72-1.369,4.184l-22.833,132.752l-22.994,133.693l-3.027,17.605
			c-0.275,1.609-0.284,3.254-0.029,4.888c0.378,2.516,1.412,4.893,2.909,6.845c0.045,0.059,0.091,0.117,0.136,0.175h0.001
			c1.121,1.417,2.489,2.599,4.029,3.436l-0.255-0.18c1.243,0.759,2.608,1.264,4.051,1.514l125.302,21.552l59.812,10.287
			c0.667,0.115,1.352,0.173,2.039,0.173c0.949,0,1.907-0.112,2.846-0.333c-0.017,0-0.035,0-0.052,0.001
			c0.035-0.007,0.069-0.016,0.103-0.023l0.228-0.048l-0.078,0.002c0.06-0.004,0.117-0.018,0.174-0.034
			c0.118-0.03,0.199-0.052,0.279-0.075l0.109-0.032c3.743-1.093,6.937-3.844,8.77-7.549c0.655-1.307,1.116-2.717,1.37-4.186
			l24.502-142.458l23.855-138.708l0.496-2.883c0.276-1.606,0.284-3.249,0.029-4.882c-0.386-2.587-1.468-5.028-3.036-7.013
			c-0.008-0.012-0.018-0.024-0.028-0.036c0.001,0.001,0.002,0.003,0.004,0.005c-1.118-1.409-2.482-2.585-4.015-3.419l0.255,0.18
			c-1.242-0.759-2.607-1.264-4.051-1.514L390.188,86.756l-16.947-2.916l-24.326-4.181l-34.002-5.85
			C314.246,73.694,313.561,73.636,312.874,73.636"/>
		<path style="fill:#FEFEFE;" d="M459.791,98.719c0.007-0.003,0.015-0.007,0.021-0.01l-26.354-4.534L459.791,98.719z"/>
		<path style="opacity:0.5;fill:#FEFEFE;" d="M403.862,125.964c-37.223,17.766-74.445,35.527-111.664,53.293
			c-3.324,1.586-6.649,3.176-9.969,4.762l-5.961,34.644l-6.283,36.537c14.728-7.029,29.454-14.058,44.182-21.088
			c42.511-20.289,85.023-40.578,127.539-60.867c21.941-10.473,43.884-20.947,65.826-31.419l2.857-16.616l0.5-2.883
			c0.274-1.609,0.282-3.254,0.028-4.883c-0.379-2.558-1.434-4.988-3.039-7.027c-1.153-1.445-2.551-2.64-4.047-3.453l0.234,0.215
			c-1.195-0.781-2.558-1.297-4.039-1.555l-39.363-6.769C441.729,107.89,422.796,116.929,403.862,125.964"/>
		<path style="opacity:0.5;fill:#FEFEFE;" d="M427.207,215.306l-109.512,52.266c-18.098,8.636-36.196,17.273-54.293,25.91
			l-7.077,41.155c21.348-10.187,42.695-20.376,64.042-30.565c35.699-17.039,71.402-34.078,107.102-51.118
			c22.134-10.564,44.267-21.127,66.402-31.691l7.078-41.156C476.367,191.837,451.785,203.572,427.207,215.306"/>
		<path style="opacity:0.5;fill:#FEFEFE;" d="M423.098,290.797c-32.586,15.551-65.172,31.102-97.758,46.656
			c-25.094,11.977-50.183,23.953-75.277,35.926c0.031,0.492,0.082,0.984,0.156,1.473c0.375,2.484,1.387,4.855,2.918,6.859
			l0.137,0.176c1.152,1.453,2.508,2.609,4.035,3.437l-0.234-0.214c1.195,0.781,2.558,1.296,4.039,1.554l54.084,9.302
			c9.178-4.382,18.357-8.765,27.537-13.146c30.347-14.48,60.691-28.964,91.039-43.449c14.447-6.895,28.896-13.792,43.343-20.686
			l9.419-54.767l0.636-3.703C465.813,270.41,444.457,280.602,423.098,290.797"/>
		<g>
			<g>
				
					<polyline style="fill:none;stroke:#E38907;stroke-width:2;stroke-linecap:round;stroke-linejoin:round;stroke-miterlimit:10;" points="
					327.159,109.94 365.139,116.688 354.32,177.587 				"/>
				
					<polyline style="fill:none;stroke:#E38907;stroke-width:2;stroke-linecap:round;stroke-linejoin:round;stroke-miterlimit:10;" points="
					478.378,136.807 440.398,130.059 429.578,190.958 				"/>
				
					<line style="fill:none;stroke:#E38907;stroke-width:2;stroke-linecap:round;stroke-linejoin:round;stroke-miterlimit:10;" x1="401.987" y1="123.235" x2="391.168" y2="184.134"/>
				<path style="fill:#EE2F24;" d="M332.07,110.813c-0.482,2.712-3.071,4.521-5.784,4.039s-4.521-3.071-4.039-5.784
					c0.482-2.712,3.071-4.521,5.784-4.039C330.744,105.511,332.552,108.101,332.07,110.813z"/>
				
					<polyline style="fill:none;stroke:#E38907;stroke-width:2;stroke-linecap:round;stroke-linejoin:round;stroke-miterlimit:10;" points="
					294.472,293.924 332.452,300.672 343.271,239.773 				"/>
				<path style="fill:#EE2F24;" d="M406.899,124.107c-0.482,2.712-3.071,4.521-5.784,4.039c-2.712-0.482-4.521-3.071-4.039-5.784
					c0.482-2.712,3.071-4.521,5.784-4.039S407.38,121.395,406.899,124.107z"/>
				
					<polyline style="fill:none;stroke:#E38907;stroke-width:2;stroke-linecap:round;stroke-linejoin:round;stroke-miterlimit:10;" points="
					445.69,320.79 407.71,314.042 418.53,253.143 				"/>
				
					<line style="fill:none;stroke:#E38907;stroke-width:2;stroke-linecap:round;stroke-linejoin:round;stroke-miterlimit:10;" x1="369.3" y1="307.218" x2="380.119" y2="246.319"/>
				<path style="fill:#EE2F24;" d="M473.467,135.934c-0.482,2.712,1.326,5.302,4.039,5.784c2.712,0.482,5.302-1.326,5.784-4.039
					c0.482-2.712-1.326-5.302-4.039-5.784C476.538,131.414,473.948,133.222,473.467,135.934z"/>
				<path style="fill:#EE2F24;" d="M299.383,294.796c0.482-2.712-1.326-5.302-4.039-5.784c-2.712-0.482-5.302,1.326-5.784,4.039
					s1.326,5.302,4.039,5.784C296.311,299.317,298.901,297.509,299.383,294.796z"/>
				<path style="fill:#EE2F24;" d="M374.211,308.091c0.482-2.712-1.326-5.302-4.039-5.784c-2.712-0.482-5.302,1.326-5.784,4.039
					s1.326,5.302,4.039,5.784C371.14,312.611,373.729,310.803,374.211,308.091z"/>
				<path style="fill:#EE2F24;" d="M440.779,319.918c0.482-2.712,3.071-4.521,5.784-4.039c2.712,0.482,4.521,3.071,4.039,5.784
					c-0.482,2.712-3.071,4.521-5.784,4.039C442.105,325.22,440.297,322.63,440.779,319.918z"/>
			</g>
			<g>
				<g>
					<path style="fill:#FBA92D;" d="M378.119,293.25c41.697,5.865,80.311-23.225,86.176-64.922
						c5.865-41.697-23.225-80.311-64.922-86.176c-41.697-5.865-80.309,23.225-86.174,64.922
						C307.331,248.77,336.422,287.384,378.119,293.25"/>
					<path style="fill:#E38907;" d="M376.981,150.347c-3.397,0.62-6.735,1.489-10,2.61c-2.002,0.685-3.967,1.477-5.889,2.357
						c-0.941,0.425-1.872,0.873-2.792,1.342c-0.408,0.207-0.813,0.419-1.219,0.631c-5.271,2.789-10.139,6.302-14.482,10.379
						c-4.769,4.429-8.848,9.59-12.176,15.185c-0.684,1.148-1.328,2.317-1.935,3.505c-0.133,0.262-0.267,0.522-0.398,0.785
						c-6.397,12.815-8.512,27.678-6.101,41.784c0.612,3.559,1.496,7.066,2.655,10.491c1.136,3.344,2.578,6.584,4.205,9.728
						c3.161,6.082,7.332,11.636,12.148,16.504c9.612,9.713,22.201,16.256,35.603,18.805c7.162,1.355,14.558,1.531,21.776,0.562
						c7.135-0.965,14.091-3.089,20.567-6.233c3.069-1.488,6.012-3.201,8.835-5.126c2.799-1.911,5.441-4.076,7.934-6.375
						c5.022-4.627,9.282-10.073,12.697-15.976c7.167-12.398,10.125-27.115,8.593-41.327c-0.779-7.218-2.758-14.294-5.784-20.883
						c-1.507-3.301-3.279-6.472-5.281-9.497c-1.955-2.938-4.169-5.704-6.537-8.309c-4.715-5.195-10.3-9.581-16.369-13.086
						c-6.06-3.499-12.724-5.984-19.552-7.462c-4.685-1.012-9.467-1.507-14.244-1.503c-0.669-0.004-1.339,0.003-2.007,0.02
						c-0.502,0.013-0.999,0.031-1.501,0.055C382.79,149.456,379.87,149.817,376.981,150.347 M394.727,152.883
						c5.813,0.539,11.515,1.798,17.001,3.79c-0.026-0.008-0.049-0.018-0.074-0.028c5.153,1.944,10.038,4.488,14.572,7.614
						c4.517,3.193,8.605,6.907,12.227,11.091c3.712,4.404,6.853,9.256,9.356,14.447c-0.07-0.132-0.129-0.261-0.2-0.402
						c2.478,5.225,4.272,10.723,5.344,16.4l-0.077-0.451c1.061,5.831,1.359,11.749,0.882,17.664
						c-0.547,5.786-1.803,11.46-3.782,16.923c0.048-0.135,0.094-0.272,0.151-0.416c-1.972,5.332-4.599,10.379-7.832,15.06
						c0.083-0.118,0.167-0.239,0.259-0.36c-3.257,4.639-7.06,8.834-11.348,12.529c-4.321,3.629-9.06,6.702-14.132,9.176
						c0.129-0.068,0.261-0.129,0.399-0.198c-5.233,2.499-10.741,4.323-16.433,5.417c-5.718,1.03-11.514,1.304-17.302,0.849
						c0.039,0.005,0.083,0.01,0.124,0.014c-0.082-0.008-0.165-0.015-0.246-0.022c-0.071-0.006-0.14-0.011-0.213-0.017
						c0.05,0.002,0.096,0.007,0.145,0.011c-5.692-0.547-11.288-1.784-16.678-3.719c0.03,0.01,0.06,0.02,0.086,0.03
						c-5.219-1.945-10.17-4.523-14.764-7.677c-4.624-3.272-8.801-7.091-12.481-11.394c0.104,0.111,0.198,0.224,0.293,0.333
						c-3.598-4.25-6.654-8.916-9.113-13.907c0.026,0.051,0.049,0.1,0.072,0.152c-0.043-0.089-0.084-0.179-0.127-0.268
						c-0.02-0.042-0.043-0.082-0.061-0.125c0.01,0.02,0.02,0.04,0.03,0.06c-2.462-5.191-4.251-10.669-5.327-16.321
						c-1.008-5.68-1.277-11.461-0.822-17.212c0.536-5.817,1.805-11.522,3.796-17.006c1.442-3.826,3.22-7.502,5.323-10.997
						c0.015-0.026,0.029-0.052,0.046-0.078c0.066-0.108,0.133-0.219,0.201-0.327c0.034-0.059,0.07-0.118,0.108-0.177
						c0.044-0.073,0.089-0.148,0.135-0.224c0.057-0.09,0.115-0.179,0.17-0.271c0.03-0.045,0.057-0.09,0.087-0.137
						c0.078-0.125,0.159-0.252,0.24-0.377l0.006-0.012c0.416-0.644,0.84-1.284,1.277-1.917c2.725-3.852,5.836-7.406,9.292-10.61
						c0.004-0.005,0.009-0.01,0.015-0.014c0.605-0.562,1.225-1.115,1.854-1.658c0.612-0.514,1.234-1.018,1.864-1.51
						c0.013-0.01,0.026-0.022,0.04-0.032c0.073-0.056,0.145-0.112,0.218-0.17c3.641-2.819,7.547-5.262,11.688-7.3
						c-0.002,0-0.004,0.002-0.007,0.003c2.13-1.018,4.304-1.921,6.518-2.708c3.198-1.136,6.476-2.029,9.814-2.674
						c1.03-0.187,2.064-0.347,3.099-0.485C385.174,152.62,389.952,152.501,394.727,152.883 M361.348,158.945
						c-0.038,0.02-0.074,0.038-0.112,0.056c0.011-0.008,0.022-0.01,0.033-0.018c-0.018,0.008-0.036,0.018-0.056,0.026
						c0.023-0.01,0.045-0.02,0.067-0.031C361.303,158.968,361.323,158.956,361.348,158.945 M411.309,156.514
						c0.089,0.035,0.179,0.069,0.268,0.101C411.486,156.583,411.398,156.551,411.309,156.514 M325.453,229.017
						c0.006,0.029,0.012,0.061,0.018,0.09C325.465,229.078,325.459,229.046,325.453,229.017 M383.616,281.98
						c0.041,0.002,0.08,0.005,0.122,0.008c-0.062-0.006-0.126-0.01-0.19-0.014C383.573,281.975,383.593,281.976,383.616,281.98
						 M330.834,245.525c0.02,0.04,0.038,0.078,0.056,0.116c-0.026-0.06-0.056-0.121-0.086-0.181
						C330.814,245.48,330.824,245.505,330.834,245.525"/>
				</g>
				<g>
					
						<rect x="335.351" y="212.041" transform="matrix(0.1752 -0.9845 0.9845 0.1752 98.2741 550.6292)" style="fill:#E38907;" width="84.828" height="9.243"/>
					
						<rect x="384.292" y="183.95" transform="matrix(0.1752 -0.9845 0.9845 0.1752 141.5408 541.4736)" style="fill:#E38907;" width="19.296" height="4.621"/>
					
						<rect x="372.811" y="248.468" transform="matrix(0.1752 -0.9845 0.9845 0.1752 68.5493 583.3821)" style="fill:#E38907;" width="19.296" height="4.621"/>
					<g>
						<g>
							<path style="fill:#E38907;" d="M354.303,248.354l1.741-9.786l7.48-0.245l8.333-46.829l-6.937-2.811l1.75-9.834l7.208,1.283
								l24.249,4.315c8.753,1.558,15.293,4.38,19.621,8.466c4.329,4.087,5.928,9.313,4.795,15.677
								c-0.583,3.278-1.886,6.075-3.907,8.391c-2.021,2.317-4.771,3.854-8.257,4.613c2.662,1.098,4.738,2.526,6.231,4.286
								c1.492,1.759,2.469,3.739,2.932,5.939s0.481,4.493,0.057,6.879c-1.212,6.811-4.402,11.546-9.569,14.204
								c-5.17,2.66-12.082,3.219-20.737,1.679L354.303,248.354z M380.535,239.872l11.027,1.962c3.31,0.589,5.916,0.38,7.818-0.627
								s3.092-2.848,3.568-5.521c0.356-2.005,0.334-3.724-0.067-5.159c-0.401-1.433-1.212-2.596-2.433-3.486
								c-1.22-0.89-2.913-1.528-5.077-1.913l-11.839-2.107L380.535,239.872z M385.504,211.947l6.779,1.207
								c3.944,0.702,7.01,0.6,9.19-0.31c2.181-0.908,3.506-2.684,3.976-5.326c0.516-2.895-0.024-5.167-1.619-6.813
								s-4.254-2.8-7.978-3.463l-7.494-1.333L385.504,211.947z"/>
						</g>
					</g>
				</g>
			</g>
		</g>
		<g>
			<path style="fill:#EE2F24;" d="M319.893,374.627l-38.667-6.68c-7.42-1.282-12.396-8.336-11.114-15.756l0,0
				c1.282-7.42,8.336-12.396,15.756-11.114l38.667,6.68c7.42,1.282,12.396,8.336,11.114,15.756l0,0
				C334.367,370.933,327.313,375.909,319.893,374.627z"/>
			<g>
				<g>
					<path style="fill:#FFFFFF;" d="M284.256,361.733l0.273-1.578l1.205-0.046l1.305-7.553l-1.12-0.446l0.274-1.586l1.162,0.2
						l3.911,0.676c1.411,0.244,2.467,0.693,3.168,1.348c0.7,0.655,0.963,1.496,0.785,2.522c-0.091,0.528-0.299,0.98-0.623,1.354
						c-0.324,0.376-0.766,0.625-1.327,0.751c0.43,0.175,0.766,0.402,1.007,0.685c0.242,0.283,0.401,0.602,0.478,0.955
						c0.076,0.354,0.081,0.724,0.015,1.108c-0.189,1.099-0.7,1.864-1.53,2.297c-0.831,0.432-1.944,0.528-3.34,0.287L284.256,361.733
						z M288.475,360.344l1.779,0.308c0.533,0.092,0.953,0.057,1.259-0.107c0.306-0.164,0.496-0.461,0.571-0.893
						c0.056-0.323,0.05-0.602-0.016-0.831c-0.066-0.23-0.197-0.418-0.395-0.56c-0.198-0.143-0.471-0.244-0.819-0.305l-1.91-0.33
						L288.475,360.344z M289.254,355.84l1.093,0.189c0.636,0.109,1.13,0.092,1.481-0.058c0.351-0.148,0.563-0.435,0.636-0.861
						c0.081-0.467-0.008-0.832-0.267-1.096s-0.688-0.447-1.288-0.552l-1.209-0.209L289.254,355.84z"/>
					<path style="fill:#FFFFFF;" d="M300.449,364.696c-0.965-0.167-1.779-0.466-2.441-0.901c-0.662-0.434-1.137-0.984-1.423-1.652
						c-0.286-0.668-0.354-1.437-0.205-2.303l0.951-5.505l-1.112-0.445l0.274-1.586l5.02,0.867l-0.274,1.586l-1.205,0.045
						l-0.951,5.505c-0.078,0.451-0.063,0.838,0.045,1.162c0.107,0.322,0.302,0.582,0.583,0.778c0.28,0.195,0.639,0.331,1.075,0.407
						c0.451,0.077,0.843,0.07,1.173-0.02c0.33-0.091,0.599-0.271,0.807-0.538c0.207-0.269,0.351-0.628,0.428-1.079l0.951-5.505
						l-1.112-0.446l0.274-1.586l5.02,0.867l-0.274,1.586l-1.205,0.046l-0.951,5.505c-0.146,0.852-0.473,1.544-0.977,2.078
						c-0.505,0.533-1.14,0.896-1.905,1.09S301.393,364.859,300.449,364.696z"/>
					<path style="fill:#FFFFFF;" d="M309.922,366.166l0.273-1.578l1.205-0.045l0.323-1.871l-2.253-6.328l-1.143-0.363l0.274-1.586
						l4.85,0.838l-0.273,1.586l-0.715,0.004l1.01,3.337l0.108,0.423l0.069,0.013l0.249-0.338l2.336-2.783l-1.148-0.325l0.273-1.586
						l4.758,0.822l-0.274,1.586l-1.213-0.044l-4.177,4.995l-0.36,2.087l1.127,0.448l-0.272,1.578L309.922,366.166z"/>
				</g>
			</g>
		</g>
		<g>
			<path style="fill:#E38907;" d="M433.72,395.758l-38.667-6.68c-7.42-1.282-12.396-8.336-11.114-15.756l0,0
				c1.282-7.42,8.336-12.396,15.756-11.114l38.667,6.68c7.42,1.282,12.396,8.336,11.114,15.756v0
				C448.195,392.064,441.14,397.04,433.72,395.758z"/>
			<g>
				<g>
					<path style="fill:#FFFFFF;" d="M399.018,383.191c-0.914-0.157-1.71-0.385-2.388-0.682c-0.679-0.296-1.327-0.747-1.947-1.352
						l0.503-2.909l2.087,0.361l-0.027,1.532c0.132,0.213,0.396,0.419,0.789,0.616c0.395,0.198,0.838,0.339,1.33,0.424
						c0.344,0.06,0.639,0.067,0.885,0.022c0.245-0.045,0.44-0.14,0.588-0.283c0.146-0.145,0.239-0.331,0.279-0.562
						c0.038-0.221,0.017-0.429-0.063-0.623c-0.08-0.192-0.232-0.389-0.457-0.59c-0.224-0.2-0.535-0.418-0.933-0.656
						c-0.907-0.474-1.641-0.922-2.201-1.347c-0.562-0.426-0.954-0.882-1.179-1.37c-0.226-0.488-0.281-1.055-0.17-1.702
						c0.107-0.62,0.378-1.133,0.813-1.536c0.435-0.404,0.985-0.685,1.652-0.844c0.667-0.16,1.402-0.179,2.206-0.056
						c0.916,0.137,1.709,0.367,2.377,0.692c0.668,0.324,1.236,0.737,1.705,1.241l-0.467,2.702l-2.002-0.346l-0.057-1.556
						c-0.159-0.118-0.395-0.239-0.705-0.368c-0.312-0.127-0.649-0.223-1.014-0.285c-0.313-0.055-0.599-0.062-0.856-0.021
						s-0.472,0.13-0.641,0.271c-0.17,0.14-0.276,0.333-0.318,0.579c-0.035,0.199-0.007,0.389,0.085,0.565
						c0.09,0.178,0.271,0.368,0.542,0.577s0.654,0.461,1.153,0.759c1.208,0.594,2.093,1.229,2.655,1.905s0.761,1.496,0.594,2.461
						c-0.114,0.662-0.391,1.194-0.831,1.597c-0.439,0.403-1.001,0.671-1.685,0.804C400.637,383.345,399.87,383.338,399.018,383.191z
						"/>
					<path style="fill:#FFFFFF;" d="M403.934,383.874l0.273-1.578l1.204-0.045l1.305-7.553l-1.119-0.447l0.273-1.586l8.953,1.547
						l-0.559,3.233l-2.04-0.353l0.139-1.166l-2.987-0.516l-0.398,2.302l3.58,0.618l-0.357,2.071l-3.58-0.618l-0.462,2.672
						l3.134,0.541l0.271-1.198l2.017,0.349l-0.569,3.295L403.934,383.874z"/>
					<path style="fill:#FFFFFF;" d="M414.004,385.614l0.273-1.578l1.197-0.046l1.305-7.553l-1.112-0.446l0.273-1.586l1.155,0.2
						l2.748,0.475l3.256,7.951l0.047,0.009l0.923-5.344l-1.428-0.5l0.273-1.586l3.865,0.668l1.162,0.201l-0.273,1.586l-1.205,0.045
						l-1.62,9.377l-2.664-0.46l-3.367-7.813l-0.047-0.008l-0.897,5.197l1.436,0.502l-0.272,1.578L414.004,385.614z"/>
					<path style="fill:#FFFFFF;" d="M428.884,388.185l0.273-1.578l1.213-0.044l1.259-7.291l-1.731-0.299l-0.278,1.196l-2.04-0.353
						l0.57-3.303l10.416,1.8l-0.57,3.303l-2.063-0.356l0.147-1.22l-1.748-0.302l-1.259,7.291l1.127,0.448l-0.272,1.578
						L428.884,388.185z"/>
				</g>
			</g>
		</g>
		<path style="fill:#FEFEFE;" d="M316.05,396.113l26.637,4.581l-26.615-4.592C316.066,396.106,316.058,396.11,316.05,396.113"/>
	</g>
</g>
</svg>
