<?xml version="1.0" encoding="utf-8"?>
<!-- Generator: Adobe Illustrator 27.5.0, SVG Export Plug-In . SVG Version: 6.00 Build 0)  -->
<svg version="1.1" xmlns="http://www.w3.org/2000/svg" xmlns:xlink="http://www.w3.org/1999/xlink" x="0px" y="0px"
	 viewBox="0 0 750 500" style="enable-background:new 0 0 750 500;" xml:space="preserve">
<g id="BACKGROUND">
	<rect style="fill:#FFFFFF;" width="750" height="500"/>
</g>
<g id="OBJECTS">
	<g>
		<path style="fill:#E6E6FF;" d="M193.417,264.638c8.356-18.335,10.128-40.44,13.445-60.842c4.973-30.59,15.875-61.98,39.594-81.927
			c23.719-19.946,62.855-23.763,84.473-1.557c13.511,13.878,17.635,34.206,27.543,50.85c13.134,22.061,37.222,37.221,62.793,39.518
			c24.359,2.189,48.227-6.574,71.074-15.303c22.847-8.729,46.576-17.718,70.974-16.002c24.397,1.716,49.669,17.464,53.942,41.545
			c3.756,21.169-9.117,42.794-4.851,63.866c6.275,30.994,44.061,43.425,62.528,69.095c15.486,21.527,16.26,59.035,0.338,80.242
			H98.032c-23.584-16.414-43.971-40.818-47.305-69.358c-3.334-28.54,10.71-59.601,36.651-71.958
			c15.967-7.606,34.286-7.768,51.869-9.68C156.829,281.217,186.082,280.732,193.417,264.638z"/>
		<g>
			<g>
				<defs>
					
						<ellipse id="SVGID_3_" transform="matrix(0.9924 -0.1233 0.1233 0.9924 -44.5946 70.8315)" cx="549.988" cy="395.719" rx="38.336" ry="38.336"/>
				</defs>
				<clipPath id="SVGID_00000173131838550076384780000013385829873271920806_">
					<use xlink:href="#SVGID_3_"  style="overflow:visible;"/>
				</clipPath>
				
					<ellipse transform="matrix(0.9924 -0.1233 0.1233 0.9924 -44.5946 70.8315)" style="clip-path:url(#SVGID_00000173131838550076384780000013385829873271920806_);fill:#FFD000;" cx="549.988" cy="395.719" rx="38.336" ry="38.336"/>
				<path style="clip-path:url(#SVGID_00000173131838550076384780000013385829873271920806_);fill:#FFAA00;" d="M581.526,395.413
					c0.169,17.418-13.814,31.675-31.232,31.844c-17.418,0.169-31.675-13.813-31.844-31.232
					c-0.169-17.418,13.814-31.675,31.232-31.844C567.099,364.012,581.357,377.995,581.526,395.413z"/>
				<g style="clip-path:url(#SVGID_00000173131838550076384780000013385829873271920806_);">
					<g>
						<path style="fill:#FFD000;" d="M538.703,405.899l3.568-3.593c1.054,1.335,2.088,2.337,3.1,3.008
							c1.012,0.67,2.068,1.051,3.168,1.14l-0.092-9.505c-3.334-0.676-5.794-1.751-7.377-3.226c-1.585-1.475-2.389-3.428-2.412-5.858
							c-0.025-2.546,0.816-4.598,2.523-6.156c1.706-1.557,4.071-2.43,7.093-2.618l-0.029-3.016l2.756-0.027l0.029,3.017
							c1.838,0.156,3.51,0.61,5.015,1.362c1.505,0.753,2.915,1.838,4.231,3.258l-3.48,3.723c-0.85-1.164-1.738-2.041-2.662-2.632
							c-0.924-0.591-1.944-0.925-3.059-1.002l0.084,8.637c3.668,0.876,6.292,2.072,7.869,3.592c1.578,1.518,2.379,3.586,2.404,6.204
							c0.026,2.691-0.868,4.86-2.682,6.504c-1.815,1.646-4.283,2.52-7.408,2.622l0.043,4.405l-2.757,0.027l-0.043-4.405
							c-2.085-0.182-3.942-0.724-5.571-1.628C541.387,408.83,539.949,407.552,538.703,405.899z M548.395,391.503l-0.077-7.92
							c-1.548,0.088-2.723,0.461-3.526,1.12c-0.805,0.659-1.2,1.574-1.189,2.746c0.011,1.128,0.389,2.007,1.133,2.636
							C545.479,390.715,546.699,391.187,548.395,391.503z M551.298,406.581c1.605-0.016,2.818-0.364,3.636-1.044
							c0.818-0.681,1.221-1.68,1.208-2.996c-0.013-1.331-0.403-2.361-1.169-3.092c-0.767-0.731-2.02-1.275-3.76-1.635
							L551.298,406.581z"/>
					</g>
				</g>
				
					<path style="clip-path:url(#SVGID_00000173131838550076384780000013385829873271920806_);fill:none;stroke:#FFDF52;stroke-width:3;stroke-miterlimit:10;" d="
					M581.526,395.413c0.169,17.418-13.814,31.675-31.232,31.844c-17.418,0.169-31.675-13.813-31.844-31.232
					c-0.169-17.418,13.814-31.675,31.232-31.844C567.099,364.012,581.357,377.995,581.526,395.413z"/>
				<g style="opacity:0.5;clip-path:url(#SVGID_00000173131838550076384780000013385829873271920806_);">
					
						<rect x="528.076" y="333.722" transform="matrix(0.7139 0.7002 -0.7002 0.7139 421.0905 -266.0432)" style="fill:#FFFFFF;" width="16.152" height="97.247"/>
					
						<rect x="558.271" y="360.144" transform="matrix(0.7139 0.7002 -0.7002 0.7139 447.2916 -277.3477)" style="fill:#FFFFFF;" width="9.643" height="97.248"/>
					
						<rect x="542.925" y="344.132" transform="matrix(0.7139 0.7002 -0.7002 0.7139 431.4248 -270.4991)" style="fill:#FFFFFF;" width="7.683" height="97.247"/>
				</g>
			</g>
			<g>
				<path style="fill:#130A69;" d="M237.228,237.779h275.097c5.461,0,9.238,4.427,8.435,9.888l-25.94,176.533
					c-0.802,5.461-5.88,9.888-11.342,9.888H208.381c-5.461,0-9.238-4.427-8.436-9.888l25.941-176.533
					C226.689,242.206,231.766,237.779,237.228,237.779z"/>
				<g>
					<defs>
						
							<ellipse id="SVGID_2_" transform="matrix(0.9979 -0.065 0.065 0.9979 -25.244 15.9319)" cx="232.127" cy="395.769" rx="38.336" ry="38.336"/>
					</defs>
					<clipPath id="SVGID_00000045592596077629026720000013905411956158921895_">
						<use xlink:href="#SVGID_2_"  style="overflow:visible;"/>
					</clipPath>
					
						<ellipse transform="matrix(0.9979 -0.065 0.065 0.9979 -25.244 15.9319)" style="clip-path:url(#SVGID_00000045592596077629026720000013905411956158921895_);fill:#FFD000;" cx="232.127" cy="395.769" rx="38.336" ry="38.336"/>
					<path style="clip-path:url(#SVGID_00000045592596077629026720000013905411956158921895_);fill:#FFAA00;" d="M263.299,400.565
						c-2.649,17.216-18.753,29.025-35.969,26.376c-17.216-2.649-29.025-18.753-26.376-35.969
						c2.649-17.216,18.753-29.025,35.969-26.376C254.14,367.245,265.949,383.349,263.299,400.565z"/>
					<g style="clip-path:url(#SVGID_00000045592596077629026720000013905411956158921895_);">
						<g>
							<path style="fill:#FFD000;" d="M219.345,403.991l4.102-2.969c0.824,1.488,1.682,2.644,2.573,3.47
								c0.89,0.824,1.871,1.371,2.942,1.638l1.446-9.395c-3.181-1.207-5.434-2.665-6.759-4.377
								c-1.325-1.712-1.803-3.769-1.433-6.171c0.387-2.517,1.549-4.406,3.485-5.667c1.936-1.261,4.41-1.74,7.423-1.437l0.459-2.981
								l2.724,0.419l-0.459,2.982c1.789,0.451,3.366,1.169,4.729,2.155c1.363,0.986,2.58,2.285,3.648,3.899l-4.036,3.112
								c-0.651-1.286-1.385-2.295-2.202-3.028c-0.816-0.733-1.769-1.228-2.856-1.483l-1.314,8.537
								c3.479,1.457,5.874,3.062,7.185,4.817c1.311,1.753,1.768,3.923,1.369,6.511c-0.409,2.66-1.642,4.655-3.698,5.985
								c-2.057,1.331-4.634,1.794-7.734,1.39l-0.67,4.354l-2.725-0.419l0.67-4.354c-2.028-0.517-3.773-1.352-5.235-2.507
								C221.519,407.317,220.307,405.823,219.345,403.991z M231.237,391.351l1.205-7.828c-1.542-0.163-2.761,0.014-3.661,0.535
								c-0.9,0.52-1.439,1.359-1.617,2.518c-0.172,1.115,0.059,2.044,0.692,2.785C228.487,390.102,229.614,390.765,231.237,391.351z
								 M231.664,406.7c1.587,0.244,2.839,0.097,3.757-0.443c0.917-0.54,1.476-1.461,1.676-2.762
								c0.202-1.315-0.016-2.395-0.654-3.241c-0.639-0.845-1.787-1.585-3.446-2.221L231.664,406.7z"/>
						</g>
					</g>
					
						<path style="clip-path:url(#SVGID_00000045592596077629026720000013905411956158921895_);fill:none;stroke:#FFDF52;stroke-width:3;stroke-miterlimit:10;" d="
						M263.299,400.565c-2.649,17.216-18.753,29.025-35.969,26.376c-17.216-2.649-29.025-18.753-26.376-35.969
						c2.649-17.216,18.753-29.025,35.969-26.376C254.14,367.245,265.949,383.349,263.299,400.565z"/>
					<g style="opacity:0.5;clip-path:url(#SVGID_00000045592596077629026720000013905411956158921895_);">
						
							<rect x="212.56" y="331.711" transform="matrix(0.5913 0.8064 -0.8064 0.5913 396.8739 -22.4984)" style="fill:#FFFFFF;" width="16.152" height="97.247"/>
						
							<rect x="238.128" y="362.141" transform="matrix(0.5914 0.8064 -0.8064 0.5914 430.5278 -28.0593)" style="fill:#FFFFFF;" width="9.643" height="97.248"/>
						
							<rect x="225.586" y="343.7" transform="matrix(0.5913 0.8064 -0.8064 0.5913 410.1416 -24.6859)" style="fill:#FFFFFF;" width="7.683" height="97.247"/>
					</g>
				</g>
				<path style="fill:#1A0E90;" d="M544.99,431.39c0.082-0.09,0.164-0.178,0.242-0.271l6.306-7.071l-4.855-2.228l-25.589-174.139
					c-0.803-5.461-5.88-9.888-11.341-9.888H237.155l-2.941-3.924l-5.465,6.139c-0.36,0.333-0.682,0.703-0.976,1.096l-0.027,0.03
					l0.002,0.003c-1.288,1.745-1.897,4.031-1.528,6.544l25.941,176.533c0.803,5.461,5.88,9.888,11.342,9.888h275.097
					c2.566,0,4.751-0.986,6.273-2.588l0.006,0.002L544.99,431.39z"/>
				<path style="fill:#373AC4;" d="M515.766,231.098H240.67c-5.462,0-9.238,4.427-8.436,9.888l25.941,176.533
					c0.802,5.461,5.88,9.888,11.341,9.888h275.097c5.461,0,9.238-4.427,8.435-9.888l-25.94-176.533
					C526.305,235.526,521.228,231.098,515.766,231.098z"/>
				<path style="fill:#4AB7D6;" d="M269.516,420.965c-2.262,0-4.629-2.088-4.966-4.382L238.61,240.05
					c-0.115-0.78,0.028-1.448,0.402-1.881c0.448-0.519,1.149-0.627,1.658-0.627h275.097c2.262,0,4.629,2.089,4.966,4.382
					l25.941,176.533c0.114,0.779-0.028,1.448-0.403,1.881c-0.448,0.519-1.149,0.628-1.658,0.628H269.516z"/>
				<g>
					<path style="fill:#A9ECF4;" d="M285.187,412.604c-2.193,0-4.489-1.751-4.815-3.674l-4.549-26.319
						c-0.111-0.654,0.028-1.214,0.39-1.577c0.434-0.435,1.114-0.526,1.608-0.526h20.135c2.193,0,4.488,1.752,4.815,3.675
						l4.549,26.319c0.111,0.653-0.027,1.214-0.391,1.577c-0.434,0.435-1.114,0.526-1.607,0.526H285.187z"/>
					<g>
						<path style="fill:#FFFFFF;" d="M324.511,300.357c-3.112,0-6.369-2.873-6.832-6.028l-6.454-43.181
							c-0.158-1.073,0.039-1.992,0.554-2.587c0.616-0.714,1.581-0.863,2.281-0.863h-1.635c3.112,0,6.368,2.874,6.832,6.029
							l6.454,43.181c0.157,1.072-0.038,1.992-0.554,2.588c-0.616,0.714-1.581,0.863-2.281,0.863H324.511z"/>
						<path style="fill:#FFFFFF;" d="M336.614,293.104c-2.255,0-4.615-2.082-4.95-4.367l-4.676-31.286
							c-0.114-0.777,0.028-1.443,0.401-1.875c0.446-0.517,1.145-0.626,1.653-0.626h-1.185c2.255,0,4.614,2.082,4.95,4.368
							l4.676,31.286c0.114,0.777-0.028,1.444-0.402,1.875c-0.446,0.517-1.145,0.625-1.652,0.625H336.614z"/>
						<path style="fill:#FFFFFF;" d="M345.531,286.558c-1.481,0-3.031-1.367-3.251-2.869l-3.072-20.551
							c-0.075-0.51,0.018-0.948,0.263-1.231c0.293-0.34,0.752-0.411,1.086-0.411h-0.778c1.481,0,3.031,1.368,3.251,2.869
							l3.072,20.55c0.075,0.51-0.018,0.948-0.264,1.232c-0.293,0.34-0.752,0.411-1.085,0.411H345.531z"/>
					</g>
					<path style="fill:#A9ECF4;" d="M338.974,412.604c-2.193,0-4.488-1.751-4.815-3.674l-7.562-47.71
						c-0.111-0.654,0.027-1.214,0.39-1.577c0.434-0.435,1.114-0.526,1.608-0.526h20.135c2.193,0,4.488,1.752,4.815,3.675
						l7.562,47.71c0.111,0.653-0.027,1.214-0.391,1.577c-0.434,0.435-1.114,0.526-1.607,0.526H338.974z"/>
					<path style="fill:#A9ECF4;" d="M392.76,412.604c-2.193,0-4.488-1.751-4.815-3.674l-14.324-81.247
						c-0.111-0.654,0.027-1.214,0.39-1.577c0.434-0.435,1.114-0.526,1.608-0.526h20.135c2.193,0,4.488,1.752,4.815,3.674
						l14.324,81.247c0.111,0.653-0.027,1.214-0.39,1.577c-0.434,0.435-1.114,0.526-1.608,0.526H392.76z"/>
					<path style="fill:#A9ECF4;" d="M446.547,412.604c-2.194,0-4.489-1.751-4.815-3.674l-17.818-104.476
						c-0.111-0.654,0.027-1.214,0.39-1.577c0.434-0.435,1.114-0.526,1.608-0.526h20.135c2.193,0,4.488,1.751,4.815,3.674
						l17.818,104.476c0.111,0.653-0.027,1.214-0.391,1.577c-0.434,0.435-1.114,0.526-1.607,0.526H446.547z"/>
					<path style="fill:#A9ECF4;" d="M500.334,412.604c-2.193,0-4.488-1.751-4.815-3.674l-22.776-133.05
						c-0.111-0.654,0.027-1.214,0.39-1.577c0.434-0.435,1.114-0.526,1.608-0.526h20.135c2.193,0,4.488,1.752,4.815,3.674
						l22.776,133.05c0.111,0.653-0.027,1.214-0.391,1.577c-0.434,0.435-1.114,0.526-1.607,0.526H500.334z"/>
					<path style="fill:#FF7CB7;" d="M404.011,256.967l-12.461,4.046l8.994,6.768c-23.088,34.761-56.815,52.398-81.086,61.074
						c-26.499,9.471-47.821,10.642-48.139,10.658c-0.001,0-0.001,0-0.002,0l0.18,3.677l0.178,3.678
						c0.905-0.044,22.479-1.186,50.03-10.996c25.315-9.014,60.477-27.373,84.73-63.658l9.164,6.896l0.438-13.095l0.437-13.095
						L404.011,256.967z"/>
					<path style="fill:#FFFFFF;" d="M509.025,248.204h-55.549c-0.991,0-1.794-0.803-1.794-1.794l0,0
						c0-0.991,0.803-1.794,1.794-1.794h55.549c0.991,0,1.794,0.803,1.794,1.794l0,0
						C510.819,247.401,510.016,248.204,509.025,248.204z"/>
					<path style="fill:#FFFFFF;" d="M509.95,254.714h-55.549c-0.99,0-1.793-0.803-1.793-1.794l0,0c0-0.991,0.803-1.794,1.793-1.794
						h55.549c0.991,0,1.794,0.803,1.794,1.794l0,0C511.743,253.911,510.94,254.714,509.95,254.714z"/>
					<path style="fill:#FFFFFF;" d="M510.874,261.224h-55.549c-0.991,0-1.794-0.803-1.794-1.793l0,0
						c0-0.991,0.803-1.794,1.794-1.794h55.549c0.991,0,1.793,0.803,1.793,1.794l0,0
						C512.668,260.421,511.865,261.224,510.874,261.224z"/>
					<path style="fill:#FF7CB7;" d="M294.073,277.451c0,11.405-9.246,20.651-20.651,20.651c-11.405,0-20.651-9.246-20.651-20.651
						c0-11.405,9.246-20.651,20.651-20.651v20.651H294.073z"/>
					<path style="fill:#FF4298;" d="M276.219,253.983v20.651h20.651C296.87,263.228,287.624,253.983,276.219,253.983z"/>
				</g>
				<g>
					<defs>
						<path id="SVGID_1_" d="M269.516,420.965c-2.262,0-4.629-2.088-4.966-4.382L238.61,240.05c-0.115-0.78,0.028-1.448,0.402-1.881
							c0.448-0.519,1.149-0.627,1.658-0.627h275.097c2.262,0,4.629,2.089,4.966,4.382l25.941,176.533
							c0.114,0.779-0.028,1.448-0.403,1.881c-0.448,0.519-1.149,0.628-1.658,0.628H269.516z"/>
					</defs>
					<clipPath id="SVGID_00000056411014734380727280000013798270319982114204_">
						<use xlink:href="#SVGID_1_"  style="overflow:visible;"/>
					</clipPath>
					<g style="opacity:0.3;clip-path:url(#SVGID_00000056411014734380727280000013798270319982114204_);">
						
							<rect x="259.479" y="136.648" transform="matrix(0.7071 0.7071 -0.7071 0.7071 288.8572 -125.7958)" style="fill:#A9ECF4;" width="73.598" height="298.272"/>
						
							<rect x="428.174" y="199.202" transform="matrix(0.7071 0.7071 -0.7071 0.7071 378.7601 -217.7315)" style="fill:#A9ECF4;" width="48.062" height="298.272"/>
						
							<rect x="479.451" y="235.709" transform="matrix(0.7071 0.7071 -0.7071 0.7071 415.263 -232.8529)" style="fill:#A9ECF4;" width="18.523" height="298.273"/>
						
							<rect x="354.404" y="139.499" transform="matrix(0.7071 0.7071 -0.7071 0.7071 331.4308 -166.699)" style="fill:#A9ECF4;" width="25.069" height="354.448"/>
					</g>
				</g>
			</g>
			<g>
				<path style="fill:#1A0E90;" d="M210.294,251.924c-0.768-5.272-5.664-9.546-10.936-9.546H62.141
					c-5.272,0-8.923,4.274-8.155,9.546l0.029,0.203h156.308L210.294,251.924z"/>
				<path style="fill:#ADAEED;" d="M54.016,252.127l11.531,79.148c0.768,5.272,5.664,9.546,10.936,9.546H213.7
					c5.272,0,8.923-4.274,8.155-9.546l-11.531-79.148H54.016z"/>
				<path style="fill:#FFFFFF;" d="M79.702,313.909c-0.435-0.517-1.03-0.898-1.785-1.143c0.594-0.314,1.009-0.687,1.246-1.118
					c0.237-0.431,0.31-0.955,0.22-1.572c-0.161-1.102-0.648-1.941-1.463-2.518c-0.8-0.566-1.881-0.853-3.238-0.863l-0.243-1.664
					l-1.104,0l0.242,1.662l-1.248,0l-0.242-1.662l-1.104,0l0.242,1.662l-1.243,0l1.859,12.752l1.242,0l0.221,1.516l1.104,0
					l-0.221-1.516l1.248,0l0.221,1.516l1.104,0l-0.222-1.52c1.484-0.024,2.561-0.316,3.219-0.882
					c0.688-0.591,0.943-1.489,0.768-2.694C80.412,315.077,80.137,314.425,79.702,313.909z M77.04,310.222
					c0.076,0.525-0.052,0.919-0.384,1.182c-0.333,0.263-0.873,0.394-1.621,0.394l-1.961,0l-0.458-3.143l1.824,0
					c0.839,0,1.463,0.124,1.87,0.372C76.717,309.275,76.96,309.674,77.04,310.222z M77.694,317.026
					c-0.352,0.306-0.962,0.458-1.83,0.458l-1.961,0l-0.551-3.777l2.073,0c0.805,0,1.425,0.154,1.862,0.462
					c0.436,0.308,0.699,0.774,0.79,1.396C78.174,316.234,78.046,316.721,77.694,317.026z"/>
				<g>
					<path style="fill:#F7F7FF;" d="M201.49,247.253c0.208,1.424-0.779,2.579-2.203,2.579c-1.424,0-2.747-1.155-2.955-2.579
						c-0.208-1.424,0.779-2.579,2.203-2.579C199.96,244.674,201.283,245.828,201.49,247.253z"/>
					<path style="fill:#F7F7FF;" d="M192.621,247.253c0.208,1.424-0.779,2.579-2.203,2.579c-1.424,0-2.747-1.155-2.955-2.579
						c-0.207-1.424,0.779-2.579,2.203-2.579C191.09,244.674,192.413,245.828,192.621,247.253z"/>
					<path style="fill:#F7F7FF;" d="M183.751,247.253c0.208,1.424-0.779,2.579-2.203,2.579c-1.424,0-2.747-1.155-2.955-2.579
						c-0.208-1.424,0.779-2.579,2.203-2.579C182.221,244.674,183.544,245.828,183.751,247.253z"/>
				</g>
				<g>
					<path style="fill:#FFFFFF;" d="M194.879,328.428h-18.581c-2.652-18.203-19.618-33.012-37.821-33.012
						c-18.203,0-30.855,14.809-28.203,33.012H91.692c-4.145-28.449,15.628-51.594,44.077-51.594
						C164.218,276.835,190.734,299.979,194.879,328.428z"/>
				</g>
				<path style="fill:#FFD000;" d="M194.883,328.426h-18.582c-1.438-9.871-7.091-18.752-14.863-24.806l10.215-13.959
					C183.801,299.129,192.635,312.996,194.883,328.426z"/>
				<line style="fill:none;stroke:#1A0E90;stroke-miterlimit:10;" x1="78.922" y1="328.428" x2="207.65" y2="328.428"/>
				
					<line style="fill:none;stroke:#1A0E90;stroke-linecap:round;stroke-linejoin:round;stroke-miterlimit:10;" x1="143.286" y1="328.428" x2="183.807" y2="273.041"/>
				<path style="fill:#4145E7;" d="M147.59,327.928c0.312,2.141-1.171,3.876-3.311,3.876c-2.141,0-4.129-1.735-4.441-3.876
					c-0.312-2.141,1.171-3.876,3.312-3.876C145.29,324.052,147.278,325.788,147.59,327.928z"/>
				<path style="fill:#1A0E90;" d="M145.863,327.928c0.173,1.187-0.649,2.149-1.836,2.149s-2.289-0.962-2.462-2.149
					c-0.173-1.187,0.649-2.149,1.836-2.149C144.587,325.779,145.69,326.741,145.863,327.928z"/>
				<g>
					<path style="fill:#FFFFFF;" d="M87.06,260.859H63.612c-0.819,0-1.579-0.664-1.698-1.482l-0.056-0.386
						c-0.119-0.819,0.448-1.482,1.266-1.482h23.449c0.819,0,1.579,0.664,1.698,1.482l0.056,0.386
						C88.446,260.195,87.879,260.859,87.06,260.859z"/>
					<path style="fill:#FFFFFF;" d="M87.911,266.695H64.462c-0.819,0-1.579-0.664-1.698-1.482l-0.056-0.386
						c-0.119-0.819,0.448-1.482,1.266-1.482h23.449c0.819,0,1.579,0.664,1.699,1.482l0.056,0.386
						C89.296,266.031,88.729,266.695,87.911,266.695z"/>
					<path style="fill:#FFFFFF;" d="M88.761,272.532H65.312c-0.819,0-1.579-0.664-1.698-1.482l-0.056-0.386
						c-0.119-0.819,0.448-1.482,1.267-1.482h23.448c0.819,0,1.579,0.664,1.698,1.482l0.056,0.386
						C90.147,271.868,89.58,272.532,88.761,272.532z"/>
				</g>
				<g>
					<g>
						<path style="fill:#1A0E90;" d="M201.368,316.047l1.21-1.404c0.488,0.528,0.95,0.926,1.385,1.193
							c0.435,0.267,0.872,0.419,1.311,0.458l-0.554-3.741c-1.35-0.276-2.378-0.706-3.082-1.291
							c-0.704-0.585-1.128-1.356-1.269-2.312c-0.148-1.002,0.071-1.807,0.658-2.415c0.587-0.608,1.471-0.945,2.651-1.011
							l-0.176-1.187l1.084-0.003l0.176,1.187c0.733,0.067,1.417,0.25,2.05,0.55c0.634,0.3,1.248,0.731,1.844,1.294l-1.168,1.455
							c-0.398-0.46-0.796-0.808-1.193-1.044c-0.396-0.235-0.816-0.37-1.259-0.403l0.504,3.399c1.493,0.355,2.592,0.834,3.296,1.436
							c0.704,0.602,1.133,1.418,1.285,2.449c0.157,1.059-0.077,1.91-0.702,2.552c-0.625,0.642-1.55,0.979-2.775,1.011l0.257,1.734
							l-1.084,0.003l-0.257-1.734c-0.831-0.078-1.593-0.296-2.283-0.656C202.585,317.207,201.949,316.7,201.368,316.047z
							 M204.402,310.409l-0.462-3.117c-0.605,0.03-1.047,0.174-1.328,0.431c-0.281,0.257-0.387,0.616-0.318,1.077
							c0.066,0.444,0.262,0.791,0.59,1.041C203.21,310.09,203.716,310.28,204.402,310.409z M206.367,316.35
							c0.632-0.002,1.09-0.135,1.376-0.401c0.285-0.266,0.389-0.657,0.313-1.176c-0.078-0.524-0.288-0.93-0.629-1.22
							c-0.342-0.29-0.865-0.508-1.57-0.654L206.367,316.35z"/>
					</g>
				</g>
			</g>
			<g>
				<path style="fill:#1A0E90;" d="M542.785,141.769c-0.672-4.609-4.952-8.346-9.561-8.346H413.255c-4.609,0-7.801,3.737-7.13,8.346
					l0.026,0.177h136.66L542.785,141.769z"/>
				<path style="fill:#ADAEED;" d="M406.151,141.946l10.081,69.199c0.671,4.609,4.952,8.346,9.562,8.346h119.968
					c4.609,0,7.801-3.736,7.13-8.346l-10.081-69.199H406.151z"/>
				<g>
					<path style="fill:#F7F7FF;" d="M535.087,137.685c0.181,1.245-0.681,2.255-1.926,2.255s-2.402-1.01-2.583-2.255
						c-0.181-1.245,0.681-2.255,1.927-2.255S534.906,136.44,535.087,137.685z"/>
					<path style="fill:#F7F7FF;" d="M527.333,137.685c0.182,1.245-0.681,2.255-1.926,2.255c-1.245,0-2.402-1.01-2.583-2.255
						c-0.181-1.245,0.681-2.255,1.926-2.255C525.995,135.43,527.151,136.44,527.333,137.685z"/>
					<path style="fill:#F7F7FF;" d="M519.578,137.685c0.181,1.245-0.681,2.255-1.926,2.255s-2.402-1.01-2.583-2.255
						c-0.181-1.245,0.681-2.255,1.926-2.255S519.397,136.44,519.578,137.685z"/>
				</g>
				
					<line style="fill:none;stroke:#FFFFFF;stroke-width:0.75;stroke-linecap:round;stroke-linejoin:round;stroke-miterlimit:10;" x1="416.515" y1="148.2" x2="425.523" y2="210.033"/>
				<path style="fill:#1A0E90;" d="M421.464,171.977h-2.97c-0.714,0-1.378-0.579-1.482-1.293l-1.968-13.508
					c-0.104-0.714,0.391-1.293,1.105-1.293h2.97c0.714,0,1.378,0.579,1.482,1.293l1.968,13.508
					C422.673,171.398,422.178,171.977,421.464,171.977z"/>
				
					<line style="fill:none;stroke:#FFFFFF;stroke-width:0.75;stroke-linecap:round;stroke-linejoin:round;stroke-miterlimit:10;" x1="429.551" y1="148.2" x2="438.559" y2="210.033"/>
				<path style="fill:#1A0E90;" d="M435.672,180.024h-2.97c-0.714,0-1.378-0.579-1.482-1.293l-1.968-13.508
					c-0.104-0.714,0.391-1.293,1.105-1.293h2.97c0.714,0,1.378,0.579,1.482,1.293l1.968,13.508
					C436.881,179.445,436.387,180.024,435.672,180.024z"/>
				
					<line style="fill:none;stroke:#FFFFFF;stroke-width:0.75;stroke-linecap:round;stroke-linejoin:round;stroke-miterlimit:10;" x1="442.588" y1="148.2" x2="451.596" y2="210.033"/>
				<path style="fill:#1A0E90;" d="M450.095,189.539h-2.97c-0.714,0-1.378-0.579-1.482-1.293l-1.968-13.508
					c-0.104-0.714,0.391-1.293,1.105-1.293h2.97c0.714,0,1.378,0.579,1.482,1.293l1.968,13.508
					C451.304,188.96,450.809,189.539,450.095,189.539z"/>
				
					<line style="fill:none;stroke:#FFFFFF;stroke-width:0.75;stroke-linecap:round;stroke-linejoin:round;stroke-miterlimit:10;" x1="455.624" y1="148.2" x2="464.632" y2="210.033"/>
				<path style="fill:#1A0E90;" d="M464.646,199.939h-2.97c-0.714,0-1.378-0.579-1.482-1.293l-1.968-13.507
					c-0.104-0.714,0.391-1.293,1.105-1.293h2.97c0.714,0,1.378,0.579,1.482,1.293l1.968,13.507
					C465.855,199.36,465.36,199.939,464.646,199.939z"/>
				
					<line style="fill:none;stroke:#FFFFFF;stroke-width:0.75;stroke-linecap:round;stroke-linejoin:round;stroke-miterlimit:10;" x1="468.66" y1="148.2" x2="477.668" y2="210.033"/>
				<path style="fill:#1A0E90;" d="M476.648,192.835h-2.97c-0.714,0-1.378-0.579-1.482-1.293l-1.968-13.507
					c-0.104-0.714,0.391-1.293,1.105-1.293h2.97c0.714,0,1.377,0.579,1.482,1.293l1.968,13.507
					C477.856,192.257,477.362,192.835,476.648,192.835z"/>
				
					<line style="fill:none;stroke:#FFFFFF;stroke-width:0.75;stroke-linecap:round;stroke-linejoin:round;stroke-miterlimit:10;" x1="481.696" y1="148.2" x2="490.704" y2="210.033"/>
				<path style="fill:#1A0E90;" d="M488.031,181.492h-2.97c-0.714,0-1.378-0.579-1.482-1.293l-1.968-13.508
					c-0.104-0.714,0.391-1.293,1.105-1.293h2.97c0.714,0,1.378,0.579,1.482,1.293l1.968,13.508
					C489.24,180.913,488.745,181.492,488.031,181.492z"/>
				
					<line style="fill:none;stroke:#FFFFFF;stroke-width:0.75;stroke-linecap:round;stroke-linejoin:round;stroke-miterlimit:10;" x1="494.733" y1="148.2" x2="503.74" y2="210.033"/>
				<path style="fill:#1A0E90;" d="M499.511,170.809h-2.97c-0.714,0-1.377-0.579-1.482-1.293l-1.968-13.508
					c-0.104-0.714,0.391-1.293,1.105-1.293h2.97c0.714,0,1.378,0.579,1.482,1.293l1.968,13.508
					C500.72,170.23,500.225,170.809,499.511,170.809z"/>
				
					<line style="fill:none;stroke:#FFFFFF;stroke-width:0.75;stroke-linecap:round;stroke-linejoin:round;stroke-miterlimit:10;" x1="507.769" y1="148.2" x2="516.777" y2="210.033"/>
				<path style="fill:#1A0E90;" d="M513.617,178.151h-2.97c-0.714,0-1.378-0.579-1.482-1.293l-1.968-13.508
					c-0.104-0.714,0.391-1.293,1.105-1.293h2.97c0.714,0,1.377,0.579,1.482,1.293l1.968,13.508
					C514.826,177.572,514.331,178.151,513.617,178.151z"/>
				
					<line style="fill:none;stroke:#FFFFFF;stroke-width:0.75;stroke-linecap:round;stroke-linejoin:round;stroke-miterlimit:10;" x1="520.805" y1="148.2" x2="529.813" y2="210.033"/>
				<path style="fill:#1A0E90;" d="M528.2,188.766h-2.97c-0.714,0-1.377-0.579-1.482-1.293l-1.968-13.508
					c-0.104-0.714,0.391-1.293,1.105-1.293h2.97c0.714,0,1.378,0.579,1.482,1.293l1.968,13.508
					C529.409,188.187,528.914,188.766,528.2,188.766z"/>
				
					<line style="fill:none;stroke:#FFFFFF;stroke-width:0.75;stroke-linecap:round;stroke-linejoin:round;stroke-miterlimit:10;" x1="533.841" y1="148.2" x2="542.849" y2="210.033"/>
				<path style="fill:#1A0E90;" d="M539.792,178.856h-2.97c-0.714,0-1.378-0.579-1.482-1.293l-1.968-13.508
					c-0.104-0.714,0.391-1.293,1.105-1.293h2.97c0.714,0,1.378,0.579,1.482,1.293l1.968,13.508
					C541.001,178.277,540.506,178.856,539.792,178.856z"/>
			</g>
			<g>
				<g>
					<path style="fill:#FFD000;" d="M647.807,260.785c-0.506-3.473-3.732-6.289-7.205-6.289h-90.397
						c-3.473,0-5.878,2.816-5.372,6.289l0.019,0.133h102.974L647.807,260.785z"/>
					<path style="fill:#130A69;" d="M544.853,260.919l7.596,52.142c0.506,3.473,3.732,6.289,7.205,6.289h90.397
						c3.473,0,5.878-2.816,5.372-6.289l-7.596-52.142H544.853z"/>
					<g>
						<path style="fill:#F7F7FF;" d="M642.007,257.708c0.137,0.938-0.513,1.699-1.452,1.699c-0.938,0-1.81-0.761-1.947-1.699
							c-0.137-0.938,0.513-1.699,1.452-1.699C640.999,256.009,641.871,256.77,642.007,257.708z"/>
						<path style="fill:#F7F7FF;" d="M636.164,257.708c0.137,0.938-0.513,1.699-1.452,1.699c-0.938,0-1.81-0.761-1.946-1.699
							c-0.137-0.938,0.513-1.699,1.451-1.699C635.156,256.009,636.027,256.77,636.164,257.708z"/>
						<path style="fill:#F7F7FF;" d="M630.321,257.708c0.137,0.938-0.513,1.699-1.452,1.699c-0.938,0-1.81-0.761-1.947-1.699
							c-0.137-0.938,0.513-1.699,1.451-1.699S630.184,256.77,630.321,257.708z"/>
					</g>
				</g>
				<g>
					
						<polyline style="fill:none;stroke:#FFFFFF;stroke-width:0.75;stroke-linecap:round;stroke-linejoin:round;stroke-miterlimit:10;" points="
						555.231,276.809 570.174,294.568 577.667,280.225 589.554,295.026 603.449,268.228 625.054,294.839 633.186,285.147 
						644.49,295.976 					"/>
					<path style="fill:#FFFFFF;" d="M558.695,277.475c0.188,1.291-0.706,2.338-1.998,2.338c-1.291,0-2.491-1.047-2.679-2.338
						c-0.188-1.291,0.706-2.338,1.998-2.338S558.507,276.184,558.695,277.475z"/>
					<path style="fill:#FFFFFF;" d="M572.423,294.254c0.552,1.647-0.659,3.065-2.352,2.753c-0.94-0.173-1.798-0.922-2.105-1.837
						c-0.552-1.647,0.659-3.065,2.352-2.753C571.258,292.59,572.116,293.338,572.423,294.254z"/>
					<path style="fill:#FFFFFF;" d="M579.873,280.839c0.188,1.291-0.706,2.338-1.998,2.338c-1.291,0-2.491-1.047-2.679-2.338
						c-0.188-1.291,0.706-2.338,1.998-2.338S579.685,279.548,579.873,280.839z"/>
					<path style="fill:#FFFFFF;" d="M591.919,295.212c0.188,1.292-0.706,2.338-1.998,2.338c-1.291,0-2.491-1.047-2.679-2.338
						c-0.188-1.291,0.706-2.338,1.998-2.338S591.731,293.92,591.919,295.212z"/>
					<path style="fill:#FFFFFF;" d="M605.665,268.228c0.188,1.291-0.706,2.338-1.998,2.338c-1.292,0-2.491-1.047-2.679-2.338
						c-0.188-1.292,0.706-2.338,1.998-2.338C604.278,265.889,605.477,266.936,605.665,268.228z"/>
					<path style="fill:#FFFFFF;" d="M627.492,295.026c0.188,1.291-0.706,2.338-1.998,2.338s-2.491-1.047-2.679-2.338
						c-0.188-1.291,0.706-2.338,1.998-2.338C626.105,292.687,627.304,293.734,627.492,295.026z"/>
					<path style="fill:#FFFFFF;" d="M635.473,284.771c0.188,1.291-0.706,2.338-1.998,2.338c-1.291,0-2.491-1.047-2.679-2.338
						c-0.188-1.291,0.706-2.338,1.998-2.338C634.086,282.433,635.285,283.48,635.473,284.771z"/>
					<path style="fill:#FFFFFF;" d="M647.236,295.976c0.188,1.291-0.706,2.338-1.998,2.338c-1.291,0-2.491-1.047-2.679-2.338
						c-0.188-1.291,0.706-2.338,1.998-2.338C645.848,293.637,647.047,294.684,647.236,295.976z"/>
				</g>
				<g>
					<polygon style="fill:#FFFFFF;" points="561.91,304.112 557.153,304.112 558.729,314.933 563.486,314.933 					"/>
					<polygon style="fill:#FFFFFF;" points="570.109,306.601 565.352,306.601 566.566,314.933 571.323,314.933 					"/>
					<polygon style="fill:#FFFFFF;" points="578.466,310.176 573.709,310.176 574.402,314.933 579.159,314.933 					"/>
					<polygon style="fill:#FFFFFF;" points="586.649,312.554 581.892,312.554 582.239,314.933 586.996,314.933 					"/>
					<polygon style="fill:#FFFFFF;" points="594.139,310.176 589.382,310.176 590.075,314.933 594.832,314.933 					"/>
					<polygon style="fill:#FFFFFF;" points="601.507,306.954 596.75,306.954 597.912,314.933 602.669,314.933 					"/>
					<polygon style="fill:#FFFFFF;" points="609.813,310.176 605.055,310.176 605.748,314.933 610.505,314.933 					"/>
					<polygon style="fill:#FFFFFF;" points="617.293,307.732 612.536,307.732 613.585,314.933 618.342,314.933 					"/>
					<polygon style="fill:#FFFFFF;" points="625.572,310.767 620.815,310.767 621.422,314.933 626.179,314.933 					"/>
					<polygon style="fill:#FFFFFF;" points="632.801,306.601 628.044,306.601 629.258,314.933 634.015,314.933 					"/>
					<polygon style="fill:#FFFFFF;" points="640.275,304.112 635.518,304.112 637.095,314.933 641.852,314.933 					"/>
					<polygon style="fill:#FFFFFF;" points="648.763,308.58 644.006,308.58 644.931,314.933 649.688,314.933 					"/>
				</g>
			</g>
			<g>
				<path style="fill:#FF8C00;" d="M678.225,434.146l-69.138,0.043c-1.266,0.001-2.294-1.025-2.294-2.291l-0.004-6.587
					c-0.001-1.266,1.025-2.293,2.291-2.294l69.138-0.043c1.266-0.001,2.293,1.025,2.294,2.291l0.004,6.587
					C680.518,433.118,679.492,434.145,678.225,434.146z"/>
				<path style="fill:#FFAA00;" d="M680.467,433.366l-73.622,0.046c-1.208,0.001-2.188-0.978-2.189-2.186l-0.003-5.24
					c-0.001-1.208,0.978-2.189,2.186-2.189l73.622-0.046c1.208-0.001,2.189,0.978,2.189,2.187l0.003,5.24
					C682.654,432.386,681.675,433.366,680.467,433.366z"/>
				<g>
					<g>
						<rect x="608.928" y="423.793" style="fill:#FFD000;" width="5.107" height="9.616"/>
						<rect x="619.652" y="423.787" style="fill:#FFD000;" width="5.107" height="9.616"/>
						<rect x="630.375" y="423.78" style="fill:#FFD000;" width="5.107" height="9.616"/>
						<rect x="641.099" y="423.773" style="fill:#FFD000;" width="5.107" height="9.616"/>
						<rect x="651.823" y="423.767" style="fill:#FFD000;" width="5.107" height="9.616"/>
						<rect x="662.547" y="423.76" style="fill:#FFD000;" width="5.107" height="9.616"/>
						<rect x="673.271" y="423.753" style="fill:#FFD000;" width="5.107" height="9.616"/>
					</g>
				</g>
			</g>
			<g>
				<path style="fill:#FF8C00;" d="M690.443,422.978l-69.138,0.043c-1.266,0.001-2.294-1.025-2.294-2.291l-0.004-6.587
					c-0.001-1.266,1.025-2.294,2.291-2.294l69.138-0.043c1.266-0.001,2.294,1.025,2.294,2.291l0.004,6.587
					C692.735,421.95,691.709,422.977,690.443,422.978z"/>
				<path style="fill:#FFAA00;" d="M692.684,422.198l-73.622,0.046c-1.208,0.001-2.188-0.978-2.189-2.187l-0.003-5.24
					c-0.001-1.208,0.978-2.189,2.187-2.189l73.622-0.046c1.208-0.001,2.189,0.978,2.189,2.186l0.003,5.24
					C694.872,421.217,693.893,422.197,692.684,422.198z"/>
				<g>
					<g>
						<rect x="621.145" y="412.625" style="fill:#FFD000;" width="5.107" height="9.616"/>
						<rect x="631.869" y="412.618" style="fill:#FFD000;" width="5.107" height="9.616"/>
						<rect x="642.593" y="412.612" style="fill:#FFD000;" width="5.107" height="9.616"/>
						<rect x="653.317" y="412.605" style="fill:#FFD000;" width="5.107" height="9.616"/>
						<rect x="664.041" y="412.598" style="fill:#FFD000;" width="5.107" height="9.616"/>
						<rect x="674.765" y="412.591" style="fill:#FFD000;" width="5.107" height="9.616"/>
						<rect x="685.489" y="412.585" style="fill:#FFD000;" width="5.107" height="9.616"/>
					</g>
				</g>
			</g>
			<g>
				<path style="fill:#FF8C00;" d="M671.418,411.809l-69.138,0.043c-1.266,0.001-2.294-1.025-2.294-2.291l-0.004-6.587
					c-0.001-1.266,1.025-2.294,2.291-2.294l69.139-0.043c1.266-0.001,2.293,1.025,2.294,2.291l0.004,6.587
					C673.711,410.781,672.685,411.808,671.418,411.809z"/>
				<path style="fill:#FFAA00;" d="M673.66,411.03l-73.622,0.046c-1.208,0.001-2.188-0.978-2.189-2.187l-0.003-5.24
					c-0.001-1.208,0.978-2.189,2.186-2.189l73.622-0.046c1.208-0.001,2.189,0.978,2.189,2.187l0.003,5.24
					C675.847,410.049,674.868,411.029,673.66,411.03z"/>
				<g>
					<g>
						<rect x="602.121" y="401.457" style="fill:#FFD000;" width="5.107" height="9.616"/>
						<rect x="612.845" y="401.45" style="fill:#FFD000;" width="5.107" height="9.616"/>
						<rect x="623.569" y="401.443" style="fill:#FFD000;" width="5.107" height="9.616"/>
						<rect x="634.292" y="401.436" style="fill:#FFD000;" width="5.107" height="9.616"/>
						<rect x="645.016" y="401.43" style="fill:#FFD000;" width="5.107" height="9.616"/>
						<rect x="655.74" y="401.423" style="fill:#FFD000;" width="5.107" height="9.616"/>
						<rect x="666.464" y="401.416" style="fill:#FFD000;" width="5.107" height="9.616"/>
					</g>
				</g>
			</g>
			<g>
				<path style="fill:#FF8C00;" d="M695.33,400.641l-69.138,0.043c-1.266,0.001-2.294-1.025-2.294-2.291l-0.004-6.587
					c-0.001-1.266,1.025-2.293,2.291-2.294l69.138-0.043c1.266-0.001,2.294,1.025,2.294,2.291l0.004,6.587
					C697.622,399.613,696.596,400.64,695.33,400.641z"/>
				<path style="fill:#FFAA00;" d="M697.571,399.861l-73.622,0.046c-1.208,0.001-2.188-0.978-2.189-2.186l-0.003-5.24
					c-0.001-1.208,0.978-2.189,2.187-2.189l73.622-0.046c1.208-0.001,2.189,0.978,2.189,2.186l0.003,5.24
					C699.758,398.88,698.779,399.86,697.571,399.861z"/>
				<g>
					<g>
						<rect x="626.032" y="390.288" style="fill:#FFD000;" width="5.107" height="9.616"/>
						<rect x="636.756" y="390.281" style="fill:#FFD000;" width="5.107" height="9.616"/>
						<rect x="647.48" y="390.275" style="fill:#FFD000;" width="5.107" height="9.616"/>
						<rect x="658.204" y="390.268" style="fill:#FFD000;" width="5.107" height="9.616"/>
						<rect x="668.928" y="390.261" style="fill:#FFD000;" width="5.107" height="9.616"/>
						<rect x="679.652" y="390.255" style="fill:#FFD000;" width="5.107" height="9.616"/>
						<rect x="690.376" y="390.248" style="fill:#FFD000;" width="5.107" height="9.616"/>
					</g>
				</g>
			</g>
			<g>
				<path style="fill:#FF8C00;" d="M674.915,389.472l-69.138,0.043c-1.266,0.001-2.294-1.025-2.294-2.291l-0.004-6.587
					c-0.001-1.266,1.025-2.293,2.291-2.294l69.138-0.043c1.266-0.001,2.294,1.025,2.294,2.291l0.004,6.587
					C677.207,388.444,676.181,389.471,674.915,389.472z"/>
				<path style="fill:#FFAA00;" d="M677.156,388.693l-73.622,0.046c-1.208,0.001-2.188-0.978-2.189-2.186l-0.003-5.24
					c-0.001-1.208,0.978-2.189,2.187-2.189l73.622-0.046c1.208-0.001,2.189,0.978,2.189,2.187l0.003,5.24
					C679.344,387.712,678.365,388.692,677.156,388.693z"/>
				<g>
					<g>
						<rect x="605.617" y="379.12" style="fill:#FFD000;" width="5.107" height="9.616"/>
						<rect x="616.341" y="379.113" style="fill:#FFD000;" width="5.107" height="9.616"/>
						<rect x="627.065" y="379.106" style="fill:#FFD000;" width="5.107" height="9.616"/>
						<rect x="637.789" y="379.1" style="fill:#FFD000;" width="5.107" height="9.616"/>
						<rect x="648.513" y="379.093" style="fill:#FFD000;" width="5.107" height="9.616"/>
						<rect x="659.237" y="379.086" style="fill:#FFD000;" width="5.107" height="9.616"/>
						<rect x="669.961" y="379.079" style="fill:#FFD000;" width="5.107" height="9.616"/>
					</g>
				</g>
			</g>
			<g>
				<path style="fill:#FF8C00;" d="M685.632,378.304l-69.138,0.043c-1.266,0.001-2.294-1.025-2.294-2.291l-0.004-6.587
					c-0.001-1.266,1.025-2.293,2.291-2.294l69.138-0.043c1.266-0.001,2.293,1.025,2.294,2.291l0.004,6.587
					C687.924,377.276,686.898,378.303,685.632,378.304z"/>
				<path style="fill:#FFAA00;" d="M687.873,377.524l-73.622,0.046c-1.208,0.001-2.188-0.978-2.189-2.187l-0.003-5.24
					c-0.001-1.208,0.978-2.189,2.186-2.189l73.622-0.046c1.208-0.001,2.189,0.978,2.189,2.187l0.003,5.24
					C690.06,376.543,689.081,377.523,687.873,377.524z"/>
				<g>
					<g>
						<rect x="616.334" y="367.951" style="fill:#FFD000;" width="5.107" height="9.616"/>
						<rect x="627.058" y="367.945" style="fill:#FFD000;" width="5.107" height="9.616"/>
						<rect x="637.782" y="367.938" style="fill:#FFD000;" width="5.107" height="9.616"/>
						<rect x="648.506" y="367.931" style="fill:#FFD000;" width="5.107" height="9.616"/>
						<rect x="659.23" y="367.924" style="fill:#FFD000;" width="5.107" height="9.616"/>
						<rect x="669.954" y="367.918" style="fill:#FFD000;" width="5.107" height="9.616"/>
						<rect x="680.678" y="367.911" style="fill:#FFD000;" width="5.107" height="9.616"/>
					</g>
				</g>
			</g>
			<g>
				<path style="fill:#FF8C00;" d="M659.317,367.135l-69.138,0.043c-1.266,0.001-2.294-1.025-2.294-2.291l-0.004-6.587
					c-0.001-1.266,1.025-2.294,2.291-2.294l69.138-0.043c1.266-0.001,2.294,1.025,2.294,2.291l0.004,6.587
					C661.609,366.107,660.583,367.135,659.317,367.135z"/>
				<path style="fill:#FFAA00;" d="M661.559,366.356l-73.622,0.046c-1.208,0.001-2.188-0.978-2.189-2.186l-0.003-5.24
					c-0.001-1.208,0.978-2.189,2.187-2.189l73.622-0.046c1.208-0.001,2.189,0.978,2.189,2.187l0.003,5.24
					C663.746,365.375,662.767,366.355,661.559,366.356z"/>
				<g>
					<g>
						<rect x="590.019" y="356.783" style="fill:#FFD000;" width="5.107" height="9.616"/>
						<rect x="600.743" y="356.776" style="fill:#FFD000;" width="5.107" height="9.616"/>
						<rect x="611.467" y="356.769" style="fill:#FFD000;" width="5.107" height="9.616"/>
						<rect x="622.191" y="356.763" style="fill:#FFD000;" width="5.107" height="9.616"/>
						<rect x="632.915" y="356.756" style="fill:#FFD000;" width="5.107" height="9.616"/>
						<rect x="643.639" y="356.749" style="fill:#FFD000;" width="5.107" height="9.616"/>
						<rect x="654.363" y="356.742" style="fill:#FFD000;" width="5.107" height="9.616"/>
					</g>
				</g>
			</g>
			<g>
				<path style="fill:#FF8C00;" d="M80.138,434.146l69.139,0.043c1.266,0.001,2.293-1.025,2.294-2.291l0.004-6.587
					c0.001-1.266-1.025-2.294-2.291-2.294l-69.138-0.043c-1.266-0.001-2.293,1.025-2.294,2.291l-0.004,6.587
					C77.846,433.118,78.871,434.145,80.138,434.146z"/>
				<path style="fill:#FFAA00;" d="M77.896,433.366l73.622,0.046c1.208,0.001,2.188-0.978,2.189-2.186l0.003-5.24
					c0.001-1.208-0.978-2.189-2.187-2.189l-73.622-0.046c-1.208-0.001-2.188,0.978-2.189,2.187l-0.003,5.24
					C75.709,432.385,76.688,433.366,77.896,433.366z"/>
				<g>
					<g>
						<rect x="144.329" y="423.793" style="fill:#FFD000;" width="5.107" height="9.616"/>
						<rect x="133.605" y="423.787" style="fill:#FFD000;" width="5.107" height="9.616"/>
						<rect x="122.881" y="423.78" style="fill:#FFD000;" width="5.107" height="9.616"/>
						<rect x="112.157" y="423.773" style="fill:#FFD000;" width="5.107" height="9.616"/>
						<rect x="101.433" y="423.767" style="fill:#FFD000;" width="5.107" height="9.616"/>
						<rect x="90.709" y="423.76" style="fill:#FFD000;" width="5.107" height="9.616"/>
						<rect x="79.985" y="423.753" style="fill:#FFD000;" width="5.107" height="9.616"/>
					</g>
				</g>
			</g>
			<g>
				<path style="fill:#FF8C00;" d="M59.122,422.978l69.139,0.043c1.266,0.001,2.293-1.025,2.294-2.291l0.004-6.587
					c0.001-1.266-1.025-2.294-2.291-2.294l-69.138-0.043c-1.266-0.001-2.293,1.025-2.294,2.291l-0.004,6.587
					C56.83,421.95,57.856,422.977,59.122,422.978z"/>
				<path style="fill:#FFAA00;" d="M56.881,422.198l73.622,0.046c1.208,0.001,2.188-0.978,2.189-2.187l0.003-5.24
					c0.001-1.208-0.978-2.189-2.186-2.189l-73.622-0.046c-1.208-0.001-2.189,0.978-2.189,2.186l-0.003,5.24
					C54.694,421.217,55.673,422.197,56.881,422.198z"/>
				<g>
					<g>
						<rect x="123.314" y="412.625" style="fill:#FFD000;" width="5.107" height="9.616"/>
						<rect x="112.59" y="412.618" style="fill:#FFD000;" width="5.107" height="9.616"/>
						<rect x="101.866" y="412.612" style="fill:#FFD000;" width="5.107" height="9.616"/>
						<rect x="91.142" y="412.605" style="fill:#FFD000;" width="5.107" height="9.616"/>
						<rect x="80.418" y="412.598" style="fill:#FFD000;" width="5.107" height="9.616"/>
						<rect x="69.694" y="412.591" style="fill:#FFD000;" width="5.107" height="9.616"/>
						<rect x="58.97" y="412.585" style="fill:#FFD000;" width="5.107" height="9.616"/>
					</g>
				</g>
			</g>
			<g>
				<path style="fill:#FF8C00;" d="M78.081,411.809l69.139,0.043c1.266,0.001,2.293-1.025,2.294-2.291l0.004-6.587
					c0.001-1.266-1.025-2.294-2.292-2.294l-69.138-0.043c-1.266-0.001-2.293,1.025-2.294,2.291l-0.004,6.587
					C75.789,410.781,76.815,411.808,78.081,411.809z"/>
				<path style="fill:#FFAA00;" d="M75.84,411.03l73.622,0.046c1.208,0.001,2.188-0.978,2.189-2.187l0.003-5.24
					c0.001-1.208-0.978-2.189-2.187-2.189l-73.622-0.046c-1.208-0.001-2.189,0.978-2.189,2.187l-0.003,5.24
					C73.652,410.049,74.632,411.029,75.84,411.03z"/>
				<g>
					<g>
						<rect x="142.272" y="401.457" style="fill:#FFD000;" width="5.107" height="9.616"/>
						<rect x="131.549" y="401.45" style="fill:#FFD000;" width="5.107" height="9.616"/>
						<rect x="120.825" y="401.443" style="fill:#FFD000;" width="5.107" height="9.616"/>
						<rect x="110.101" y="401.436" style="fill:#FFD000;" width="5.107" height="9.616"/>
						<rect x="99.377" y="401.43" style="fill:#FFD000;" width="5.107" height="9.616"/>
						<rect x="88.653" y="401.423" style="fill:#FFD000;" width="5.107" height="9.616"/>
						<rect x="77.929" y="401.416" style="fill:#FFD000;" width="5.107" height="9.616"/>
					</g>
				</g>
			</g>
			<g>
				<path style="fill:#FF8C00;" d="M64.533,400.641l69.139,0.043c1.266,0.001,2.293-1.025,2.294-2.291l0.004-6.587
					c0.001-1.266-1.025-2.293-2.291-2.294l-69.138-0.043c-1.266-0.001-2.293,1.025-2.294,2.291l-0.004,6.587
					C62.241,399.613,63.266,400.64,64.533,400.641z"/>
				<path style="fill:#FFAA00;" d="M62.291,399.861l73.622,0.046c1.208,0.001,2.189-0.978,2.189-2.186l0.003-5.24
					c0.001-1.208-0.978-2.188-2.187-2.189l-73.622-0.046c-1.208-0.001-2.188,0.978-2.189,2.186l-0.003,5.24
					C60.104,398.88,61.083,399.86,62.291,399.861z"/>
				<g>
					<g>
						<rect x="128.724" y="390.288" style="fill:#FFD000;" width="5.107" height="9.616"/>
						<rect x="118" y="390.281" style="fill:#FFD000;" width="5.107" height="9.616"/>
						<rect x="107.276" y="390.275" style="fill:#FFD000;" width="5.107" height="9.616"/>
						<rect x="96.552" y="390.268" style="fill:#FFD000;" width="5.107" height="9.616"/>
						<rect x="85.828" y="390.261" style="fill:#FFD000;" width="5.107" height="9.616"/>
						<rect x="75.104" y="390.255" style="fill:#FFD000;" width="5.107" height="9.616"/>
						<rect x="64.38" y="390.248" style="fill:#FFD000;" width="5.107" height="9.616"/>
					</g>
				</g>
			</g>
			<g>
				<path style="fill:#FF8C00;" d="M86.805,389.472l69.139,0.043c1.266,0.001,2.293-1.025,2.294-2.291l0.004-6.587
					c0.001-1.266-1.025-2.293-2.291-2.294L86.812,378.3c-1.266-0.001-2.293,1.025-2.294,2.291l-0.004,6.587
					C84.513,388.444,85.539,389.471,86.805,389.472z"/>
				<path style="fill:#FFAA00;" d="M84.564,388.693l73.622,0.046c1.208,0.001,2.188-0.978,2.189-2.186l0.003-5.24
					c0.001-1.208-0.978-2.189-2.186-2.189l-73.622-0.046c-1.208-0.001-2.189,0.978-2.189,2.187l-0.003,5.24
					C82.376,387.712,83.355,388.692,84.564,388.693z"/>
				<g>
					<g>
						<rect x="150.996" y="379.12" style="fill:#FFD000;" width="5.107" height="9.616"/>
						<rect x="140.272" y="379.113" style="fill:#FFD000;" width="5.107" height="9.616"/>
						<rect x="129.548" y="379.106" style="fill:#FFD000;" width="5.107" height="9.616"/>
						<rect x="118.825" y="379.1" style="fill:#FFD000;" width="5.107" height="9.616"/>
						<rect x="108.101" y="379.093" style="fill:#FFD000;" width="5.107" height="9.616"/>
						<rect x="97.377" y="379.086" style="fill:#FFD000;" width="5.107" height="9.616"/>
						<rect x="86.653" y="379.079" style="fill:#FFD000;" width="5.107" height="9.616"/>
					</g>
				</g>
			</g>
			<g>
				<rect x="287.54" y="202.831" style="fill:#39943A;" width="94.3" height="28.209"/>
				<rect x="240.39" y="202.818" style="fill:#3AB53D;" width="94.3" height="28.209"/>
				<g>
					<rect x="240.393" y="205.271" style="fill:#39943A;" width="94.3" height="1.604"/>
					<rect x="240.391" y="210.696" style="fill:#39943A;" width="94.3" height="1.604"/>
					<rect x="240.39" y="216.121" style="fill:#39943A;" width="94.3" height="1.604"/>
					<rect x="240.388" y="221.546" style="fill:#39943A;" width="94.3" height="1.604"/>
					<rect x="240.387" y="226.971" style="fill:#39943A;" width="94.3" height="1.604"/>
				</g>
				<rect x="279.665" y="202.818" style="fill:#E6E6FF;" width="15.749" height="28.209"/>
			</g>
			<g>
				
					<rect x="213.048" y="174.416" transform="matrix(-1 2.619297e-04 -2.619297e-04 -1 520.4453 376.9728)" style="fill:#39943A;" width="94.3" height="28.209"/>
				
					<rect x="260.198" y="174.403" transform="matrix(-1 2.640512e-04 -2.640512e-04 -1 614.7457 376.935)" style="fill:#3AB53D;" width="94.3" height="28.209"/>
				<g>
					
						<rect x="260.195" y="176.856" transform="matrix(-1 2.619297e-04 -2.619297e-04 -1 614.7368 355.2354)" style="fill:#39943A;" width="94.3" height="1.604"/>
					
						<rect x="260.197" y="182.281" transform="matrix(-1 2.619297e-04 -2.619297e-04 -1 614.741 366.0855)" style="fill:#39943A;" width="94.3" height="1.604"/>
					
						<rect x="260.198" y="187.706" transform="matrix(-1 2.629904e-04 -2.629904e-04 -1 614.7455 376.9354)" style="fill:#39943A;" width="94.3" height="1.604"/>
					
						<rect x="260.199" y="193.131" transform="matrix(-1 2.629904e-04 -2.629904e-04 -1 614.7498 387.7855)" style="fill:#39943A;" width="94.3" height="1.604"/>
					
						<rect x="260.201" y="198.556" transform="matrix(-1 2.619297e-04 -2.619297e-04 -1 614.7538 398.636)" style="fill:#39943A;" width="94.3" height="1.604"/>
				</g>
				
					<rect x="299.473" y="174.403" transform="matrix(-1 2.730315e-04 -2.730315e-04 -1 614.7475 376.9323)" style="fill:#E6E6FF;" width="15.749" height="28.209"/>
			</g>
			<g>
				<path style="fill:#39943A;" d="M636.962,114.905c-25.586,46.236,64.415,41.055,38.829,87.29
					c-12.843,5.713-25.686,11.426-38.529,17.139c25.586-46.236-64.416-41.054-38.829-87.29
					C611.276,126.331,624.119,120.618,636.962,114.905z"/>
				<path style="fill:#3AB53D;" d="M669.617,200.777c-7.046,3.134-14.091,6.268-21.136,9.402c1.666-4.194-0.45-6.052-3.307-4.78
					c3.883-29.637-51.58-32.874-47.697-62.511c2.908-1.293,5.465-5.23,7.131-9.423c7.046-3.134,14.091-6.268,21.136-9.402
					c-1.666,4.194,0.45,6.052,3.307,4.78c-3.883,29.637,51.581,32.874,47.697,62.511
					C673.84,192.647,671.283,196.582,669.617,200.777z"/>
				<path style="fill:#39943A;" d="M627.373,160.635c7.319-3.256,17.465-2.926,23.045,0.566c5.581,3.492,3.812,9.121-3.566,12.403
					c-7.319,3.256-17.464,2.926-23.045-0.566C618.226,169.547,619.995,163.917,627.373,160.635z"/>
				<g>
					<path style="fill:#3AB53D;" d="M646.642,168.748c-1.055-0.147-2.115-0.292-3.177-0.435c0.097-0.566,0.056-1.064-0.118-1.495
						c-0.175-0.43-0.497-0.82-0.966-1.17c-1.359,0.59-2.717,1.179-4.075,1.769c1.246,1.134,1.908,2.08,1.99,2.834
						c0.083,0.755-0.401,1.36-1.443,1.812c-1.092,0.474-2.359,0.59-3.811,0.354c-1.452-0.237-2.916-0.796-4.393-1.676
						c-0.431,0.187-0.862,0.374-1.293,0.561c-0.428-0.277-0.856-0.553-1.284-0.83c0.431-0.187,0.862-0.374,1.293-0.561
						c-0.782-0.586-1.355-1.176-1.72-1.772c-0.364-0.596-0.538-1.225-0.519-1.889c1.063,0.129,2.13,0.256,3.198,0.382
						c-0.115,0.472-0.087,0.903,0.082,1.292c0.169,0.389,0.495,0.759,0.977,1.111c1.234-0.536,2.469-1.072,3.703-1.607
						c-1.315-1.271-1.999-2.29-2.059-3.051c-0.061-0.76,0.474-1.386,1.596-1.873c1.154-0.501,2.495-0.622,4.035-0.369
						c1.54,0.253,3.053,0.843,4.541,1.771c0.629-0.273,1.259-0.546,1.888-0.82c0.428,0.277,0.856,0.553,1.284,0.83
						c-0.63,0.273-1.259,0.546-1.889,0.82c0.884,0.665,1.504,1.329,1.858,1.991C646.696,167.387,646.795,168.062,646.642,168.748z
						 M635.97,168.43c-1.132,0.491-2.264,0.983-3.396,1.474c0.752,0.453,1.455,0.741,2.11,0.865
						c0.655,0.124,1.233,0.077,1.735-0.142c0.484-0.21,0.691-0.486,0.622-0.827C636.973,169.458,636.616,169.002,635.97,168.43z
						 M641.162,164.789c-0.748-0.483-1.458-0.788-2.129-0.911c-0.671-0.124-1.289-0.063-1.853,0.181
						c-0.57,0.248-0.838,0.555-0.802,0.922c0.036,0.367,0.377,0.847,1.025,1.44C638.656,165.877,639.909,165.333,641.162,164.789z"
						/>
				</g>
			</g>
			<g>
				<path style="fill:#39943A;" d="M204.926,123.816c-37.091,4.032-63.89,37.368-59.859,74.459
					c-10.955-8.807-21.911-17.614-32.866-26.421c-4.032-37.091,22.768-70.428,59.859-74.459
					C183.016,106.201,193.971,115.009,204.926,123.816z"/>
				<path style="fill:#3AB53D;" d="M137.313,187.898c-6.01-4.831-12.02-9.663-18.03-14.494c-0.163-3.643-1.958-8.137-4.423-10.114
					c1.527-28.898,21.512-53.757,49.407-61.458c2.46,1.982,7.235,2.769,10.828,2.146c6.01,4.831,12.02,9.663,18.03,14.494
					c-3.592,0.623-4.382,3.041-1.924,5.011c-27.895,7.701-47.88,32.56-49.407,61.459
					C139.341,182.966,137.149,184.255,137.313,187.898z"/>
				<path style="fill:#39943A;" d="M150.504,127.633c6.282,5.045,7.696,12.294,3.989,16.929c-3.73,4.617-11.113,4.793-17.39-0.258
					c-6.259-5.027-9.039-13.373-5.309-17.99C135.501,121.679,144.249,122.6,150.504,127.633z"/>
				<g>
					<path style="fill:#3AB53D;" d="M143.233,142.971c-0.084-0.85-0.162-1.695-0.233-2.535c0.791-0.028,1.463-0.145,2.014-0.349
						c0.551-0.203,1.017-0.508,1.398-0.912c-1.138-0.934-2.277-1.867-3.415-2.801c-1.301,1.104-2.42,1.781-3.416,1.985
						c-0.995,0.206-1.92-0.044-2.795-0.761c-0.915-0.75-1.407-1.713-1.456-2.874c-0.048-1.159,0.356-2.375,1.251-3.613
						c-0.361-0.296-0.722-0.593-1.084-0.889c0.29-0.362,0.583-0.721,0.88-1.077c0.361,0.296,0.722,0.593,1.083,0.889
						c0.656-0.66,1.378-1.156,2.158-1.493c0.781-0.336,1.657-0.53,2.625-0.583c0.032,0.79,0.07,1.585,0.115,2.385
						c-0.705-0.031-1.319,0.039-1.839,0.212c-0.52,0.173-0.977,0.461-1.368,0.867c1.034,0.848,2.068,1.697,3.102,2.545
						c1.51-1.15,2.844-1.758,3.933-1.884c1.09-0.124,2.112,0.206,3.051,0.976c0.967,0.793,1.417,1.758,1.372,2.914
						c-0.044,1.157-0.577,2.335-1.559,3.569c0.527,0.433,1.055,0.865,1.582,1.298c-0.296,0.357-0.588,0.717-0.877,1.079
						c-0.528-0.433-1.055-0.865-1.583-1.298c-0.727,0.762-1.491,1.343-2.304,1.731C145.059,142.742,144.182,142.95,143.233,142.971z
						 M141.041,134.77c-0.949-0.778-1.897-1.556-2.845-2.334c-0.461,0.632-0.693,1.21-0.705,1.728
						c-0.013,0.518,0.194,0.951,0.615,1.296c0.406,0.333,0.833,0.443,1.286,0.334C139.845,135.685,140.39,135.339,141.041,134.77z
						 M147.345,138.142c0.518-0.623,0.799-1.185,0.832-1.696c0.033-0.511-0.185-0.959-0.658-1.346
						c-0.478-0.392-0.978-0.554-1.496-0.484c-0.518,0.07-1.132,0.381-1.828,0.943C145.246,136.42,146.296,137.281,147.345,138.142z"
						/>
				</g>
			</g>
			<g>
				
					<path style="fill:none;stroke:#1A0E90;stroke-width:0.75;stroke-linecap:round;stroke-linejoin:round;stroke-miterlimit:10;" d="
					M180.548,225.917l-8.669-53.175c-1.536-9.424,5.737-17.979,15.285-17.979h190.353"/>
				<path style="fill:#1A0E90;" d="M380.765,154.763c0,1.794-1.454,3.248-3.248,3.248c-1.794,0-3.248-1.454-3.248-3.248
					c0-1.794,1.454-3.247,3.248-3.247C379.311,151.516,380.765,152.969,380.765,154.763z"/>
				<path style="fill:#1A0E90;" d="M183.739,225.917c0,1.794-1.454,3.247-3.247,3.247s-3.248-1.454-3.248-3.247
					s1.454-3.248,3.248-3.248S183.739,224.124,183.739,225.917z"/>
			</g>
			<g>
				<path style="fill:#1A0E90;" d="M566.369,187.092c0,1.794-1.454,3.248-3.247,3.248c-1.794,0-3.248-1.454-3.248-3.248
					s1.454-3.248,3.248-3.248C564.915,183.845,566.369,185.299,566.369,187.092z"/>
				<path style="fill:#1A0E90;" d="M609.014,240.34c0,1.794-1.454,3.248-3.247,3.248c-1.794,0-3.248-1.454-3.248-3.248
					c0-1.794,1.454-3.248,3.248-3.248C607.56,237.092,609.014,238.546,609.014,240.34z"/>
				
					<path style="fill:none;stroke:#1A0E90;stroke-width:0.75;stroke-linecap:round;stroke-linejoin:round;stroke-miterlimit:10;" d="
					M605.767,240.34l-6.371-43.357c-0.835-5.681-5.708-9.891-11.45-9.891h-24.825"/>
			</g>
		</g>
		<g>
			<g>
				<path style="fill:#E6E6FF;" d="M465.765,101.102l-7.01-7.01c-0.339-0.339-0.888-0.339-1.226,0l-6.867,6.867
					c-0.339,0.339-0.339,0.888,0,1.226c0.339,0.339,0.887,0.339,1.226,0l5.458-5.459v19.008c0,0.479,0.388,0.867,0.867,0.867
					s0.867-0.388,0.867-0.867V96.871l5.458,5.458c0.169,0.169,0.391,0.254,0.613,0.254s0.444-0.085,0.613-0.254
					C466.103,101.99,466.103,101.441,465.765,101.102z"/>
			</g>
			<g>
				<path style="fill:#E6E6FF;" d="M97.848,207.38l-7.01-7.01c-0.339-0.339-0.888-0.339-1.226,0l-6.867,6.867
					c-0.339,0.339-0.339,0.887,0,1.226s0.887,0.339,1.226,0l5.458-5.458v19.008c0,0.479,0.388,0.867,0.867,0.867
					c0.479,0,0.867-0.388,0.867-0.867v-18.865l5.458,5.458c0.169,0.169,0.391,0.254,0.613,0.254s0.444-0.085,0.613-0.254
					C98.187,208.267,98.187,207.719,97.848,207.38z"/>
			</g>
			<g>
				<path style="fill:#FFFFFF;" d="M279.986,131.037l7.01,7.01c0.339,0.339,0.887,0.339,1.226,0l6.867-6.867
					c0.339-0.339,0.339-0.887,0-1.226s-0.888-0.339-1.226,0l-5.458,5.458v-19.008c0-0.479-0.388-0.867-0.867-0.867
					c-0.479,0-0.867,0.388-0.867,0.867v18.864l-5.458-5.458c-0.169-0.169-0.391-0.254-0.613-0.254s-0.444,0.085-0.613,0.254
					C279.647,130.15,279.647,130.699,279.986,131.037z"/>
			</g>
			<g>
				<path style="fill:#E6E6FF;" d="M673.607,319.55l7.01,7.01c0.339,0.339,0.887,0.339,1.226,0l6.867-6.867
					c0.339-0.339,0.339-0.887,0-1.226c-0.339-0.339-0.888-0.339-1.226,0l-5.458,5.459v-19.008c0-0.479-0.388-0.867-0.867-0.867
					s-0.867,0.388-0.867,0.867v18.865l-5.458-5.458c-0.169-0.169-0.391-0.254-0.613-0.254s-0.444,0.085-0.613,0.254
					C673.268,318.663,673.268,319.211,673.607,319.55z"/>
			</g>
			<g>
				<path style="fill:#FFFFFF;" d="M123.053,382.079l-1.163,2.127c-0.035,0.065-0.088,0.118-0.153,0.153l-2.127,1.163
					c-0.267,0.146-0.267,0.53,0,0.676l2.127,1.163c0.065,0.035,0.118,0.088,0.153,0.153l1.163,2.127c0.146,0.267,0.53,0.267,0.675,0
					l1.164-2.127c0.035-0.065,0.088-0.118,0.153-0.153l2.127-1.163c0.267-0.146,0.267-0.53,0-0.676l-2.127-1.163
					c-0.065-0.035-0.118-0.088-0.153-0.153l-1.164-2.127C123.582,381.812,123.199,381.812,123.053,382.079z"/>
			</g>
			<g>
				<path style="fill:#FFFFFF;" d="M207.954,372.744l-1.163,2.127c-0.035,0.065-0.089,0.118-0.153,0.153l-2.127,1.163
					c-0.267,0.146-0.267,0.53,0,0.676l2.127,1.164c0.065,0.035,0.118,0.088,0.153,0.153l1.163,2.127c0.146,0.267,0.53,0.267,0.676,0
					l1.163-2.127c0.035-0.065,0.088-0.118,0.153-0.153l2.127-1.164c0.267-0.146,0.267-0.529,0-0.676l-2.127-1.163
					c-0.065-0.035-0.118-0.089-0.153-0.153l-1.163-2.127C208.483,372.477,208.1,372.477,207.954,372.744z"/>
			</g>
			<g>
				<path style="fill:#FFFFFF;" d="M566.571,363.181l-1.163,2.127c-0.035,0.065-0.089,0.118-0.153,0.153l-2.127,1.163
					c-0.267,0.146-0.267,0.53,0,0.676l2.127,1.163c0.065,0.035,0.118,0.088,0.153,0.153l1.163,2.127
					c0.146,0.267,0.529,0.267,0.676,0l1.163-2.127c0.035-0.065,0.088-0.118,0.153-0.153l2.127-1.163c0.267-0.146,0.267-0.53,0-0.676
					l-2.127-1.163c-0.065-0.035-0.118-0.088-0.153-0.153l-1.163-2.127C567.1,362.914,566.717,362.914,566.571,363.181z"/>
			</g>
			<g>
				<path style="fill:#FFFFFF;" d="M637.474,362.609l-1.163,2.127c-0.035,0.065-0.089,0.118-0.153,0.153l-2.127,1.163
					c-0.267,0.146-0.267,0.53,0,0.676l2.127,1.163c0.065,0.035,0.118,0.089,0.153,0.153l1.163,2.127c0.146,0.267,0.53,0.267,0.676,0
					l1.164-2.127c0.035-0.065,0.088-0.118,0.153-0.153l2.127-1.163c0.267-0.146,0.267-0.53,0-0.676l-2.127-1.163
					c-0.065-0.035-0.118-0.089-0.153-0.153l-1.164-2.127C638.003,362.342,637.62,362.342,637.474,362.609z"/>
			</g>
			<g>
				<path style="fill:#FFFFFF;" d="M93.972,394.355l-1.785,3.263c-0.054,0.099-0.136,0.181-0.235,0.235l-3.263,1.785
					c-0.41,0.224-0.41,0.812,0,1.036l3.263,1.785c0.099,0.054,0.18,0.136,0.235,0.235l1.785,3.263c0.224,0.41,0.812,0.41,1.036,0
					l1.785-3.263c0.054-0.099,0.136-0.181,0.235-0.235l3.263-1.785c0.41-0.224,0.41-0.812,0-1.036l-3.263-1.785
					c-0.099-0.054-0.181-0.136-0.235-0.235l-1.785-3.263C94.784,393.946,94.196,393.946,93.972,394.355z"/>
			</g>
			<g>
				<path style="fill:#FFFFFF;" d="M222.409,353.315l-1.785,3.263c-0.054,0.099-0.136,0.181-0.235,0.235l-3.263,1.785
					c-0.41,0.224-0.41,0.812,0,1.036l3.263,1.785c0.099,0.054,0.181,0.136,0.235,0.235l1.785,3.263c0.224,0.41,0.812,0.41,1.036,0
					l1.785-3.263c0.054-0.099,0.136-0.181,0.235-0.235l3.263-1.785c0.41-0.224,0.41-0.812,0-1.036l-3.263-1.785
					c-0.099-0.054-0.181-0.136-0.235-0.235l-1.785-3.263C223.221,352.905,222.633,352.905,222.409,353.315z"/>
			</g>
			<g>
				<path style="fill:#FFFFFF;" d="M663.703,371.241l-1.785,3.263c-0.054,0.099-0.136,0.181-0.235,0.235l-3.263,1.785
					c-0.41,0.224-0.41,0.812,0,1.036l3.263,1.785c0.099,0.054,0.181,0.136,0.235,0.235l1.785,3.263c0.224,0.41,0.812,0.41,1.036,0
					l1.785-3.263c0.054-0.099,0.136-0.181,0.235-0.235l3.263-1.785c0.41-0.224,0.41-0.812,0-1.036l-3.263-1.785
					c-0.099-0.054-0.181-0.136-0.235-0.235l-1.785-3.263C664.516,370.831,663.927,370.831,663.703,371.241z"/>
			</g>
			<g>
				<path style="fill:#FFFFFF;" d="M120.32,404.497l-0.803,1.468c-0.024,0.045-0.061,0.081-0.106,0.106l-1.468,0.803
					c-0.184,0.101-0.184,0.365,0,0.466l1.468,0.803c0.045,0.024,0.081,0.061,0.106,0.106l0.803,1.468
					c0.101,0.184,0.365,0.184,0.466,0l0.803-1.468c0.024-0.045,0.061-0.081,0.106-0.106l1.468-0.803
					c0.184-0.101,0.184-0.365,0-0.466l-1.468-0.803c-0.045-0.024-0.081-0.061-0.106-0.106l-0.803-1.468
					C120.686,404.312,120.421,404.312,120.32,404.497z"/>
			</g>
			<g>
				<path style="fill:#FFFFFF;" d="M225.442,377.898l-0.803,1.468c-0.024,0.045-0.061,0.081-0.106,0.106l-1.468,0.803
					c-0.184,0.101-0.184,0.365,0,0.466l1.468,0.803c0.044,0.024,0.081,0.061,0.106,0.106l0.803,1.468
					c0.101,0.184,0.365,0.184,0.466,0l0.803-1.468c0.024-0.045,0.061-0.081,0.105-0.106l1.468-0.803
					c0.184-0.101,0.184-0.365,0-0.466l-1.468-0.803c-0.044-0.024-0.081-0.061-0.105-0.106l-0.803-1.468
					C225.807,377.714,225.542,377.714,225.442,377.898z"/>
			</g>
			<g>
				<path style="fill:#FFFFFF;" d="M579.38,377.084l-0.803,1.468c-0.024,0.045-0.061,0.081-0.106,0.106l-1.468,0.803
					c-0.184,0.101-0.184,0.365,0,0.466l1.468,0.803c0.044,0.024,0.081,0.061,0.106,0.106l0.803,1.468
					c0.101,0.184,0.365,0.184,0.466,0l0.803-1.468c0.024-0.045,0.061-0.081,0.106-0.106l1.468-0.803
					c0.184-0.101,0.184-0.365,0-0.466l-1.468-0.803c-0.045-0.025-0.081-0.061-0.106-0.106l-0.803-1.468
					C579.745,376.9,579.481,376.9,579.38,377.084z"/>
			</g>
			<g>
				<path style="fill:#FFFFFF;" d="M566.675,382.579l-0.803,1.468c-0.024,0.045-0.061,0.081-0.106,0.106l-1.468,0.803
					c-0.184,0.101-0.184,0.365,0,0.466l1.468,0.803c0.044,0.024,0.081,0.061,0.106,0.106l0.803,1.468
					c0.101,0.184,0.365,0.184,0.466,0l0.803-1.468c0.024-0.045,0.061-0.081,0.106-0.106l1.468-0.803
					c0.184-0.101,0.184-0.365,0-0.466l-1.468-0.803c-0.044-0.024-0.081-0.061-0.106-0.106l-0.803-1.468
					C567.041,382.394,566.776,382.394,566.675,382.579z"/>
			</g>
			<g>
				<path style="fill:#FFFFFF;" d="M643.311,391.575l-0.803,1.468c-0.024,0.045-0.061,0.081-0.106,0.106l-1.468,0.803
					c-0.184,0.101-0.184,0.365,0,0.466l1.468,0.803c0.045,0.024,0.081,0.061,0.106,0.106l0.803,1.468
					c0.101,0.184,0.365,0.184,0.466,0l0.803-1.468c0.024-0.045,0.061-0.081,0.106-0.106l1.468-0.803
					c0.184-0.101,0.184-0.365,0-0.466l-1.468-0.803c-0.045-0.024-0.081-0.061-0.106-0.106l-0.803-1.468
					C643.677,391.391,643.412,391.391,643.311,391.575z"/>
			</g>
			<g>
				<g>
					<path style="fill:#1A0E90;" d="M673.352,245.037c1.866,0,1.869-2.899,0-2.899C671.487,242.138,671.484,245.037,673.352,245.037
						L673.352,245.037z"/>
				</g>
			</g>
			<g>
				<g>
					<path style="fill:#1A0E90;" d="M176.462,370.247c1.865,0,1.868-2.899,0-2.899C174.596,367.348,174.593,370.247,176.462,370.247
						L176.462,370.247z"/>
				</g>
			</g>
			<g>
				<g>
					<path style="fill:#1A0E90;" d="M232.127,96.668c1.865,0,1.868-2.899,0-2.899C230.261,93.769,230.258,96.668,232.127,96.668
						L232.127,96.668z"/>
				</g>
			</g>
			<g>
				<g>
					<path style="fill:#1A0E90;" d="M583.62,337.384c1.865,0,1.868-2.899,0-2.899C581.754,334.485,581.751,337.384,583.62,337.384
						L583.62,337.384z"/>
				</g>
			</g>
			<g>
				<g>
					<path style="fill:#1A0E90;" d="M571.323,124.371c1.865,0,1.868-2.899,0-2.899C569.457,121.472,569.454,124.371,571.323,124.371
						L571.323,124.371z"/>
				</g>
			</g>
		</g>
	</g>
</g>
</svg>
