<svg width="18" height="18" viewBox="0 0 18 18" fill="none" xmlns="http://www.w3.org/2000/svg">
<path fill-rule="evenodd" clip-rule="evenodd" d="M6.943 0.452364L2.119 2.65636C1.99264 2.71282 1.88507 2.80428 1.80902 2.91991C1.73297 3.03555 1.69161 3.17054 1.68982 3.30893C1.68803 3.44732 1.72589 3.58333 1.79893 3.7009C1.87197 3.81846 1.97714 3.91266 2.102 3.97236L6.847 6.25436C7.53145 6.58312 8.28134 6.75298 9.04064 6.75124C9.79995 6.74951 10.5491 6.57624 11.232 6.24436L15.893 3.96636C16.0175 3.90713 16.1225 3.81343 16.1953 3.69637C16.2682 3.57931 16.306 3.4438 16.3042 3.30592C16.3024 3.16803 16.2611 3.03355 16.1852 2.91842C16.1093 2.80329 16.002 2.71235 15.876 2.65636L11.143 0.464364C10.485 0.160474 9.76912 0.00209147 9.04431 2.05739e-05C8.3195 -0.00205032 7.60276 0.152239 6.943 0.452364ZM11.941 4.91136L11.397 4.65336C10.682 4.96636 9.763 5.05136 9.163 5.06336L8.939 4.68636L9.084 4.68136C9.681 4.66436 10.335 4.64436 10.887 4.41136L8.841 3.44136C8.25 3.63736 7.648 3.79936 7.021 3.76436C6.589 3.73036 5.964 3.57336 5.728 3.16236C5.588 2.90936 5.706 2.67336 5.897 2.47636C6.00167 2.37236 6.11267 2.28136 6.23 2.20336L5.621 1.91436L6.071 1.68936L6.667 1.97236C7.28 1.72136 7.989 1.68936 8.64 1.68936L8.68 1.98736H8.619C8.259 1.98736 7.571 1.98536 7.095 2.17736L8.902 3.03736C9.31403 2.91821 9.7367 2.8395 10.164 2.80236C10.754 2.75736 11.356 2.80236 11.811 3.00536C12.194 3.17336 12.514 3.55536 12.261 3.97736C12.1437 4.15405 11.9924 4.30566 11.816 4.42336L12.368 4.68636L11.941 4.91136ZM0 12.5564V5.94036C0 5.13636 0.843 4.60236 1.585 4.93936L6.471 7.17736C7.05489 7.44317 7.55017 7.87105 7.89798 8.41013C8.24578 8.94921 8.43148 9.57682 8.433 10.2184V16.8754C8.433 17.6854 7.583 18.2194 6.842 17.8754L1.951 15.5934C1.36994 15.3263 0.877461 14.8985 0.531741 14.3605C0.186021 13.8225 0.00150799 13.1969 0 12.5574M5.858 14.9914C5.633 15.1324 5.408 15.1834 5.082 15.1834C4.109 15.1834 3.069 14.3064 2.563 13.0804C2.36716 12.5863 2.24974 12.0647 2.215 11.5344L1.686 11.3094L1.956 10.7754L2.192 10.8764C2.198 10.6064 2.22 10.3314 2.248 10.0614L1.686 9.81936L1.956 9.29036L2.344 9.46036L2.355 9.38036C2.541 8.44736 2.945 7.87436 3.817 7.87436C4.509 7.87436 5.257 8.38036 5.835 9.14436C5.76483 9.40064 5.66092 9.64646 5.526 9.87536C5.178 9.14536 4.649 8.63836 4.042 8.63836C3.39 8.63836 3.069 9.03836 2.912 9.70136L5.234 10.6964L4.964 11.2304L2.805 10.3024C2.771 10.5674 2.749 10.8424 2.749 11.1184L4.745 11.9784L4.475 12.5064L2.794 11.7814C2.839 12.1184 2.917 12.4564 3.047 12.7594C3.44 13.7324 4.227 14.4404 4.997 14.4404C5.228 14.4404 5.408 14.3954 5.543 14.3174C5.627 14.4574 5.74 14.6874 5.858 14.9914ZM16.405 4.95636C17.147 4.61836 17.99 5.15236 17.99 5.96236V12.5794C17.9886 13.2187 17.8042 13.8444 17.4587 14.3823C17.1131 14.9203 16.6209 15.3482 16.04 15.6154L11.148 17.8924C10.9787 17.9726 10.7919 18.0088 10.6049 17.9977C10.4179 17.9866 10.2368 17.9285 10.0782 17.8288C9.91956 17.7291 9.78866 17.5911 9.69757 17.4274C9.60647 17.2637 9.55813 17.0797 9.557 16.8924V10.2354C9.55947 9.59467 9.74562 8.96813 10.0934 8.43002C10.4411 7.89192 10.9359 7.46482 11.519 7.19936L16.405 4.95636ZM14.865 7.90036L15.505 7.68136L14.055 11.7184V12.0724L15.179 11.5104V12.0724L14.055 12.6344V13.3484L15.179 12.7924V13.3544L14.055 13.9164V14.8784L13.492 15.1814V14.1914L12.368 14.7544V14.1924L13.492 13.6304V12.9104L12.368 13.4724V12.9104L13.492 12.3534V12.0724L11.856 9.36836L12.475 9.00836L13.723 11.1454L14.865 7.90036Z" fill="black"/>
</svg>
