<svg width="495" height="403" viewBox="0 0 495 403" fill="none" xmlns="http://www.w3.org/2000/svg">
    <path fill-rule="evenodd" clip-rule="evenodd" d="M103.497 273.411C101.912 269.827 85.7779 258.293 84.444 233.385C84.1372 227.654 86.1872 219.318 85.423 215.174C95.8784 185.27 97.0584 189.619 108.919 173.772C110.91 171.112 111.342 169.854 113.779 167.692L119.267 164.401C121.197 163.908 123.926 167.172 120.835 171.554L107.305 185.022C102.532 191.225 90.2285 213.593 93.3153 221.403C94.2164 223.682 93.2566 219.873 94.677 223.832C95.6561 226.557 95.0704 230.652 96.5625 236.182C98.8423 244.641 102.697 255.662 108.5 259.563C104.376 250.266 101.144 245.886 100.984 233.379C100.808 219.525 105.474 214.757 107.397 205.907L151.326 204.653C155.151 204.787 160.949 205.443 166.569 205.487L167.067 206.174C170.728 202.798 178.689 181.812 180.096 175.846L165.32 175.517L171.454 161.04L200.328 161.209L207.367 145L219.344 145.559L213.229 161.619L220.781 161.628L227.674 145.463L239.888 145.668L234.076 161.683C243.005 163.496 261.307 163.643 264.233 177.652C266.799 189.942 253.775 199.153 243.822 201.638C246.542 203.365 249.898 204.421 252.427 206.434C255.046 208.518 256.637 211.081 258.461 213.272C262.725 210.059 261.606 210.698 264.422 206.83C266.073 204.562 263.109 206.55 266.014 205.712C266.223 205.652 266.573 205.507 266.835 205.441L268.6 205.043C269.179 204.941 270.747 204.81 271.408 204.749L310.155 204.698C315.202 203.316 309.044 205.921 312.036 203.653C312.253 203.488 313.096 202.835 313.217 202.383C313.333 201.955 313.589 201.869 313.818 201.649C312.902 208.342 311.086 214.998 309.245 218.909C307.22 223.206 307.548 224.786 304.21 228.952C304.191 228.977 302.659 230.748 302.589 230.827L301.304 232.191C298.148 234.003 281.719 264.849 223.263 283.376C210.571 287.398 199.614 288.227 186.235 290.152C187.396 289.938 193.45 290.58 196.93 290.246C200.603 289.892 206.13 289.349 210.413 288.785C226.979 286.604 259.634 273.672 273.803 265.664C295.684 253.294 321.539 227.728 327.098 202.579C328.041 208.052 325.541 207.3 331.562 208.571C342.991 172.647 317.44 144.684 295.297 134.527C269.902 122.876 250.324 118.992 221.511 121.051C212.414 121.7 205.468 123.955 196.78 124.74C197.091 120.314 196.084 121.592 195.98 116.743C191.241 116.658 185.87 115.709 177.93 118.398C140.26 131.159 101.129 151.37 79.258 185.261C57.5552 218.891 59.3626 256.174 90.9137 284.801C94.4515 288.011 115.962 302.844 121.411 300.62L120.867 298.038C119.708 293.507 120.681 297.296 120.607 295C120.37 287.729 115.226 286.396 110.206 282.596C107.806 280.778 105.741 278.894 103.366 277.392L103.5 273.409L103.497 273.411Z" fill="#16C5EC"/>
    <path fill-rule="evenodd" clip-rule="evenodd" d="M331.558 208.572C328.943 213.906 327.952 218.551 324.964 223.807C317.326 237.247 307.085 248.41 294.977 257.779C260.845 284.191 210.509 302.019 165.357 296.474C137.515 293.055 124.481 288.642 103.498 273.41L103.363 277.393C105.738 278.894 107.803 280.779 110.204 282.597C115.222 286.397 120.366 287.729 120.604 295.001C120.679 297.297 119.706 293.508 120.864 298.038L121.408 300.621C115.958 302.844 94.4489 288.012 90.911 284.802C59.36 256.175 57.5525 218.892 79.2553 185.262C101.126 151.372 140.256 131.16 177.927 118.398C185.868 115.709 191.239 116.658 195.977 116.744C196.081 121.592 197.089 120.315 196.778 124.741C205.465 123.956 212.413 121.702 221.508 121.051C250.321 118.994 269.899 122.878 295.295 134.527C317.438 144.685 342.988 172.647 331.559 208.572H331.558ZM66.9979 263.453C69.6155 265.658 71.3459 269.029 73.133 271.637C107.085 321.156 188.8 322.581 239.635 306.674C260.906 300.017 280.877 292.097 298.973 278.796C310.866 270.053 311.929 269.621 322.171 258.955C332.74 247.949 329.896 253.314 342.548 235.322C350.372 224.197 354.916 212.002 356.478 198.224C356.853 194.921 356.602 192.967 358.046 192.603C361.825 202.524 363.972 220.162 360.673 232.014C364.435 231.003 367.403 234.264 373.663 234.199C374.68 207.137 369.537 194.291 358.427 174.462C349.845 159.145 351.521 160.24 340.985 145.891C336.738 140.106 332.199 136.295 326.087 131.734C272.237 91.5481 179.218 104.178 122.307 141.182C113.811 146.706 107.955 151.913 100.525 157.429C97.493 159.68 98.5533 158.816 95.8822 161.773C85.6214 173.136 74.9907 182.736 67.9449 199.904C59.143 221.348 58.3264 241.503 66.9989 263.453H66.9979Z" fill="#B8DCE4"/>
    <path fill-rule="evenodd" clip-rule="evenodd" d="M184.7 234.944L193.303 211.353C199.421 210.696 213.196 210.824 218.975 211.949C225.592 213.237 232.518 218.488 227.684 225.469C219.771 236.893 200.771 234.506 184.7 234.945V234.944ZM207.123 175.839C212.663 176.012 219.089 175.585 224.455 176.155C230.594 176.808 231.331 177.918 235.519 180.999C238.079 199.048 213.603 196.963 198.898 197.385L207.124 175.839H207.123ZM167.066 206.174C166.53 211.919 158.328 227.005 156.224 234.26L143.421 235.225L137.332 250.05L168.008 250.359L162.227 268.308L174.454 268.229L180.737 250.566L188.404 250.399L182.762 267.954L196.069 268.333L202.549 250.68C227.436 250.93 253.583 243.853 258.681 222.631L258.457 213.271C256.633 211.079 255.042 208.517 252.424 206.433C249.894 204.42 246.539 203.364 243.818 201.637C253.772 199.151 266.795 189.939 264.229 177.651C261.304 163.642 243.002 163.495 234.073 161.681L239.884 145.667L227.67 145.462L220.777 161.627L213.225 161.618L219.341 145.558L207.364 144.999L200.324 161.208L171.45 161.039L165.316 175.515L180.092 175.845C178.685 181.811 170.725 202.797 167.064 206.173L167.066 206.174Z" fill="#DDFDFD"/>
    <path fill-rule="evenodd" clip-rule="evenodd" d="M398.548 251.245L386.078 260.794C372.512 271.094 359.788 279.03 345.487 288.242C327.283 299.968 306.375 309.553 286.362 320.213C255.577 336.61 185.734 360.556 148.92 364.782C116.672 366.86 96.6127 375.32 55.7851 366.016C35.9988 361.508 18.8717 353.6 8.50821 338.312C2.99192 330.174 4.41027 327.2 1.30422 319.515C-3.57824 332.312 6.04346 354.923 16.9649 365.827C21.0799 369.936 29.4254 375.134 36.3942 378.509C114.856 416.508 244.058 371.036 319.078 336.966C325.369 334.109 334.734 329.658 340.443 326.342L360.897 314.152C370.537 311.089 409.74 284.175 418.003 277.736L437.67 262.358C440.349 259.954 440.899 258.79 443.722 256.436C449.078 251.969 464.977 237.505 466.547 231.639C472.383 227.579 485.308 206.119 488.936 195.591C506.66 144.157 440.943 113.073 401.147 109.771C406.522 113.372 420.124 117.067 432.524 125.415C436.329 127.977 438.298 130.057 441.416 132.52C452.076 140.937 460.229 159.738 454.623 179.12C447.749 202.891 431.447 219.92 415.127 235.831C409.815 241.011 404.734 246.179 398.548 251.246V251.245Z" fill="#69DAEC"/>
    <path fill-rule="evenodd" clip-rule="evenodd" d="M66.9972 263.453C77.3232 297.473 97.2603 314.201 129.615 326.171C190.977 348.873 276.016 322.328 320.72 282.54C331.156 273.253 340.432 262.566 348.541 247.364C357.973 229.687 355.918 213.79 358.045 192.602C356.602 192.966 356.852 194.92 356.476 198.223C354.914 212.002 350.37 224.196 342.546 235.321C329.894 253.313 332.739 247.948 322.169 258.954C311.927 269.62 310.865 270.052 298.971 278.795C280.875 292.097 260.904 300.016 239.633 306.672C188.798 322.58 107.083 321.154 73.1312 271.636C71.3441 269.028 69.6137 265.657 66.9961 263.452L66.9972 263.453Z" fill="#EB902F"/>
    <path fill-rule="evenodd" clip-rule="evenodd" d="M383.008 122.41L382.866 86.7182L383.286 0L325.108 20.5549C322.144 23.4407 323.701 32.4724 323.69 37.1839C323.677 43.521 323.639 49.8603 323.602 56.1996C323.531 68.1204 323.41 80.5799 323.732 92.4654L323.644 115.25C341.001 127.16 345.626 127.85 359.954 148.935C381.539 180.701 376.463 183.66 382.291 196.256L383.008 122.41Z" fill="#1BDBF6"/>
    <path fill-rule="evenodd" clip-rule="evenodd" d="M137.331 250.049L143.42 235.225L156.223 234.259C158.327 227.003 166.529 211.919 167.065 206.173L166.567 205.486C160.947 205.442 155.149 204.786 151.323 204.653L107.395 205.906C105.471 214.756 100.806 219.524 100.982 233.379C101.141 245.885 104.373 250.265 108.498 259.562C102.694 255.662 98.8401 244.64 96.5602 236.181C95.0681 230.651 95.6538 226.556 94.6748 223.832C93.2543 219.873 94.2141 223.681 93.3131 221.402C90.2263 213.592 102.53 191.225 107.303 185.021L120.833 171.554C123.924 167.172 121.195 163.906 119.265 164.4L113.777 167.691C111.34 169.853 110.908 171.111 108.917 173.772C97.0572 189.618 95.8772 185.269 85.4208 215.173C86.185 219.317 84.1349 227.653 84.4417 233.384C85.7767 258.291 101.91 269.825 103.495 273.41C124.478 288.641 137.512 293.054 165.354 296.473C210.506 302.019 260.842 284.19 294.974 257.779C307.083 248.41 317.324 237.247 324.961 223.807C327.949 218.551 328.94 213.905 331.555 208.572C325.535 207.3 328.034 208.051 327.092 202.579C321.533 227.729 295.678 253.294 273.796 265.664C259.628 273.673 226.973 286.605 210.407 288.785C206.124 289.35 200.597 289.893 196.923 290.246C193.443 290.581 187.389 289.938 186.228 290.152C199.606 288.226 210.565 287.399 223.256 283.377C281.712 264.85 298.141 234.003 301.298 232.191C299.973 229.17 299.456 231.574 297.547 234.347C292.817 233.271 294.069 232.564 285.52 232.861C278.649 233.102 269.904 245.219 253.495 245.374C255.143 242.837 270.98 225.896 259.697 215.592L258.681 222.633C253.582 243.853 227.436 250.931 202.55 250.681L196.069 268.334L182.762 267.956L188.405 250.401L180.737 250.568L174.454 268.23L162.228 268.309L168.008 250.36L137.332 250.052L137.331 250.049Z" fill="#0788D3"/>
    <path fill-rule="evenodd" clip-rule="evenodd" d="M346.72 340.229L306.244 359.025C292.022 365.355 278.603 370.305 264.036 375.926C249.387 381.578 234.819 386.012 219.513 390.558C211.761 392.859 175.465 400.662 172.668 402.262C205.598 404.388 241.457 398.458 271.114 390.992C286.508 387.118 341.979 369.5 350.617 360.209C368.596 354.574 418.201 319.205 436.218 301.949L462.347 274.053C475.084 258.329 490.259 236.491 494.308 213.697C492.937 215.061 484.518 231.054 477.696 240.346C470.544 250.084 456.937 262.805 448.686 271.37C442.864 277.413 427.514 288.87 420.382 294.118C418.789 295.29 417.192 296.35 415.708 297.464C413.664 299 412.846 299.86 410.632 301.383C396.11 311.376 361.918 333.877 346.719 340.23L346.72 340.229Z" fill="#0658B4"/>
    <path fill-rule="evenodd" clip-rule="evenodd" d="M170.193 348.709C130.653 350.466 68.0583 352.916 39.222 325.558C37.4766 323.903 31.8598 317.493 30.2972 314.493C17.7757 290.458 37.0736 270.409 42.1966 258.549C36.256 261.229 27.7363 272.268 23.7741 277.877C19.1748 284.391 14.0444 294.822 13.2321 304.508C11.1243 329.628 25.7504 341.381 42.9726 348.782C58.8737 355.617 87.137 358.395 106.436 357.859C128.446 357.249 150.004 352.822 170.196 348.709H170.193Z" fill="#12A9E3"/>
    <path fill-rule="evenodd" clip-rule="evenodd" d="M258.459 213.272L258.682 222.632L259.699 215.591C270.981 225.895 255.144 242.836 253.496 245.374C269.905 245.219 278.65 233.101 285.522 232.861C294.07 232.564 292.819 233.27 297.548 234.346C299.457 231.574 299.976 229.169 301.299 232.191L302.584 230.827C302.654 230.748 304.187 228.977 304.205 228.952C307.543 224.785 307.216 223.206 309.239 218.909C311.081 214.998 312.897 208.342 313.813 201.648C313.584 201.869 313.328 201.954 313.212 202.383C313.09 202.836 312.248 203.488 312.031 203.653C309.039 205.92 315.198 203.316 310.15 204.698L271.402 204.749C270.742 204.811 269.174 204.94 268.595 205.043L266.83 205.441C266.569 205.507 266.217 205.652 266.009 205.712C263.105 206.55 266.068 204.562 264.416 206.83C261.601 210.698 262.72 210.059 258.456 213.272H258.459Z" fill="#12A9E3"/>
    <path fill-rule="evenodd" clip-rule="evenodd" d="M252.496 64.8141L252.061 66.4409C252.028 66.6621 251.935 67.0234 251.902 67.3013C251.867 67.5931 251.827 67.8795 251.8 68.213C251.718 69.1878 251.763 71.132 251.775 72.1773C251.831 76.8065 251.461 90.6458 252.722 94.3397C253.345 96.1621 276.365 97.6585 282.757 99.0031C292.148 100.978 300.69 104.687 310.047 107.882L309.56 93.7636L309.668 49.0615L252.497 64.8141H252.496Z" fill="#0788D3"/>
    <path fill-rule="evenodd" clip-rule="evenodd" d="M184.699 234.944C200.77 234.505 219.77 236.892 227.684 225.468C232.517 218.487 225.591 213.236 218.975 211.948C213.196 210.822 199.42 210.696 193.302 211.351L184.699 234.943V234.944Z" fill="#0788D3"/>
    <path fill-rule="evenodd" clip-rule="evenodd" d="M198.898 197.385C213.604 196.962 238.078 199.048 235.518 180.998C231.33 177.919 230.593 176.807 224.455 176.154C219.088 175.584 212.662 176.011 207.122 175.839L198.896 197.385H198.898Z" fill="#12A9E3"/>
    <path fill-rule="evenodd" clip-rule="evenodd" d="M360.673 232.015C357.739 243.2 355.709 250.499 350.371 259.144C344.928 267.958 339.885 274.593 333.855 280.255C342.226 275.646 352.626 269.723 359.677 263.443C369.575 254.626 372.721 253.233 373.662 234.199C367.403 234.265 364.435 231.005 360.673 232.015Z" fill="#EB902F"/>
</svg>
