<svg width="16" height="19" viewBox="0 0 16 19" fill="none" xmlns="http://www.w3.org/2000/svg">
<path d="M6.96399 0.0709349C7.07761 0.00295761 7.21355 -0.0171815 7.34199 0.0149349L10.739 0.861935C10.8617 0.892865 10.9682 0.969205 11.0369 1.07555C11.1055 1.1819 11.1313 1.31033 11.109 1.43493C13.474 2.54193 15.234 4.36493 15.924 6.41793C15.9596 6.52393 15.9586 6.63879 15.9212 6.74416C15.8838 6.84953 15.8121 6.93932 15.7177 6.9992C15.6233 7.05908 15.5115 7.08558 15.4003 7.07447C15.289 7.06337 15.1847 7.01529 15.104 6.93793C13.894 5.77793 12.31 4.76693 10.462 4.03593L10.437 4.13593C10.4049 4.26455 10.323 4.37514 10.2094 4.44339C10.0957 4.51165 9.95962 4.53199 9.831 4.49993L9.34599 4.37993L8.439 8.01793C8.56761 8.05006 8.6782 8.13194 8.74645 8.24558C8.81471 8.35921 8.83505 8.49531 8.80299 8.62393L6.50499 17.8419C6.47287 17.9705 6.39099 18.0811 6.27735 18.1494C6.16372 18.2177 6.02762 18.238 5.89899 18.2059L3.47299 17.6009C3.34438 17.5688 3.23379 17.4869 3.16554 17.3733C3.09728 17.2597 3.07694 17.1236 3.109 16.9949L5.40699 7.77693C5.43912 7.64832 5.521 7.53773 5.63464 7.46948C5.74827 7.40122 5.88437 7.38088 6.01299 7.41293L6.91999 3.77493L6.43499 3.65393C6.37121 3.63803 6.31118 3.60971 6.25835 3.57059C6.20552 3.53146 6.16092 3.4823 6.12711 3.42592C6.0933 3.36954 6.07094 3.30705 6.06131 3.24202C6.05168 3.17699 6.05497 3.11069 6.07099 3.04693L6.09599 2.94693C4.12199 2.72493 2.24899 2.87393 0.635995 3.32993C0.528416 3.36034 0.413751 3.35382 0.310315 3.31141C0.206879 3.269 0.12064 3.19314 0.0653732 3.09597C0.0101067 2.99879 -0.0109988 2.88589 0.00542807 2.77531C0.021855 2.66473 0.0748668 2.56285 0.155995 2.48593C1.728 0.997935 4.138 0.213935 6.746 0.345935C6.78326 0.231311 6.86068 0.133007 6.96399 0.0709349Z" fill="black"/>
</svg>
