<svg width="24" height="24" viewBox="0 0 24 24" fill="none" xmlns="http://www.w3.org/2000/svg">
<path fill-rule="evenodd" clip-rule="evenodd" d="M21.8244 13.1311C21.627 12.5473 21.2993 12.0161 20.8662 11.5778C20.433 11.1394 19.9058 10.8054 19.3244 10.6011C18.7927 10.4115 18.227 10.3365 17.6644 10.3811C17.6644 10.3011 17.5944 4.50011 17.2144 3.74011C17.1406 3.56571 17.0257 3.41182 16.8794 3.29163C16.733 3.17145 16.5598 3.08857 16.3744 3.05011C12.5744 2.24011 10.9034 2.99011 8.50336 3.40011C7.35336 3.59011 5.75336 3.87011 5.69336 5.00011C5.82003 5.99611 5.89336 6.99611 5.91336 8.00011C5.76985 11.454 5.82327 14.9133 6.07336 18.3611C6.02932 19.4014 6.25677 20.4353 6.73336 21.3611C7.36336 22.2111 8.68336 21.9011 9.63336 21.8411L12.5134 21.6511C12.6062 21.6511 12.6952 21.6142 12.7608 21.5486C12.8265 21.483 12.8634 21.3939 12.8634 21.3011C12.8634 21.2083 12.8265 21.1193 12.7608 21.0536C12.6952 20.988 12.6062 20.9511 12.5134 20.9511L10.5134 21.0011C10.5834 19.0711 9.42336 18.4911 7.66336 17.5811C7.59336 17.5811 7.30336 17.3211 7.20336 17.3811C7.16487 17.3422 7.11645 17.3145 7.06336 17.3011C6.95336 14.2411 7.06336 10.9211 7.06336 8.47111C7.06336 7.93111 8.52336 8.25111 9.70336 6.07011C10.1052 5.41534 10.2645 4.64028 10.1534 3.88011C11.145 3.51987 12.2007 3.37002 13.2534 3.44011C13.3988 4.41195 13.8147 5.32331 14.4534 6.07011C15.0114 6.58679 15.7052 6.93368 16.4534 7.07011V7.78011C16.4534 8.03011 16.9434 9.69011 17.0334 10.7201C16.3334 11.6701 17.2934 14.3401 17.0334 16.7201C16.2333 15.7155 15.2047 14.9167 14.0334 14.3901C12.7134 14.0601 11.3634 15.1301 12.4634 16.9901C13.4728 18.3432 14.5649 19.6327 15.7334 20.8511C16.0734 21.2611 16.1034 21.3711 16.0534 22.3811C16.0674 22.7411 16.0174 23.1001 15.9034 23.4411C15.881 23.4753 15.8657 23.5135 15.8581 23.5535C15.8505 23.5936 15.8509 23.6348 15.8593 23.6747C15.8677 23.7147 15.8838 23.7526 15.9068 23.7863C15.9298 23.82 15.9592 23.8488 15.9934 23.8711C16.0275 23.8934 16.0657 23.9088 16.1058 23.9164C16.1459 23.9239 16.1871 23.9235 16.227 23.9152C16.2669 23.9068 16.3048 23.8907 16.3385 23.8677C16.3722 23.8447 16.401 23.8153 16.4234 23.7811C16.7284 22.8878 16.8108 21.9335 16.6634 21.0011C16.3934 20.0011 12.2834 16.1911 13.0834 15.4511C13.8834 14.7111 15.8634 17.0411 16.7234 17.9911C16.9384 18.1571 17.2034 18.2461 17.4734 18.2411C19.0534 18.0011 17.7234 12.6111 17.9934 11.4811C18.7295 11.4773 19.4413 11.7442 19.9934 12.2311C20.692 13.0242 21.1715 13.9859 21.3844 15.0211C21.7197 16.2383 21.7506 17.5192 21.4744 18.7511C21.3644 19.2411 20.3944 20.5611 20.4744 21.0811C20.5184 21.9741 20.6424 22.8611 20.8444 23.7311C20.8601 23.7744 20.8843 23.8143 20.9154 23.8483C20.9465 23.8823 20.9841 23.9098 21.0259 23.9293C21.0677 23.9488 21.1129 23.9599 21.1589 23.9619C21.205 23.9639 21.251 23.9569 21.2944 23.9411C21.3377 23.9254 21.3775 23.9012 21.4115 23.8701C21.4455 23.8389 21.4731 23.8014 21.4926 23.7596C21.5121 23.7178 21.5231 23.6726 21.5252 23.6265C21.5272 23.5805 21.5201 23.5344 21.5044 23.4911C21.3652 22.6684 21.295 21.8355 21.2944 21.0011C21.3644 21.0011 21.3644 20.8011 21.4444 20.6511C21.6244 20.3011 21.9044 19.8411 22.0944 19.4911C22.9944 17.8811 22.5544 14.7111 21.8244 13.1311ZM7.99336 19.0011C9.19336 20.0011 9.52336 20.0011 9.74336 21.0011H9.60336C9.10336 21.0011 7.76336 21.2211 7.47336 20.8011C7.14609 19.9445 7.01951 19.0243 7.10336 18.1111L7.99336 19.0011ZM8.99336 5.21011C8.56698 5.77154 8.10609 6.30591 7.61336 6.81011C6.83336 7.73011 7.05336 7.31011 6.96336 6.38011C6.77336 4.71011 6.75336 4.87011 7.30336 4.65011C8.01064 4.41219 8.73203 4.21848 9.46336 4.07011C9.39336 4.48011 9.23336 4.87011 8.99336 5.21011ZM15.3934 5.34011C15.2734 5.22011 13.2834 3.24011 14.1934 3.47011C14.8467 3.70811 15.5134 3.90144 16.1934 4.05011C16.3284 4.72411 16.3824 5.41311 16.3534 6.10011C16.0023 5.89308 15.6824 5.63719 15.4034 5.34011H15.3934Z" fill="white"/>
<path fill-rule="evenodd" clip-rule="evenodd" d="M23.9945 4.08C23.9945 3.36 23.9945 1.08 23.4145 0.65C22.8345 0.22 19.7345 0 16.2045 0C12.3445 0 7.91347 0.2 5.74347 0.44C4.55747 0.609333 3.38413 0.839333 2.22347 1.13C1.71347 1.25 0.973465 1.13 0.453465 1.68C-0.0665346 2.23 0.0634654 3.35 0.0734654 4.08C0.0734654 4.62 -0.167535 6.27 0.223465 6.68C0.665465 7.004 1.20347 7.17 1.75347 7.15C2.82601 7.3541 3.92921 7.33367 4.99347 7.09C5.07303 7.06878 5.14091 7.01683 5.18217 6.94556C5.22342 6.8743 5.23468 6.78956 5.21347 6.71C5.19225 6.63044 5.14029 6.56256 5.06903 6.5213C4.99777 6.48004 4.91303 6.46878 4.83347 6.49C3.47889 6.6987 2.0941 6.58216 0.793465 6.15C1.14347 1.28 0.693465 2.46 2.44347 2.15C5.21347 1.6 5.86346 1.46 11.8835 1.27C13.0835 1.27 21.6945 0.97 22.7845 1.45C22.9835 2.322 23.0805 3.215 23.0745 4.11C23.0745 4.22 22.8945 4.98 23.0745 5.11C22.8145 5.17 22.1545 5.11 21.8845 5.2C20.9585 5.324 20.0285 5.39733 19.0945 5.42C19.0016 5.42 18.9126 5.45687 18.847 5.52251C18.7813 5.58815 18.7445 5.67717 18.7445 5.77C18.7445 5.86283 18.7813 5.95185 18.847 6.01749C18.9126 6.08313 19.0016 6.12 19.0945 6.12C20.0631 6.13733 21.0298 6.09733 21.9945 6C22.3245 6 22.7945 6 23.1645 5.95C24.2745 5.76 23.9345 5 23.9945 4.08ZM10.5535 10.611C10.645 10.5911 10.7248 10.5357 10.7754 10.4569C10.8261 10.3782 10.8434 10.2825 10.8235 10.191C10.8036 10.0995 10.7481 10.0196 10.6694 9.96902C10.5906 9.91838 10.495 9.90111 10.4035 9.921C9.86347 10.011 9.48347 10.371 9.40347 11.171C9.05347 11.001 8.12346 11.361 8.13346 11.741C8.14346 12.121 9.07347 12.431 9.48347 12.141C9.57647 12.585 9.76447 13.004 10.0335 13.371C10.186 13.5475 10.3955 13.665 10.6256 13.7034C10.8557 13.7417 11.0919 13.6985 11.2935 13.581C12.2235 13.081 12.2935 11.401 12.7735 10.991C13.0135 10.771 13.1235 10.681 13.3935 10.991C13.8935 11.601 13.7635 12.221 13.6435 12.261C13.5649 12.2864 13.4992 12.3411 13.4601 12.4138C13.4209 12.4865 13.4114 12.5715 13.4335 12.651C13.5635 13.081 14.3435 12.901 14.4335 11.911C14.6764 11.9931 14.9417 11.9786 15.1743 11.8707C15.407 11.7627 15.5892 11.5695 15.6835 11.331C15.6188 11.2204 15.5315 11.1247 15.4274 11.0502C15.3232 10.9756 15.2044 10.9239 15.0789 10.8984C14.9533 10.8729 14.8238 10.8742 14.6988 10.9023C14.5738 10.9303 14.4561 10.9844 14.3535 11.061C13.9935 9.871 13.0935 9.531 12.4835 9.791C12.3247 9.87725 12.1741 9.97766 12.0335 10.091C11.2635 10.651 11.2735 11.631 10.8935 12.261C10.5135 12.891 10.8335 12.791 10.5535 12.311C10.2735 11.831 9.99346 10.771 10.5535 10.611Z" fill="white"/>
</svg>
